0
SECTION
2
HEADER
9
$ANGDIR
70
1
9
$AUNITS
70
0
9
$PROJECTNAME
1
ASTRA Mk2
9
$TDCREATE
40
2459368.43083977
9
$INSUNITS
70
4
0
ENDSEC
0
SECTION
2
ENTITIES
0
POLYLINE
66
1
8
outline
10
0.0
20
0.0
30
0.0
70
1
0
VERTEX
8
0
10
0
20
0
30
0
0
VERTEX
8
0
10
27.5
20
0
30
0
0
VERTEX
8
0
10
27.5
20
65
30
0
0
VERTEX
8
0
10
0
20
65
30
0
0
VERTEX
8
0
10
0
20
0
30
0
0
SEQEND
0
POLYLINE
66
1
8
holes
10
0.0
20
0.0
30
0.0
70
1
0
VERTEX
8
0
10
26
20
61.946428125000004
30
0
0
VERTEX
8
0
10
25.99235625
20
61.83955625
30
0
0
VERTEX
8
0
10
25.977109375
20
61.73350000000001
30
0
0
VERTEX
8
0
10
25.954331250000003
20
61.628803125000005
30
0
0
VERTEX
8
0
10
25.924146875
20
61.526
30
0
0
VERTEX
8
0
10
25.886703125
20
61.425609375
30
0
0
VERTEX
8
0
10
25.84219375
20
61.328146875
30
0
0
VERTEX
8
0
10
25.79084375
20
61.23410625
30
0
0
VERTEX
8
0
10
25.732915625
20
61.143971875000005
30
0
0
VERTEX
8
0
10
25.66870625
20
61.058196875
30
0
0
VERTEX
8
0
10
25.598540625000002
20
60.977221875000005
30
0
0
VERTEX
8
0
10
25.522778125000002
20
60.901459375
30
0
0
VERTEX
8
0
10
25.441803125
20
60.83129375
30
0
0
VERTEX
8
0
10
25.356028125
20
60.767084375
30
0
0
VERTEX
8
0
10
25.26589375
20
60.70915625
30
0
0
VERTEX
8
0
10
25.171853125000002
20
60.65780625
30
0
0
VERTEX
8
0
10
25.074390625
20
60.613296875
30
0
0
VERTEX
8
0
10
24.974
20
60.575853125
30
0
0
VERTEX
8
0
10
24.871196875000003
20
60.545668750000004
30
0
0
VERTEX
8
0
10
24.7665
20
60.522890625
30
0
0
VERTEX
8
0
10
24.660443750000002
20
60.50764375
30
0
0
VERTEX
8
0
10
24.553571875000003
20
60.5
30
0
0
VERTEX
8
0
10
24.446428125
20
60.5
30
0
0
VERTEX
8
0
10
24.33955625
20
60.50764375
30
0
0
VERTEX
8
0
10
24.233500000000003
20
60.522890625
30
0
0
VERTEX
8
0
10
24.128803125
20
60.545668750000004
30
0
0
VERTEX
8
0
10
24.026
20
60.575853125
30
0
0
VERTEX
8
0
10
23.925609375
20
60.613296875
30
0
0
VERTEX
8
0
10
23.828146875
20
60.65780625
30
0
0
VERTEX
8
0
10
23.73410625
20
60.70915625
30
0
0
VERTEX
8
0
10
23.643971875000002
20
60.767084375
30
0
0
VERTEX
8
0
10
23.558196875
20
60.83129375
30
0
0
VERTEX
8
0
10
23.477221875
20
60.901459375
30
0
0
VERTEX
8
0
10
23.401459375
20
60.977221875000005
30
0
0
VERTEX
8
0
10
23.33129375
20
61.058196875
30
0
0
VERTEX
8
0
10
23.267084375
20
61.143971875000005
30
0
0
VERTEX
8
0
10
23.20915625
20
61.23410625
30
0
0
VERTEX
8
0
10
23.15780625
20
61.328146875
30
0
0
VERTEX
8
0
10
23.113296875
20
61.425609375
30
0
0
VERTEX
8
0
10
23.075853125000002
20
61.526
30
0
0
VERTEX
8
0
10
23.04566875
20
61.628803125000005
30
0
0
VERTEX
8
0
10
23.022890625000002
20
61.73350000000001
30
0
0
VERTEX
8
0
10
23.00764375
20
61.83955625
30
0
0
VERTEX
8
0
10
23
20
61.946428125000004
30
0
0
VERTEX
8
0
10
23
20
62.053571875
30
0
0
VERTEX
8
0
10
23.00764375
20
62.160443750000006
30
0
0
VERTEX
8
0
10
23.022890625000002
20
62.2665
30
0
0
VERTEX
8
0
10
23.04566875
20
62.371196875
30
0
0
VERTEX
8
0
10
23.075853125000002
20
62.474000000000004
30
0
0
VERTEX
8
0
10
23.113296875
20
62.574390625
30
0
0
VERTEX
8
0
10
23.15780625
20
62.671853125000005
30
0
0
VERTEX
8
0
10
23.20915625
20
62.765893750000004
30
0
0
VERTEX
8
0
10
23.267084375
20
62.856028125
30
0
0
VERTEX
8
0
10
23.33129375
20
62.941803125
30
0
0
VERTEX
8
0
10
23.401459375
20
63.022778125
30
0
0
VERTEX
8
0
10
23.477221875
20
63.098540625000005
30
0
0
VERTEX
8
0
10
23.558196875
20
63.16870625
30
0
0
VERTEX
8
0
10
23.643971875000002
20
63.232915625000004
30
0
0
VERTEX
8
0
10
23.73410625
20
63.29084375
30
0
0
VERTEX
8
0
10
23.828146875
20
63.34219375
30
0
0
VERTEX
8
0
10
23.925609375
20
63.386703125000004
30
0
0
VERTEX
8
0
10
24.026
20
63.424146875000005
30
0
0
VERTEX
8
0
10
24.128803125
20
63.45433125
30
0
0
VERTEX
8
0
10
24.233500000000003
20
63.477109375000005
30
0
0
VERTEX
8
0
10
24.33955625
20
63.49235625
30
0
0
VERTEX
8
0
10
24.446428125
20
63.5
30
0
0
VERTEX
8
0
10
24.553571875000003
20
63.5
30
0
0
VERTEX
8
0
10
24.660443750000002
20
63.49235625
30
0
0
VERTEX
8
0
10
24.7665
20
63.477109375000005
30
0
0
VERTEX
8
0
10
24.871196875000003
20
63.45433125
30
0
0
VERTEX
8
0
10
24.974
20
63.424146875000005
30
0
0
VERTEX
8
0
10
25.074390625
20
63.386703125000004
30
0
0
VERTEX
8
0
10
25.171853125000002
20
63.34219375
30
0
0
VERTEX
8
0
10
25.26589375
20
63.29084375
30
0
0
VERTEX
8
0
10
25.356028125
20
63.232915625000004
30
0
0
VERTEX
8
0
10
25.441803125
20
63.16870625
30
0
0
VERTEX
8
0
10
25.522778125000002
20
63.098540625000005
30
0
0
VERTEX
8
0
10
25.598540625000002
20
63.022778125
30
0
0
VERTEX
8
0
10
25.66870625
20
62.941803125
30
0
0
VERTEX
8
0
10
25.732915625
20
62.856028125
30
0
0
VERTEX
8
0
10
25.79084375
20
62.765893750000004
30
0
0
VERTEX
8
0
10
25.84219375
20
62.671853125000005
30
0
0
VERTEX
8
0
10
25.886703125
20
62.574390625
30
0
0
VERTEX
8
0
10
25.924146875
20
62.474000000000004
30
0
0
VERTEX
8
0
10
25.954331250000003
20
62.371196875
30
0
0
VERTEX
8
0
10
25.977109375
20
62.2665
30
0
0
VERTEX
8
0
10
25.99235625
20
62.160443750000006
30
0
0
VERTEX
8
0
10
26
20
62.053571875
30
0
0
VERTEX
8
0
10
26
20
61.946428125000004
30
0
0
SEQEND
0
POLYLINE
66
1
8
holes
10
0.0
20
0.0
30
0.0
70
1
0
VERTEX
8
0
10
4.5
20
61.946428125000004
30
0
0
VERTEX
8
0
10
4.49235625
20
61.83955625
30
0
0
VERTEX
8
0
10
4.477109375
20
61.73350000000001
30
0
0
VERTEX
8
0
10
4.45433125
20
61.628803125000005
30
0
0
VERTEX
8
0
10
4.424146875
20
61.526
30
0
0
VERTEX
8
0
10
4.386703125
20
61.425609375
30
0
0
VERTEX
8
0
10
4.34219375
20
61.328146875
30
0
0
VERTEX
8
0
10
4.2908437500000005
20
61.23410625
30
0
0
VERTEX
8
0
10
4.232915625
20
61.143971875000005
30
0
0
VERTEX
8
0
10
4.1687062500000005
20
61.058196875
30
0
0
VERTEX
8
0
10
4.098540625
20
60.977221875000005
30
0
0
VERTEX
8
0
10
4.022778125
20
60.901459375
30
0
0
VERTEX
8
0
10
3.9418031250000003
20
60.83129375
30
0
0
VERTEX
8
0
10
3.8560281250000004
20
60.767084375
30
0
0
VERTEX
8
0
10
3.76589375
20
60.70915625
30
0
0
VERTEX
8
0
10
3.671853125
20
60.65780625
30
0
0
VERTEX
8
0
10
3.5743906250000004
20
60.613296875
30
0
0
VERTEX
8
0
10
3.474
20
60.575853125
30
0
0
VERTEX
8
0
10
3.3711968750000003
20
60.545668750000004
30
0
0
VERTEX
8
0
10
3.2665
20
60.522890625
30
0
0
VERTEX
8
0
10
3.16044375
20
60.50764375
30
0
0
VERTEX
8
0
10
3.0535718750000003
20
60.5
30
0
0
VERTEX
8
0
10
2.946428125
20
60.5
30
0
0
VERTEX
8
0
10
2.8395562500000002
20
60.50764375
30
0
0
VERTEX
8
0
10
2.7335000000000003
20
60.522890625
30
0
0
VERTEX
8
0
10
2.628803125
20
60.545668750000004
30
0
0
VERTEX
8
0
10
2.5260000000000002
20
60.575853125
30
0
0
VERTEX
8
0
10
2.425609375
20
60.613296875
30
0
0
VERTEX
8
0
10
2.3281468750000003
20
60.65780625
30
0
0
VERTEX
8
0
10
2.23410625
20
60.70915625
30
0
0
VERTEX
8
0
10
2.143971875
20
60.767084375
30
0
0
VERTEX
8
0
10
2.058196875
20
60.83129375
30
0
0
VERTEX
8
0
10
1.9772218750000001
20
60.901459375
30
0
0
VERTEX
8
0
10
1.9014593750000002
20
60.977221875000005
30
0
0
VERTEX
8
0
10
1.8312937500000002
20
61.058196875
30
0
0
VERTEX
8
0
10
1.767084375
20
61.143971875000005
30
0
0
VERTEX
8
0
10
1.7091562500000002
20
61.23410625
30
0
0
VERTEX
8
0
10
1.6578062500000001
20
61.328146875
30
0
0
VERTEX
8
0
10
1.613296875
20
61.425609375
30
0
0
VERTEX
8
0
10
1.575853125
20
61.526
30
0
0
VERTEX
8
0
10
1.5456687500000001
20
61.628803125000005
30
0
0
VERTEX
8
0
10
1.522890625
20
61.73350000000001
30
0
0
VERTEX
8
0
10
1.5076437500000002
20
61.83955625
30
0
0
VERTEX
8
0
10
1.5
20
61.946428125000004
30
0
0
VERTEX
8
0
10
1.5
20
62.053571875
30
0
0
VERTEX
8
0
10
1.5076437500000002
20
62.160443750000006
30
0
0
VERTEX
8
0
10
1.522890625
20
62.2665
30
0
0
VERTEX
8
0
10
1.5456687500000001
20
62.371196875
30
0
0
VERTEX
8
0
10
1.575853125
20
62.474000000000004
30
0
0
VERTEX
8
0
10
1.613296875
20
62.574390625
30
0
0
VERTEX
8
0
10
1.6578062500000001
20
62.671853125000005
30
0
0
VERTEX
8
0
10
1.7091562500000002
20
62.765893750000004
30
0
0
VERTEX
8
0
10
1.767084375
20
62.856028125
30
0
0
VERTEX
8
0
10
1.8312937500000002
20
62.941803125
30
0
0
VERTEX
8
0
10
1.9014593750000002
20
63.022778125
30
0
0
VERTEX
8
0
10
1.9772218750000001
20
63.098540625000005
30
0
0
VERTEX
8
0
10
2.058196875
20
63.16870625
30
0
0
VERTEX
8
0
10
2.143971875
20
63.232915625000004
30
0
0
VERTEX
8
0
10
2.23410625
20
63.29084375
30
0
0
VERTEX
8
0
10
2.3281468750000003
20
63.34219375
30
0
0
VERTEX
8
0
10
2.425609375
20
63.386703125000004
30
0
0
VERTEX
8
0
10
2.5260000000000002
20
63.424146875000005
30
0
0
VERTEX
8
0
10
2.628803125
20
63.45433125
30
0
0
VERTEX
8
0
10
2.7335000000000003
20
63.477109375000005
30
0
0
VERTEX
8
0
10
2.8395562500000002
20
63.49235625
30
0
0
VERTEX
8
0
10
2.946428125
20
63.5
30
0
0
VERTEX
8
0
10
3.0535718750000003
20
63.5
30
0
0
VERTEX
8
0
10
3.16044375
20
63.49235625
30
0
0
VERTEX
8
0
10
3.2665
20
63.477109375000005
30
0
0
VERTEX
8
0
10
3.3711968750000003
20
63.45433125
30
0
0
VERTEX
8
0
10
3.474
20
63.424146875000005
30
0
0
VERTEX
8
0
10
3.5743906250000004
20
63.386703125000004
30
0
0
VERTEX
8
0
10
3.671853125
20
63.34219375
30
0
0
VERTEX
8
0
10
3.76589375
20
63.29084375
30
0
0
VERTEX
8
0
10
3.8560281250000004
20
63.232915625000004
30
0
0
VERTEX
8
0
10
3.9418031250000003
20
63.16870625
30
0
0
VERTEX
8
0
10
4.022778125
20
63.098540625000005
30
0
0
VERTEX
8
0
10
4.098540625
20
63.022778125
30
0
0
VERTEX
8
0
10
4.1687062500000005
20
62.941803125
30
0
0
VERTEX
8
0
10
4.232915625
20
62.856028125
30
0
0
VERTEX
8
0
10
4.2908437500000005
20
62.765893750000004
30
0
0
VERTEX
8
0
10
4.34219375
20
62.671853125000005
30
0
0
VERTEX
8
0
10
4.386703125
20
62.574390625
30
0
0
VERTEX
8
0
10
4.424146875
20
62.474000000000004
30
0
0
VERTEX
8
0
10
4.45433125
20
62.371196875
30
0
0
VERTEX
8
0
10
4.477109375
20
62.2665
30
0
0
VERTEX
8
0
10
4.49235625
20
62.160443750000006
30
0
0
VERTEX
8
0
10
4.5
20
62.053571875
30
0
0
VERTEX
8
0
10
4.5
20
61.946428125000004
30
0
0
SEQEND
0
POLYLINE
66
1
8
holes
10
0.0
20
0.0
30
0.0
70
1
0
VERTEX
8
0
10
15.25
20
29.946428125
30
0
0
VERTEX
8
0
10
15.24235625
20
29.83955625
30
0
0
VERTEX
8
0
10
15.227109375000001
20
29.733500000000003
30
0
0
VERTEX
8
0
10
15.204331250000001
20
29.628803125
30
0
0
VERTEX
8
0
10
15.174146875
20
29.526
30
0
0
VERTEX
8
0
10
15.136703125
20
29.425609375
30
0
0
VERTEX
8
0
10
15.09219375
20
29.328146875
30
0
0
VERTEX
8
0
10
15.04084375
20
29.23410625
30
0
0
VERTEX
8
0
10
14.982915625
20
29.143971875000002
30
0
0
VERTEX
8
0
10
14.918706250000001
20
29.058196875
30
0
0
VERTEX
8
0
10
14.848540625
20
28.977221875
30
0
0
VERTEX
8
0
10
14.772778125
20
28.901459375
30
0
0
VERTEX
8
0
10
14.691803125
20
28.83129375
30
0
0
VERTEX
8
0
10
14.606028125
20
28.767084375000003
30
0
0
VERTEX
8
0
10
14.51589375
20
28.709156250000003
30
0
0
VERTEX
8
0
10
14.421853125
20
28.65780625
30
0
0
VERTEX
8
0
10
14.324390625000001
20
28.613296875
30
0
0
VERTEX
8
0
10
14.224
20
28.575853125000002
30
0
0
VERTEX
8
0
10
14.121196875
20
28.54566875
30
0
0
VERTEX
8
0
10
14.0165
20
28.522890625000002
30
0
0
VERTEX
8
0
10
13.91044375
20
28.50764375
30
0
0
VERTEX
8
0
10
13.803571875000001
20
28.5
30
0
0
VERTEX
8
0
10
13.696428125
20
28.5
30
0
0
VERTEX
8
0
10
13.589556250000001
20
28.50764375
30
0
0
VERTEX
8
0
10
13.483500000000001
20
28.522890625000002
30
0
0
VERTEX
8
0
10
13.378803125000001
20
28.54566875
30
0
0
VERTEX
8
0
10
13.276
20
28.575853125000002
30
0
0
VERTEX
8
0
10
13.175609375
20
28.613296875
30
0
0
VERTEX
8
0
10
13.078146875
20
28.65780625
30
0
0
VERTEX
8
0
10
12.98410625
20
28.709156250000003
30
0
0
VERTEX
8
0
10
12.893971875
20
28.767084375000003
30
0
0
VERTEX
8
0
10
12.808196875
20
28.83129375
30
0
0
VERTEX
8
0
10
12.727221875000001
20
28.901459375
30
0
0
VERTEX
8
0
10
12.651459375
20
28.977221875
30
0
0
VERTEX
8
0
10
12.58129375
20
29.058196875
30
0
0
VERTEX
8
0
10
12.517084375000001
20
29.143971875000002
30
0
0
VERTEX
8
0
10
12.459156250000001
20
29.23410625
30
0
0
VERTEX
8
0
10
12.40780625
20
29.328146875
30
0
0
VERTEX
8
0
10
12.363296875000001
20
29.425609375
30
0
0
VERTEX
8
0
10
12.325853125
20
29.526
30
0
0
VERTEX
8
0
10
12.29566875
20
29.628803125
30
0
0
VERTEX
8
0
10
12.272890625
20
29.733500000000003
30
0
0
VERTEX
8
0
10
12.25764375
20
29.83955625
30
0
0
VERTEX
8
0
10
12.25
20
29.946428125
30
0
0
VERTEX
8
0
10
12.25
20
30.053571875000003
30
0
0
VERTEX
8
0
10
12.25764375
20
30.160443750000002
30
0
0
VERTEX
8
0
10
12.272890625
20
30.2665
30
0
0
VERTEX
8
0
10
12.29566875
20
30.371196875000003
30
0
0
VERTEX
8
0
10
12.325853125
20
30.474
30
0
0
VERTEX
8
0
10
12.363296875000001
20
30.574390625000003
30
0
0
VERTEX
8
0
10
12.40780625
20
30.671853125000002
30
0
0
VERTEX
8
0
10
12.459156250000001
20
30.76589375
30
0
0
VERTEX
8
0
10
12.517084375000001
20
30.856028125
30
0
0
VERTEX
8
0
10
12.58129375
20
30.941803125
30
0
0
VERTEX
8
0
10
12.651459375
20
31.022778125000002
30
0
0
VERTEX
8
0
10
12.727221875000001
20
31.098540625000002
30
0
0
VERTEX
8
0
10
12.808196875
20
31.168706250000003
30
0
0
VERTEX
8
0
10
12.893971875
20
31.232915625
30
0
0
VERTEX
8
0
10
12.98410625
20
31.29084375
30
0
0
VERTEX
8
0
10
13.078146875
20
31.34219375
30
0
0
VERTEX
8
0
10
13.175609375
20
31.386703125
30
0
0
VERTEX
8
0
10
13.276
20
31.424146875
30
0
0
VERTEX
8
0
10
13.378803125000001
20
31.454331250000003
30
0
0
VERTEX
8
0
10
13.483500000000001
20
31.477109375
30
0
0
VERTEX
8
0
10
13.589556250000001
20
31.49235625
30
0
0
VERTEX
8
0
10
13.696428125
20
31.5
30
0
0
VERTEX
8
0
10
13.803571875000001
20
31.5
30
0
0
VERTEX
8
0
10
13.91044375
20
31.49235625
30
0
0
VERTEX
8
0
10
14.0165
20
31.477109375
30
0
0
VERTEX
8
0
10
14.121196875
20
31.454331250000003
30
0
0
VERTEX
8
0
10
14.224
20
31.424146875
30
0
0
VERTEX
8
0
10
14.324390625000001
20
31.386703125
30
0
0
VERTEX
8
0
10
14.421853125
20
31.34219375
30
0
0
VERTEX
8
0
10
14.51589375
20
31.29084375
30
0
0
VERTEX
8
0
10
14.606028125
20
31.232915625
30
0
0
VERTEX
8
0
10
14.691803125
20
31.168706250000003
30
0
0
VERTEX
8
0
10
14.772778125
20
31.098540625000002
30
0
0
VERTEX
8
0
10
14.848540625
20
31.022778125000002
30
0
0
VERTEX
8
0
10
14.918706250000001
20
30.941803125
30
0
0
VERTEX
8
0
10
14.982915625
20
30.856028125
30
0
0
VERTEX
8
0
10
15.04084375
20
30.76589375
30
0
0
VERTEX
8
0
10
15.09219375
20
30.671853125000002
30
0
0
VERTEX
8
0
10
15.136703125
20
30.574390625000003
30
0
0
VERTEX
8
0
10
15.174146875
20
30.474
30
0
0
VERTEX
8
0
10
15.204331250000001
20
30.371196875000003
30
0
0
VERTEX
8
0
10
15.227109375000001
20
30.2665
30
0
0
VERTEX
8
0
10
15.24235625
20
30.160443750000002
30
0
0
VERTEX
8
0
10
15.25
20
30.053571875000003
30
0
0
VERTEX
8
0
10
15.25
20
29.946428125
30
0
0
SEQEND
0
POLYLINE
66
1
8
1_copper
10
0.0
20
0.0
30
0.0
70
1
0
VERTEX
8
0
10
12.811943750000001
20
59.443337500000005
30
0
0
VERTEX
8
0
10
12.885375
20
59.457943750000005
30
0
0
VERTEX
8
0
10
12.957018750000001
20
59.479678125
30
0
0
VERTEX
8
0
10
13.026190625
20
59.508328125000006
30
0
0
VERTEX
8
0
10
13.09221875
20
59.543621875
30
0
0
VERTEX
8
0
10
13.154468750000001
20
59.58521875
30
0
0
VERTEX
8
0
10
13.21234375
20
59.632715625
30
0
0
VERTEX
8
0
10
13.265284375
20
59.68565625
30
0
0
VERTEX
8
0
10
13.31278125
20
59.743531250000004
30
0
0
VERTEX
8
0
10
13.354378125
20
59.80578125
30
0
0
VERTEX
8
0
10
13.389671875000001
20
59.871809375000005
30
0
0
VERTEX
8
0
10
13.418321875
20
59.94098125
30
0
0
VERTEX
8
0
10
13.440056250000001
20
60.012625
30
0
0
VERTEX
8
0
10
13.454662500000001
20
60.086056250000006
30
0
0
VERTEX
8
0
10
13.462000000000002
20
60.160565625000004
30
0
0
VERTEX
8
0
10
13.462000000000002
20
61.759434375000005
30
0
0
VERTEX
8
0
10
13.454662500000001
20
61.83394375
30
0
0
VERTEX
8
0
10
13.440056250000001
20
61.907375
30
0
0
VERTEX
8
0
10
13.418321875
20
61.97901875
30
0
0
VERTEX
8
0
10
13.389671875000001
20
62.048190625000004
30
0
0
VERTEX
8
0
10
13.354378125
20
62.114218750000006
30
0
0
VERTEX
8
0
10
13.31278125
20
62.176468750000005
30
0
0
VERTEX
8
0
10
13.265284375
20
62.23434375
30
0
0
VERTEX
8
0
10
13.21234375
20
62.287284375000006
30
0
0
VERTEX
8
0
10
13.154468750000001
20
62.334781250000006
30
0
0
VERTEX
8
0
10
13.09221875
20
62.376378125
30
0
0
VERTEX
8
0
10
13.026190625
20
62.411671875
30
0
0
VERTEX
8
0
10
12.957018750000001
20
62.440321875
30
0
0
VERTEX
8
0
10
12.885375
20
62.46205625
30
0
0
VERTEX
8
0
10
12.811943750000001
20
62.4766625
30
0
0
VERTEX
8
0
10
12.737434375000001
20
62.484
30
0
0
VERTEX
8
0
10
12.662565625000001
20
62.484
30
0
0
VERTEX
8
0
10
12.588056250000001
20
62.4766625
30
0
0
VERTEX
8
0
10
12.514625
20
62.46205625
30
0
0
VERTEX
8
0
10
12.44298125
20
62.440321875
30
0
0
VERTEX
8
0
10
12.373809375
20
62.411671875
30
0
0
VERTEX
8
0
10
12.307781250000001
20
62.376378125
30
0
0
VERTEX
8
0
10
12.24553125
20
62.334781250000006
30
0
0
VERTEX
8
0
10
12.18765625
20
62.287284375000006
30
0
0
VERTEX
8
0
10
12.134715625
20
62.23434375
30
0
0
VERTEX
8
0
10
12.08721875
20
62.176468750000005
30
0
0
VERTEX
8
0
10
12.045621875
20
62.114218750000006
30
0
0
VERTEX
8
0
10
12.010328125000001
20
62.048190625000004
30
0
0
VERTEX
8
0
10
11.981678125
20
61.97901875
30
0
0
VERTEX
8
0
10
11.95994375
20
61.907375
30
0
0
VERTEX
8
0
10
11.9453375
20
61.83394375
30
0
0
VERTEX
8
0
10
11.938
20
61.759434375000005
30
0
0
VERTEX
8
0
10
11.938
20
60.160565625000004
30
0
0
VERTEX
8
0
10
11.9453375
20
60.086056250000006
30
0
0
VERTEX
8
0
10
11.95994375
20
60.012625
30
0
0
VERTEX
8
0
10
11.981678125
20
59.94098125
30
0
0
VERTEX
8
0
10
12.010328125000001
20
59.871809375000005
30
0
0
VERTEX
8
0
10
12.045621875
20
59.80578125
30
0
0
VERTEX
8
0
10
12.08721875
20
59.743531250000004
30
0
0
VERTEX
8
0
10
12.134715625
20
59.68565625
30
0
0
VERTEX
8
0
10
12.18765625
20
59.632715625
30
0
0
VERTEX
8
0
10
12.24553125
20
59.58521875
30
0
0
VERTEX
8
0
10
12.307781250000001
20
59.543621875
30
0
0
VERTEX
8
0
10
12.373809375
20
59.508328125000006
30
0
0
VERTEX
8
0
10
12.44298125
20
59.479678125
30
0
0
VERTEX
8
0
10
12.514625
20
59.457943750000005
30
0
0
VERTEX
8
0
10
12.588056250000001
20
59.443337500000005
30
0
0
VERTEX
8
0
10
12.662565625000001
20
59.436
30
0
0
VERTEX
8
0
10
12.737434375000001
20
59.436
30
0
0
SEQEND
0
POLYLINE
66
1
8
1_copper
10
0.0
20
0.0
30
0.0
70
1
0
VERTEX
8
0
10
15.35194375
20
59.443337500000005
30
0
0
VERTEX
8
0
10
15.425375
20
59.457943750000005
30
0
0
VERTEX
8
0
10
15.49701875
20
59.479678125
30
0
0
VERTEX
8
0
10
15.566190625
20
59.508328125000006
30
0
0
VERTEX
8
0
10
15.632218750000002
20
59.543621875
30
0
0
VERTEX
8
0
10
15.69446875
20
59.58521875
30
0
0
VERTEX
8
0
10
15.752343750000001
20
59.632715625
30
0
0
VERTEX
8
0
10
15.805284375000001
20
59.68565625
30
0
0
VERTEX
8
0
10
15.852781250000001
20
59.743531250000004
30
0
0
VERTEX
8
0
10
15.894378125000001
20
59.80578125
30
0
0
VERTEX
8
0
10
15.929671875
20
59.871809375000005
30
0
0
VERTEX
8
0
10
15.958321875000001
20
59.94098125
30
0
0
VERTEX
8
0
10
15.98005625
20
60.012625
30
0
0
VERTEX
8
0
10
15.9946625
20
60.086056250000006
30
0
0
VERTEX
8
0
10
16.002000000000002
20
60.160565625000004
30
0
0
VERTEX
8
0
10
16.002000000000002
20
61.759434375000005
30
0
0
VERTEX
8
0
10
15.9946625
20
61.83394375
30
0
0
VERTEX
8
0
10
15.98005625
20
61.907375
30
0
0
VERTEX
8
0
10
15.958321875000001
20
61.97901875
30
0
0
VERTEX
8
0
10
15.929671875
20
62.048190625000004
30
0
0
VERTEX
8
0
10
15.894378125000001
20
62.114218750000006
30
0
0
VERTEX
8
0
10
15.852781250000001
20
62.176468750000005
30
0
0
VERTEX
8
0
10
15.805284375000001
20
62.23434375
30
0
0
VERTEX
8
0
10
15.752343750000001
20
62.287284375000006
30
0
0
VERTEX
8
0
10
15.69446875
20
62.334781250000006
30
0
0
VERTEX
8
0
10
15.632218750000002
20
62.376378125
30
0
0
VERTEX
8
0
10
15.566190625
20
62.411671875
30
0
0
VERTEX
8
0
10
15.49701875
20
62.440321875
30
0
0
VERTEX
8
0
10
15.425375
20
62.46205625
30
0
0
VERTEX
8
0
10
15.35194375
20
62.4766625
30
0
0
VERTEX
8
0
10
15.277434375
20
62.484
30
0
0
VERTEX
8
0
10
15.202565625
20
62.484
30
0
0
VERTEX
8
0
10
15.12805625
20
62.4766625
30
0
0
VERTEX
8
0
10
15.054625000000001
20
62.46205625
30
0
0
VERTEX
8
0
10
14.98298125
20
62.440321875
30
0
0
VERTEX
8
0
10
14.913809375000001
20
62.411671875
30
0
0
VERTEX
8
0
10
14.84778125
20
62.376378125
30
0
0
VERTEX
8
0
10
14.78553125
20
62.334781250000006
30
0
0
VERTEX
8
0
10
14.72765625
20
62.287284375000006
30
0
0
VERTEX
8
0
10
14.674715625000001
20
62.23434375
30
0
0
VERTEX
8
0
10
14.62721875
20
62.176468750000005
30
0
0
VERTEX
8
0
10
14.585621875000001
20
62.114218750000006
30
0
0
VERTEX
8
0
10
14.550328125
20
62.048190625000004
30
0
0
VERTEX
8
0
10
14.521678125000001
20
61.97901875
30
0
0
VERTEX
8
0
10
14.49994375
20
61.907375
30
0
0
VERTEX
8
0
10
14.4853375
20
61.83394375
30
0
0
VERTEX
8
0
10
14.478000000000002
20
61.759434375000005
30
0
0
VERTEX
8
0
10
14.478000000000002
20
60.160565625000004
30
0
0
VERTEX
8
0
10
14.4853375
20
60.086056250000006
30
0
0
VERTEX
8
0
10
14.49994375
20
60.012625
30
0
0
VERTEX
8
0
10
14.521678125000001
20
59.94098125
30
0
0
VERTEX
8
0
10
14.550328125
20
59.871809375000005
30
0
0
VERTEX
8
0
10
14.585621875000001
20
59.80578125
30
0
0
VERTEX
8
0
10
14.62721875
20
59.743531250000004
30
0
0
VERTEX
8
0
10
14.674715625000001
20
59.68565625
30
0
0
VERTEX
8
0
10
14.72765625
20
59.632715625
30
0
0
VERTEX
8
0
10
14.78553125
20
59.58521875
30
0
0
VERTEX
8
0
10
14.84778125
20
59.543621875
30
0
0
VERTEX
8
0
10
14.913809375000001
20
59.508328125000006
30
0
0
VERTEX
8
0
10
14.98298125
20
59.479678125
30
0
0
VERTEX
8
0
10
15.054625000000001
20
59.457943750000005
30
0
0
VERTEX
8
0
10
15.12805625
20
59.443337500000005
30
0
0
VERTEX
8
0
10
15.202565625
20
59.436
30
0
0
VERTEX
8
0
10
15.277434375
20
59.436
30
0
0
SEQEND
0
POLYLINE
66
1
8
1_copper
10
0.0
20
0.0
30
0.0
70
1
0
VERTEX
8
0
10
15.35194375
20
39.123337500000005
30
0
0
VERTEX
8
0
10
15.425375
20
39.137943750000005
30
0
0
VERTEX
8
0
10
15.49701875
20
39.159678125
30
0
0
VERTEX
8
0
10
15.566190625
20
39.188328125000005
30
0
0
VERTEX
8
0
10
15.632218750000002
20
39.223621875
30
0
0
VERTEX
8
0
10
15.69446875
20
39.26521875
30
0
0
VERTEX
8
0
10
15.752343750000001
20
39.312715625
30
0
0
VERTEX
8
0
10
15.805284375000001
20
39.36565625
30
0
0
VERTEX
8
0
10
15.852781250000001
20
39.42353125
30
0
0
VERTEX
8
0
10
15.894378125000001
20
39.48578125
30
0
0
VERTEX
8
0
10
15.929671875
20
39.551809375000005
30
0
0
VERTEX
8
0
10
15.958321875000001
20
39.62098125
30
0
0
VERTEX
8
0
10
15.98005625
20
39.692625
30
0
0
VERTEX
8
0
10
15.9946625
20
39.766056250000005
30
0
0
VERTEX
8
0
10
16.002000000000002
20
39.840565625
30
0
0
VERTEX
8
0
10
16.002000000000002
20
41.439434375000005
30
0
0
VERTEX
8
0
10
15.9946625
20
41.51394375
30
0
0
VERTEX
8
0
10
15.98005625
20
41.587375
30
0
0
VERTEX
8
0
10
15.958321875000001
20
41.65901875
30
0
0
VERTEX
8
0
10
15.929671875
20
41.728190625
30
0
0
VERTEX
8
0
10
15.894378125000001
20
41.79421875
30
0
0
VERTEX
8
0
10
15.852781250000001
20
41.856468750000005
30
0
0
VERTEX
8
0
10
15.805284375000001
20
41.91434375
30
0
0
VERTEX
8
0
10
15.752343750000001
20
41.967284375000006
30
0
0
VERTEX
8
0
10
15.69446875
20
42.01478125
30
0
0
VERTEX
8
0
10
15.632218750000002
20
42.056378125
30
0
0
VERTEX
8
0
10
15.566190625
20
42.091671875
30
0
0
VERTEX
8
0
10
15.49701875
20
42.120321875
30
0
0
VERTEX
8
0
10
15.425375
20
42.14205625
30
0
0
VERTEX
8
0
10
15.35194375
20
42.1566625
30
0
0
VERTEX
8
0
10
15.277434375
20
42.164
30
0
0
VERTEX
8
0
10
15.202565625
20
42.164
30
0
0
VERTEX
8
0
10
15.12805625
20
42.1566625
30
0
0
VERTEX
8
0
10
15.054625000000001
20
42.14205625
30
0
0
VERTEX
8
0
10
14.98298125
20
42.120321875
30
0
0
VERTEX
8
0
10
14.913809375000001
20
42.091671875
30
0
0
VERTEX
8
0
10
14.84778125
20
42.056378125
30
0
0
VERTEX
8
0
10
14.78553125
20
42.01478125
30
0
0
VERTEX
8
0
10
14.72765625
20
41.967284375000006
30
0
0
VERTEX
8
0
10
14.674715625000001
20
41.91434375
30
0
0
VERTEX
8
0
10
14.62721875
20
41.856468750000005
30
0
0
VERTEX
8
0
10
14.585621875000001
20
41.79421875
30
0
0
VERTEX
8
0
10
14.550328125
20
41.728190625
30
0
0
VERTEX
8
0
10
14.521678125000001
20
41.65901875
30
0
0
VERTEX
8
0
10
14.49994375
20
41.587375
30
0
0
VERTEX
8
0
10
14.4853375
20
41.51394375
30
0
0
VERTEX
8
0
10
14.478000000000002
20
41.439434375000005
30
0
0
VERTEX
8
0
10
14.478000000000002
20
39.840565625
30
0
0
VERTEX
8
0
10
14.4853375
20
39.766056250000005
30
0
0
VERTEX
8
0
10
14.49994375
20
39.692625
30
0
0
VERTEX
8
0
10
14.521678125000001
20
39.62098125
30
0
0
VERTEX
8
0
10
14.550328125
20
39.551809375000005
30
0
0
VERTEX
8
0
10
14.585621875000001
20
39.48578125
30
0
0
VERTEX
8
0
10
14.62721875
20
39.42353125
30
0
0
VERTEX
8
0
10
14.674715625000001
20
39.36565625
30
0
0
VERTEX
8
0
10
14.72765625
20
39.312715625
30
0
0
VERTEX
8
0
10
14.78553125
20
39.26521875
30
0
0
VERTEX
8
0
10
14.84778125
20
39.223621875
30
0
0
VERTEX
8
0
10
14.913809375000001
20
39.188328125000005
30
0
0
VERTEX
8
0
10
14.98298125
20
39.159678125
30
0
0
VERTEX
8
0
10
15.054625000000001
20
39.137943750000005
30
0
0
VERTEX
8
0
10
15.12805625
20
39.123337500000005
30
0
0
VERTEX
8
0
10
15.202565625
20
39.116
30
0
0
VERTEX
8
0
10
15.277434375
20
39.116
30
0
0
SEQEND
0
POLYLINE
66
1
8
1_copper
10
0.0
20
0.0
30
0.0
70
1
0
VERTEX
8
0
10
17.89194375
20
39.123337500000005
30
0
0
VERTEX
8
0
10
17.965375
20
39.137943750000005
30
0
0
VERTEX
8
0
10
18.03701875
20
39.159678125
30
0
0
VERTEX
8
0
10
18.106190625
20
39.188328125000005
30
0
0
VERTEX
8
0
10
18.172218750000003
20
39.223621875
30
0
0
VERTEX
8
0
10
18.23446875
20
39.26521875
30
0
0
VERTEX
8
0
10
18.29234375
20
39.312715625
30
0
0
VERTEX
8
0
10
18.345284375000002
20
39.36565625
30
0
0
VERTEX
8
0
10
18.392781250000002
20
39.42353125
30
0
0
VERTEX
8
0
10
18.434378125000002
20
39.48578125
30
0
0
VERTEX
8
0
10
18.469671875
20
39.551809375000005
30
0
0
VERTEX
8
0
10
18.498321875000002
20
39.62098125
30
0
0
VERTEX
8
0
10
18.52005625
20
39.692625
30
0
0
VERTEX
8
0
10
18.5346625
20
39.766056250000005
30
0
0
VERTEX
8
0
10
18.542
20
39.840565625
30
0
0
VERTEX
8
0
10
18.542
20
41.439434375000005
30
0
0
VERTEX
8
0
10
18.5346625
20
41.51394375
30
0
0
VERTEX
8
0
10
18.52005625
20
41.587375
30
0
0
VERTEX
8
0
10
18.498321875000002
20
41.65901875
30
0
0
VERTEX
8
0
10
18.469671875
20
41.728190625
30
0
0
VERTEX
8
0
10
18.434378125000002
20
41.79421875
30
0
0
VERTEX
8
0
10
18.392781250000002
20
41.856468750000005
30
0
0
VERTEX
8
0
10
18.345284375000002
20
41.91434375
30
0
0
VERTEX
8
0
10
18.29234375
20
41.967284375000006
30
0
0
VERTEX
8
0
10
18.23446875
20
42.01478125
30
0
0
VERTEX
8
0
10
18.172218750000003
20
42.056378125
30
0
0
VERTEX
8
0
10
18.106190625
20
42.091671875
30
0
0
VERTEX
8
0
10
18.03701875
20
42.120321875
30
0
0
VERTEX
8
0
10
17.965375
20
42.14205625
30
0
0
VERTEX
8
0
10
17.89194375
20
42.1566625
30
0
0
VERTEX
8
0
10
17.817434375
20
42.164
30
0
0
VERTEX
8
0
10
17.742565625
20
42.164
30
0
0
VERTEX
8
0
10
17.66805625
20
42.1566625
30
0
0
VERTEX
8
0
10
17.594625
20
42.14205625
30
0
0
VERTEX
8
0
10
17.52298125
20
42.120321875
30
0
0
VERTEX
8
0
10
17.453809375000002
20
42.091671875
30
0
0
VERTEX
8
0
10
17.38778125
20
42.056378125
30
0
0
VERTEX
8
0
10
17.32553125
20
42.01478125
30
0
0
VERTEX
8
0
10
17.26765625
20
41.967284375000006
30
0
0
VERTEX
8
0
10
17.214715625
20
41.91434375
30
0
0
VERTEX
8
0
10
17.16721875
20
41.856468750000005
30
0
0
VERTEX
8
0
10
17.125621875
20
41.79421875
30
0
0
VERTEX
8
0
10
17.090328125
20
41.728190625
30
0
0
VERTEX
8
0
10
17.061678125
20
41.65901875
30
0
0
VERTEX
8
0
10
17.03994375
20
41.587375
30
0
0
VERTEX
8
0
10
17.0253375
20
41.51394375
30
0
0
VERTEX
8
0
10
17.018
20
41.439434375000005
30
0
0
VERTEX
8
0
10
17.018
20
39.840565625
30
0
0
VERTEX
8
0
10
17.0253375
20
39.766056250000005
30
0
0
VERTEX
8
0
10
17.03994375
20
39.692625
30
0
0
VERTEX
8
0
10
17.061678125
20
39.62098125
30
0
0
VERTEX
8
0
10
17.090328125
20
39.551809375000005
30
0
0
VERTEX
8
0
10
17.125621875
20
39.48578125
30
0
0
VERTEX
8
0
10
17.16721875
20
39.42353125
30
0
0
VERTEX
8
0
10
17.214715625
20
39.36565625
30
0
0
VERTEX
8
0
10
17.26765625
20
39.312715625
30
0
0
VERTEX
8
0
10
17.32553125
20
39.26521875
30
0
0
VERTEX
8
0
10
17.38778125
20
39.223621875
30
0
0
VERTEX
8
0
10
17.453809375000002
20
39.188328125000005
30
0
0
VERTEX
8
0
10
17.52298125
20
39.159678125
30
0
0
VERTEX
8
0
10
17.594625
20
39.137943750000005
30
0
0
VERTEX
8
0
10
17.66805625
20
39.123337500000005
30
0
0
VERTEX
8
0
10
17.742565625
20
39.116
30
0
0
VERTEX
8
0
10
17.817434375
20
39.116
30
0
0
SEQEND
0
POLYLINE
66
1
8
1_copper
10
0.0
20
0.0
30
0.0
70
1
0
VERTEX
8
0
10
20.431943750000002
20
39.123337500000005
30
0
0
VERTEX
8
0
10
20.505375
20
39.137943750000005
30
0
0
VERTEX
8
0
10
20.57701875
20
39.159678125
30
0
0
VERTEX
8
0
10
20.646190625000003
20
39.188328125000005
30
0
0
VERTEX
8
0
10
20.71221875
20
39.223621875
30
0
0
VERTEX
8
0
10
20.77446875
20
39.26521875
30
0
0
VERTEX
8
0
10
20.83234375
20
39.312715625
30
0
0
VERTEX
8
0
10
20.885284375
20
39.36565625
30
0
0
VERTEX
8
0
10
20.93278125
20
39.42353125
30
0
0
VERTEX
8
0
10
20.974378125
20
39.48578125
30
0
0
VERTEX
8
0
10
21.009671875000002
20
39.551809375000005
30
0
0
VERTEX
8
0
10
21.038321875
20
39.62098125
30
0
0
VERTEX
8
0
10
21.060056250000002
20
39.692625
30
0
0
VERTEX
8
0
10
21.074662500000002
20
39.766056250000005
30
0
0
VERTEX
8
0
10
21.082
20
39.840565625
30
0
0
VERTEX
8
0
10
21.082
20
41.439434375000005
30
0
0
VERTEX
8
0
10
21.074662500000002
20
41.51394375
30
0
0
VERTEX
8
0
10
21.060056250000002
20
41.587375
30
0
0
VERTEX
8
0
10
21.038321875
20
41.65901875
30
0
0
VERTEX
8
0
10
21.009671875000002
20
41.728190625
30
0
0
VERTEX
8
0
10
20.974378125
20
41.79421875
30
0
0
VERTEX
8
0
10
20.93278125
20
41.856468750000005
30
0
0
VERTEX
8
0
10
20.885284375
20
41.91434375
30
0
0
VERTEX
8
0
10
20.83234375
20
41.967284375000006
30
0
0
VERTEX
8
0
10
20.77446875
20
42.01478125
30
0
0
VERTEX
8
0
10
20.71221875
20
42.056378125
30
0
0
VERTEX
8
0
10
20.646190625000003
20
42.091671875
30
0
0
VERTEX
8
0
10
20.57701875
20
42.120321875
30
0
0
VERTEX
8
0
10
20.505375
20
42.14205625
30
0
0
VERTEX
8
0
10
20.431943750000002
20
42.1566625
30
0
0
VERTEX
8
0
10
20.357434375
20
42.164
30
0
0
VERTEX
8
0
10
20.282565625
20
42.164
30
0
0
VERTEX
8
0
10
20.208056250000002
20
42.1566625
30
0
0
VERTEX
8
0
10
20.134625
20
42.14205625
30
0
0
VERTEX
8
0
10
20.06298125
20
42.120321875
30
0
0
VERTEX
8
0
10
19.993809375
20
42.091671875
30
0
0
VERTEX
8
0
10
19.927781250000002
20
42.056378125
30
0
0
VERTEX
8
0
10
19.86553125
20
42.01478125
30
0
0
VERTEX
8
0
10
19.80765625
20
41.967284375000006
30
0
0
VERTEX
8
0
10
19.754715625
20
41.91434375
30
0
0
VERTEX
8
0
10
19.707218750000003
20
41.856468750000005
30
0
0
VERTEX
8
0
10
19.665621875
20
41.79421875
30
0
0
VERTEX
8
0
10
19.630328125000002
20
41.728190625
30
0
0
VERTEX
8
0
10
19.601678125
20
41.65901875
30
0
0
VERTEX
8
0
10
19.57994375
20
41.587375
30
0
0
VERTEX
8
0
10
19.565337500000002
20
41.51394375
30
0
0
VERTEX
8
0
10
19.558
20
41.439434375000005
30
0
0
VERTEX
8
0
10
19.558
20
39.840565625
30
0
0
VERTEX
8
0
10
19.565337500000002
20
39.766056250000005
30
0
0
VERTEX
8
0
10
19.57994375
20
39.692625
30
0
0
VERTEX
8
0
10
19.601678125
20
39.62098125
30
0
0
VERTEX
8
0
10
19.630328125000002
20
39.551809375000005
30
0
0
VERTEX
8
0
10
19.665621875
20
39.48578125
30
0
0
VERTEX
8
0
10
19.707218750000003
20
39.42353125
30
0
0
VERTEX
8
0
10
19.754715625
20
39.36565625
30
0
0
VERTEX
8
0
10
19.80765625
20
39.312715625
30
0
0
VERTEX
8
0
10
19.86553125
20
39.26521875
30
0
0
VERTEX
8
0
10
19.927781250000002
20
39.223621875
30
0
0
VERTEX
8
0
10
19.993809375
20
39.188328125000005
30
0
0
VERTEX
8
0
10
20.06298125
20
39.159678125
30
0
0
VERTEX
8
0
10
20.134625
20
39.137943750000005
30
0
0
VERTEX
8
0
10
20.208056250000002
20
39.123337500000005
30
0
0
VERTEX
8
0
10
20.282565625
20
39.116
30
0
0
VERTEX
8
0
10
20.357434375
20
39.116
30
0
0
SEQEND
0
POLYLINE
66
1
8
1_copper
10
0.0
20
0.0
30
0.0
70
1
0
VERTEX
8
0
10
7.73194375
20
18.8033375
30
0
0
VERTEX
8
0
10
7.805375000000001
20
18.81794375
30
0
0
VERTEX
8
0
10
7.87701875
20
18.839678125000002
30
0
0
VERTEX
8
0
10
7.946190625000001
20
18.868328125
30
0
0
VERTEX
8
0
10
8.01221875
20
18.903621875000002
30
0
0
VERTEX
8
0
10
8.074468750000001
20
18.945218750000002
30
0
0
VERTEX
8
0
10
8.13234375
20
18.992715625000002
30
0
0
VERTEX
8
0
10
8.185284375
20
19.04565625
30
0
0
VERTEX
8
0
10
8.23278125
20
19.10353125
30
0
0
VERTEX
8
0
10
8.274378125
20
19.165781250000002
30
0
0
VERTEX
8
0
10
8.309671875000001
20
19.231809375
30
0
0
VERTEX
8
0
10
8.338321875
20
19.30098125
30
0
0
VERTEX
8
0
10
8.36005625
20
19.372625
30
0
0
VERTEX
8
0
10
8.374662500000001
20
19.44605625
30
0
0
VERTEX
8
0
10
8.382
20
19.520565625
30
0
0
VERTEX
8
0
10
8.382
20
21.119434375
30
0
0
VERTEX
8
0
10
8.374662500000001
20
21.193943750000003
30
0
0
VERTEX
8
0
10
8.36005625
20
21.267375
30
0
0
VERTEX
8
0
10
8.338321875
20
21.33901875
30
0
0
VERTEX
8
0
10
8.309671875000001
20
21.408190625
30
0
0
VERTEX
8
0
10
8.274378125
20
21.474218750000002
30
0
0
VERTEX
8
0
10
8.23278125
20
21.53646875
30
0
0
VERTEX
8
0
10
8.185284375
20
21.59434375
30
0
0
VERTEX
8
0
10
8.13234375
20
21.647284375
30
0
0
VERTEX
8
0
10
8.074468750000001
20
21.694781250000002
30
0
0
VERTEX
8
0
10
8.01221875
20
21.736378125
30
0
0
VERTEX
8
0
10
7.946190625000001
20
21.771671875000003
30
0
0
VERTEX
8
0
10
7.87701875
20
21.800321875
30
0
0
VERTEX
8
0
10
7.805375000000001
20
21.822056250000003
30
0
0
VERTEX
8
0
10
7.73194375
20
21.836662500000003
30
0
0
VERTEX
8
0
10
7.657434375
20
21.844
30
0
0
VERTEX
8
0
10
7.582565625
20
21.844
30
0
0
VERTEX
8
0
10
7.50805625
20
21.836662500000003
30
0
0
VERTEX
8
0
10
7.4346250000000005
20
21.822056250000003
30
0
0
VERTEX
8
0
10
7.362981250000001
20
21.800321875
30
0
0
VERTEX
8
0
10
7.293809375
20
21.771671875000003
30
0
0
VERTEX
8
0
10
7.2277812500000005
20
21.736378125
30
0
0
VERTEX
8
0
10
7.16553125
20
21.694781250000002
30
0
0
VERTEX
8
0
10
7.107656250000001
20
21.647284375
30
0
0
VERTEX
8
0
10
7.054715625
20
21.59434375
30
0
0
VERTEX
8
0
10
7.007218750000001
20
21.53646875
30
0
0
VERTEX
8
0
10
6.965621875
20
21.474218750000002
30
0
0
VERTEX
8
0
10
6.930328125
20
21.408190625
30
0
0
VERTEX
8
0
10
6.901678125
20
21.33901875
30
0
0
VERTEX
8
0
10
6.879943750000001
20
21.267375
30
0
0
VERTEX
8
0
10
6.865337500000001
20
21.193943750000003
30
0
0
VERTEX
8
0
10
6.8580000000000005
20
21.119434375
30
0
0
VERTEX
8
0
10
6.8580000000000005
20
19.520565625
30
0
0
VERTEX
8
0
10
6.865337500000001
20
19.44605625
30
0
0
VERTEX
8
0
10
6.879943750000001
20
19.372625
30
0
0
VERTEX
8
0
10
6.901678125
20
19.30098125
30
0
0
VERTEX
8
0
10
6.930328125
20
19.231809375
30
0
0
VERTEX
8
0
10
6.965621875
20
19.165781250000002
30
0
0
VERTEX
8
0
10
7.007218750000001
20
19.10353125
30
0
0
VERTEX
8
0
10
7.054715625
20
19.04565625
30
0
0
VERTEX
8
0
10
7.107656250000001
20
18.992715625000002
30
0
0
VERTEX
8
0
10
7.16553125
20
18.945218750000002
30
0
0
VERTEX
8
0
10
7.2277812500000005
20
18.903621875000002
30
0
0
VERTEX
8
0
10
7.293809375
20
18.868328125
30
0
0
VERTEX
8
0
10
7.362981250000001
20
18.839678125000002
30
0
0
VERTEX
8
0
10
7.4346250000000005
20
18.81794375
30
0
0
VERTEX
8
0
10
7.50805625
20
18.8033375
30
0
0
VERTEX
8
0
10
7.582565625
20
18.796
30
0
0
VERTEX
8
0
10
7.657434375
20
18.796
30
0
0
SEQEND
0
POLYLINE
66
1
8
1_copper
10
0.0
20
0.0
30
0.0
70
1
0
VERTEX
8
0
10
10.27194375
20
18.8033375
30
0
0
VERTEX
8
0
10
10.345375
20
18.81794375
30
0
0
VERTEX
8
0
10
10.41701875
20
18.839678125000002
30
0
0
VERTEX
8
0
10
10.486190625
20
18.868328125
30
0
0
VERTEX
8
0
10
10.55221875
20
18.903621875000002
30
0
0
VERTEX
8
0
10
10.61446875
20
18.945218750000002
30
0
0
VERTEX
8
0
10
10.672343750000001
20
18.992715625000002
30
0
0
VERTEX
8
0
10
10.725284375000001
20
19.04565625
30
0
0
VERTEX
8
0
10
10.772781250000001
20
19.10353125
30
0
0
VERTEX
8
0
10
10.814378125000001
20
19.165781250000002
30
0
0
VERTEX
8
0
10
10.849671875
20
19.231809375
30
0
0
VERTEX
8
0
10
10.878321875000001
20
19.30098125
30
0
0
VERTEX
8
0
10
10.90005625
20
19.372625
30
0
0
VERTEX
8
0
10
10.9146625
20
19.44605625
30
0
0
VERTEX
8
0
10
10.922
20
19.520565625
30
0
0
VERTEX
8
0
10
10.922
20
21.119434375
30
0
0
VERTEX
8
0
10
10.9146625
20
21.193943750000003
30
0
0
VERTEX
8
0
10
10.90005625
20
21.267375
30
0
0
VERTEX
8
0
10
10.878321875000001
20
21.33901875
30
0
0
VERTEX
8
0
10
10.849671875
20
21.408190625
30
0
0
VERTEX
8
0
10
10.814378125000001
20
21.474218750000002
30
0
0
VERTEX
8
0
10
10.772781250000001
20
21.53646875
30
0
0
VERTEX
8
0
10
10.725284375000001
20
21.59434375
30
0
0
VERTEX
8
0
10
10.672343750000001
20
21.647284375
30
0
0
VERTEX
8
0
10
10.61446875
20
21.694781250000002
30
0
0
VERTEX
8
0
10
10.55221875
20
21.736378125
30
0
0
VERTEX
8
0
10
10.486190625
20
21.771671875000003
30
0
0
VERTEX
8
0
10
10.41701875
20
21.800321875
30
0
0
VERTEX
8
0
10
10.345375
20
21.822056250000003
30
0
0
VERTEX
8
0
10
10.27194375
20
21.836662500000003
30
0
0
VERTEX
8
0
10
10.197434375
20
21.844
30
0
0
VERTEX
8
0
10
10.122565625
20
21.844
30
0
0
VERTEX
8
0
10
10.04805625
20
21.836662500000003
30
0
0
VERTEX
8
0
10
9.974625
20
21.822056250000003
30
0
0
VERTEX
8
0
10
9.90298125
20
21.800321875
30
0
0
VERTEX
8
0
10
9.833809375000001
20
21.771671875000003
30
0
0
VERTEX
8
0
10
9.76778125
20
21.736378125
30
0
0
VERTEX
8
0
10
9.70553125
20
21.694781250000002
30
0
0
VERTEX
8
0
10
9.64765625
20
21.647284375
30
0
0
VERTEX
8
0
10
9.594715625000001
20
21.59434375
30
0
0
VERTEX
8
0
10
9.54721875
20
21.53646875
30
0
0
VERTEX
8
0
10
9.505621875000001
20
21.474218750000002
30
0
0
VERTEX
8
0
10
9.470328125
20
21.408190625
30
0
0
VERTEX
8
0
10
9.441678125000001
20
21.33901875
30
0
0
VERTEX
8
0
10
9.41994375
20
21.267375
30
0
0
VERTEX
8
0
10
9.4053375
20
21.193943750000003
30
0
0
VERTEX
8
0
10
9.398
20
21.119434375
30
0
0
VERTEX
8
0
10
9.398
20
19.520565625
30
0
0
VERTEX
8
0
10
9.4053375
20
19.44605625
30
0
0
VERTEX
8
0
10
9.41994375
20
19.372625
30
0
0
VERTEX
8
0
10
9.441678125000001
20
19.30098125
30
0
0
VERTEX
8
0
10
9.470328125
20
19.231809375
30
0
0
VERTEX
8
0
10
9.505621875000001
20
19.165781250000002
30
0
0
VERTEX
8
0
10
9.54721875
20
19.10353125
30
0
0
VERTEX
8
0
10
9.594715625000001
20
19.04565625
30
0
0
VERTEX
8
0
10
9.64765625
20
18.992715625000002
30
0
0
VERTEX
8
0
10
9.70553125
20
18.945218750000002
30
0
0
VERTEX
8
0
10
9.76778125
20
18.903621875000002
30
0
0
VERTEX
8
0
10
9.833809375000001
20
18.868328125
30
0
0
VERTEX
8
0
10
9.90298125
20
18.839678125000002
30
0
0
VERTEX
8
0
10
9.974625
20
18.81794375
30
0
0
VERTEX
8
0
10
10.04805625
20
18.8033375
30
0
0
VERTEX
8
0
10
10.122565625
20
18.796
30
0
0
VERTEX
8
0
10
10.197434375
20
18.796
30
0
0
SEQEND
0
POLYLINE
66
1
8
1_copper
10
0.0
20
0.0
30
0.0
70
1
0
VERTEX
8
0
10
12.811943750000001
20
18.8033375
30
0
0
VERTEX
8
0
10
12.885375
20
18.81794375
30
0
0
VERTEX
8
0
10
12.957018750000001
20
18.839678125000002
30
0
0
VERTEX
8
0
10
13.026190625
20
18.868328125
30
0
0
VERTEX
8
0
10
13.09221875
20
18.903621875000002
30
0
0
VERTEX
8
0
10
13.154468750000001
20
18.945218750000002
30
0
0
VERTEX
8
0
10
13.21234375
20
18.992715625000002
30
0
0
VERTEX
8
0
10
13.265284375
20
19.04565625
30
0
0
VERTEX
8
0
10
13.31278125
20
19.10353125
30
0
0
VERTEX
8
0
10
13.354378125
20
19.165781250000002
30
0
0
VERTEX
8
0
10
13.389671875000001
20
19.231809375
30
0
0
VERTEX
8
0
10
13.418321875
20
19.30098125
30
0
0
VERTEX
8
0
10
13.440056250000001
20
19.372625
30
0
0
VERTEX
8
0
10
13.454662500000001
20
19.44605625
30
0
0
VERTEX
8
0
10
13.462000000000002
20
19.520565625
30
0
0
VERTEX
8
0
10
13.462000000000002
20
21.119434375
30
0
0
VERTEX
8
0
10
13.454662500000001
20
21.193943750000003
30
0
0
VERTEX
8
0
10
13.440056250000001
20
21.267375
30
0
0
VERTEX
8
0
10
13.418321875
20
21.33901875
30
0
0
VERTEX
8
0
10
13.389671875000001
20
21.408190625
30
0
0
VERTEX
8
0
10
13.354378125
20
21.474218750000002
30
0
0
VERTEX
8
0
10
13.31278125
20
21.53646875
30
0
0
VERTEX
8
0
10
13.265284375
20
21.59434375
30
0
0
VERTEX
8
0
10
13.21234375
20
21.647284375
30
0
0
VERTEX
8
0
10
13.154468750000001
20
21.694781250000002
30
0
0
VERTEX
8
0
10
13.09221875
20
21.736378125
30
0
0
VERTEX
8
0
10
13.026190625
20
21.771671875000003
30
0
0
VERTEX
8
0
10
12.957018750000001
20
21.800321875
30
0
0
VERTEX
8
0
10
12.885375
20
21.822056250000003
30
0
0
VERTEX
8
0
10
12.811943750000001
20
21.836662500000003
30
0
0
VERTEX
8
0
10
12.737434375000001
20
21.844
30
0
0
VERTEX
8
0
10
12.662565625000001
20
21.844
30
0
0
VERTEX
8
0
10
12.588056250000001
20
21.836662500000003
30
0
0
VERTEX
8
0
10
12.514625
20
21.822056250000003
30
0
0
VERTEX
8
0
10
12.44298125
20
21.800321875
30
0
0
VERTEX
8
0
10
12.373809375
20
21.771671875000003
30
0
0
VERTEX
8
0
10
12.307781250000001
20
21.736378125
30
0
0
VERTEX
8
0
10
12.24553125
20
21.694781250000002
30
0
0
VERTEX
8
0
10
12.18765625
20
21.647284375
30
0
0
VERTEX
8
0
10
12.134715625
20
21.59434375
30
0
0
VERTEX
8
0
10
12.08721875
20
21.53646875
30
0
0
VERTEX
8
0
10
12.045621875
20
21.474218750000002
30
0
0
VERTEX
8
0
10
12.010328125000001
20
21.408190625
30
0
0
VERTEX
8
0
10
11.981678125
20
21.33901875
30
0
0
VERTEX
8
0
10
11.95994375
20
21.267375
30
0
0
VERTEX
8
0
10
11.9453375
20
21.193943750000003
30
0
0
VERTEX
8
0
10
11.938
20
21.119434375
30
0
0
VERTEX
8
0
10
11.938
20
19.520565625
30
0
0
VERTEX
8
0
10
11.9453375
20
19.44605625
30
0
0
VERTEX
8
0
10
11.95994375
20
19.372625
30
0
0
VERTEX
8
0
10
11.981678125
20
19.30098125
30
0
0
VERTEX
8
0
10
12.010328125000001
20
19.231809375
30
0
0
VERTEX
8
0
10
12.045621875
20
19.165781250000002
30
0
0
VERTEX
8
0
10
12.08721875
20
19.10353125
30
0
0
VERTEX
8
0
10
12.134715625
20
19.04565625
30
0
0
VERTEX
8
0
10
12.18765625
20
18.992715625000002
30
0
0
VERTEX
8
0
10
12.24553125
20
18.945218750000002
30
0
0
VERTEX
8
0
10
12.307781250000001
20
18.903621875000002
30
0
0
VERTEX
8
0
10
12.373809375
20
18.868328125
30
0
0
VERTEX
8
0
10
12.44298125
20
18.839678125000002
30
0
0
VERTEX
8
0
10
12.514625
20
18.81794375
30
0
0
VERTEX
8
0
10
12.588056250000001
20
18.8033375
30
0
0
VERTEX
8
0
10
12.662565625000001
20
18.796
30
0
0
VERTEX
8
0
10
12.737434375000001
20
18.796
30
0
0
SEQEND
0
POLYLINE
66
1
8
1_copper
10
0.0
20
0.0
30
0.0
70
1
0
VERTEX
8
0
10
15.35194375
20
18.8033375
30
0
0
VERTEX
8
0
10
15.425375
20
18.81794375
30
0
0
VERTEX
8
0
10
15.49701875
20
18.839678125000002
30
0
0
VERTEX
8
0
10
15.566190625
20
18.868328125
30
0
0
VERTEX
8
0
10
15.632218750000002
20
18.903621875000002
30
0
0
VERTEX
8
0
10
15.69446875
20
18.945218750000002
30
0
0
VERTEX
8
0
10
15.752343750000001
20
18.992715625000002
30
0
0
VERTEX
8
0
10
15.805284375000001
20
19.04565625
30
0
0
VERTEX
8
0
10
15.852781250000001
20
19.10353125
30
0
0
VERTEX
8
0
10
15.894378125000001
20
19.165781250000002
30
0
0
VERTEX
8
0
10
15.929671875
20
19.231809375
30
0
0
VERTEX
8
0
10
15.958321875000001
20
19.30098125
30
0
0
VERTEX
8
0
10
15.98005625
20
19.372625
30
0
0
VERTEX
8
0
10
15.9946625
20
19.44605625
30
0
0
VERTEX
8
0
10
16.002000000000002
20
19.520565625
30
0
0
VERTEX
8
0
10
16.002000000000002
20
21.119434375
30
0
0
VERTEX
8
0
10
15.9946625
20
21.193943750000003
30
0
0
VERTEX
8
0
10
15.98005625
20
21.267375
30
0
0
VERTEX
8
0
10
15.958321875000001
20
21.33901875
30
0
0
VERTEX
8
0
10
15.929671875
20
21.408190625
30
0
0
VERTEX
8
0
10
15.894378125000001
20
21.474218750000002
30
0
0
VERTEX
8
0
10
15.852781250000001
20
21.53646875
30
0
0
VERTEX
8
0
10
15.805284375000001
20
21.59434375
30
0
0
VERTEX
8
0
10
15.752343750000001
20
21.647284375
30
0
0
VERTEX
8
0
10
15.69446875
20
21.694781250000002
30
0
0
VERTEX
8
0
10
15.632218750000002
20
21.736378125
30
0
0
VERTEX
8
0
10
15.566190625
20
21.771671875000003
30
0
0
VERTEX
8
0
10
15.49701875
20
21.800321875
30
0
0
VERTEX
8
0
10
15.425375
20
21.822056250000003
30
0
0
VERTEX
8
0
10
15.35194375
20
21.836662500000003
30
0
0
VERTEX
8
0
10
15.277434375
20
21.844
30
0
0
VERTEX
8
0
10
15.202565625
20
21.844
30
0
0
VERTEX
8
0
10
15.12805625
20
21.836662500000003
30
0
0
VERTEX
8
0
10
15.054625000000001
20
21.822056250000003
30
0
0
VERTEX
8
0
10
14.98298125
20
21.800321875
30
0
0
VERTEX
8
0
10
14.913809375000001
20
21.771671875000003
30
0
0
VERTEX
8
0
10
14.84778125
20
21.736378125
30
0
0
VERTEX
8
0
10
14.78553125
20
21.694781250000002
30
0
0
VERTEX
8
0
10
14.72765625
20
21.647284375
30
0
0
VERTEX
8
0
10
14.674715625000001
20
21.59434375
30
0
0
VERTEX
8
0
10
14.62721875
20
21.53646875
30
0
0
VERTEX
8
0
10
14.585621875000001
20
21.474218750000002
30
0
0
VERTEX
8
0
10
14.550328125
20
21.408190625
30
0
0
VERTEX
8
0
10
14.521678125000001
20
21.33901875
30
0
0
VERTEX
8
0
10
14.49994375
20
21.267375
30
0
0
VERTEX
8
0
10
14.4853375
20
21.193943750000003
30
0
0
VERTEX
8
0
10
14.478000000000002
20
21.119434375
30
0
0
VERTEX
8
0
10
14.478000000000002
20
19.520565625
30
0
0
VERTEX
8
0
10
14.4853375
20
19.44605625
30
0
0
VERTEX
8
0
10
14.49994375
20
19.372625
30
0
0
VERTEX
8
0
10
14.521678125000001
20
19.30098125
30
0
0
VERTEX
8
0
10
14.550328125
20
19.231809375
30
0
0
VERTEX
8
0
10
14.585621875000001
20
19.165781250000002
30
0
0
VERTEX
8
0
10
14.62721875
20
19.10353125
30
0
0
VERTEX
8
0
10
14.674715625000001
20
19.04565625
30
0
0
VERTEX
8
0
10
14.72765625
20
18.992715625000002
30
0
0
VERTEX
8
0
10
14.78553125
20
18.945218750000002
30
0
0
VERTEX
8
0
10
14.84778125
20
18.903621875000002
30
0
0
VERTEX
8
0
10
14.913809375000001
20
18.868328125
30
0
0
VERTEX
8
0
10
14.98298125
20
18.839678125000002
30
0
0
VERTEX
8
0
10
15.054625000000001
20
18.81794375
30
0
0
VERTEX
8
0
10
15.12805625
20
18.8033375
30
0
0
VERTEX
8
0
10
15.202565625
20
18.796
30
0
0
VERTEX
8
0
10
15.277434375
20
18.796
30
0
0
SEQEND
0
POLYLINE
66
1
8
16_copper
10
0.0
20
0.0
30
0.0
70
1
0
VERTEX
8
0
10
12.811943750000001
20
59.443337500000005
30
0
0
VERTEX
8
0
10
12.885375
20
59.457943750000005
30
0
0
VERTEX
8
0
10
12.957018750000001
20
59.479678125
30
0
0
VERTEX
8
0
10
13.026190625
20
59.508328125000006
30
0
0
VERTEX
8
0
10
13.09221875
20
59.543621875
30
0
0
VERTEX
8
0
10
13.154468750000001
20
59.58521875
30
0
0
VERTEX
8
0
10
13.21234375
20
59.632715625
30
0
0
VERTEX
8
0
10
13.265284375
20
59.68565625
30
0
0
VERTEX
8
0
10
13.31278125
20
59.743531250000004
30
0
0
VERTEX
8
0
10
13.354378125
20
59.80578125
30
0
0
VERTEX
8
0
10
13.389671875000001
20
59.871809375000005
30
0
0
VERTEX
8
0
10
13.418321875
20
59.94098125
30
0
0
VERTEX
8
0
10
13.440056250000001
20
60.012625
30
0
0
VERTEX
8
0
10
13.454662500000001
20
60.086056250000006
30
0
0
VERTEX
8
0
10
13.462000000000002
20
60.160565625000004
30
0
0
VERTEX
8
0
10
13.462000000000002
20
61.759434375000005
30
0
0
VERTEX
8
0
10
13.454662500000001
20
61.83394375
30
0
0
VERTEX
8
0
10
13.440056250000001
20
61.907375
30
0
0
VERTEX
8
0
10
13.418321875
20
61.97901875
30
0
0
VERTEX
8
0
10
13.389671875000001
20
62.048190625000004
30
0
0
VERTEX
8
0
10
13.354378125
20
62.114218750000006
30
0
0
VERTEX
8
0
10
13.31278125
20
62.176468750000005
30
0
0
VERTEX
8
0
10
13.265284375
20
62.23434375
30
0
0
VERTEX
8
0
10
13.21234375
20
62.287284375000006
30
0
0
VERTEX
8
0
10
13.154468750000001
20
62.334781250000006
30
0
0
VERTEX
8
0
10
13.09221875
20
62.376378125
30
0
0
VERTEX
8
0
10
13.026190625
20
62.411671875
30
0
0
VERTEX
8
0
10
12.957018750000001
20
62.440321875
30
0
0
VERTEX
8
0
10
12.885375
20
62.46205625
30
0
0
VERTEX
8
0
10
12.811943750000001
20
62.4766625
30
0
0
VERTEX
8
0
10
12.737434375000001
20
62.484
30
0
0
VERTEX
8
0
10
12.662565625000001
20
62.484
30
0
0
VERTEX
8
0
10
12.588056250000001
20
62.4766625
30
0
0
VERTEX
8
0
10
12.514625
20
62.46205625
30
0
0
VERTEX
8
0
10
12.44298125
20
62.440321875
30
0
0
VERTEX
8
0
10
12.373809375
20
62.411671875
30
0
0
VERTEX
8
0
10
12.307781250000001
20
62.376378125
30
0
0
VERTEX
8
0
10
12.24553125
20
62.334781250000006
30
0
0
VERTEX
8
0
10
12.18765625
20
62.287284375000006
30
0
0
VERTEX
8
0
10
12.134715625
20
62.23434375
30
0
0
VERTEX
8
0
10
12.08721875
20
62.176468750000005
30
0
0
VERTEX
8
0
10
12.045621875
20
62.114218750000006
30
0
0
VERTEX
8
0
10
12.010328125000001
20
62.048190625000004
30
0
0
VERTEX
8
0
10
11.981678125
20
61.97901875
30
0
0
VERTEX
8
0
10
11.95994375
20
61.907375
30
0
0
VERTEX
8
0
10
11.9453375
20
61.83394375
30
0
0
VERTEX
8
0
10
11.938
20
61.759434375000005
30
0
0
VERTEX
8
0
10
11.938
20
60.160565625000004
30
0
0
VERTEX
8
0
10
11.9453375
20
60.086056250000006
30
0
0
VERTEX
8
0
10
11.95994375
20
60.012625
30
0
0
VERTEX
8
0
10
11.981678125
20
59.94098125
30
0
0
VERTEX
8
0
10
12.010328125000001
20
59.871809375000005
30
0
0
VERTEX
8
0
10
12.045621875
20
59.80578125
30
0
0
VERTEX
8
0
10
12.08721875
20
59.743531250000004
30
0
0
VERTEX
8
0
10
12.134715625
20
59.68565625
30
0
0
VERTEX
8
0
10
12.18765625
20
59.632715625
30
0
0
VERTEX
8
0
10
12.24553125
20
59.58521875
30
0
0
VERTEX
8
0
10
12.307781250000001
20
59.543621875
30
0
0
VERTEX
8
0
10
12.373809375
20
59.508328125000006
30
0
0
VERTEX
8
0
10
12.44298125
20
59.479678125
30
0
0
VERTEX
8
0
10
12.514625
20
59.457943750000005
30
0
0
VERTEX
8
0
10
12.588056250000001
20
59.443337500000005
30
0
0
VERTEX
8
0
10
12.662565625000001
20
59.436
30
0
0
VERTEX
8
0
10
12.737434375000001
20
59.436
30
0
0
SEQEND
0
POLYLINE
66
1
8
16_copper
10
0.0
20
0.0
30
0.0
70
1
0
VERTEX
8
0
10
15.35194375
20
59.443337500000005
30
0
0
VERTEX
8
0
10
15.425375
20
59.457943750000005
30
0
0
VERTEX
8
0
10
15.49701875
20
59.479678125
30
0
0
VERTEX
8
0
10
15.566190625
20
59.508328125000006
30
0
0
VERTEX
8
0
10
15.632218750000002
20
59.543621875
30
0
0
VERTEX
8
0
10
15.69446875
20
59.58521875
30
0
0
VERTEX
8
0
10
15.752343750000001
20
59.632715625
30
0
0
VERTEX
8
0
10
15.805284375000001
20
59.68565625
30
0
0
VERTEX
8
0
10
15.852781250000001
20
59.743531250000004
30
0
0
VERTEX
8
0
10
15.894378125000001
20
59.80578125
30
0
0
VERTEX
8
0
10
15.929671875
20
59.871809375000005
30
0
0
VERTEX
8
0
10
15.958321875000001
20
59.94098125
30
0
0
VERTEX
8
0
10
15.98005625
20
60.012625
30
0
0
VERTEX
8
0
10
15.9946625
20
60.086056250000006
30
0
0
VERTEX
8
0
10
16.002000000000002
20
60.160565625000004
30
0
0
VERTEX
8
0
10
16.002000000000002
20
61.759434375000005
30
0
0
VERTEX
8
0
10
15.9946625
20
61.83394375
30
0
0
VERTEX
8
0
10
15.98005625
20
61.907375
30
0
0
VERTEX
8
0
10
15.958321875000001
20
61.97901875
30
0
0
VERTEX
8
0
10
15.929671875
20
62.048190625000004
30
0
0
VERTEX
8
0
10
15.894378125000001
20
62.114218750000006
30
0
0
VERTEX
8
0
10
15.852781250000001
20
62.176468750000005
30
0
0
VERTEX
8
0
10
15.805284375000001
20
62.23434375
30
0
0
VERTEX
8
0
10
15.752343750000001
20
62.287284375000006
30
0
0
VERTEX
8
0
10
15.69446875
20
62.334781250000006
30
0
0
VERTEX
8
0
10
15.632218750000002
20
62.376378125
30
0
0
VERTEX
8
0
10
15.566190625
20
62.411671875
30
0
0
VERTEX
8
0
10
15.49701875
20
62.440321875
30
0
0
VERTEX
8
0
10
15.425375
20
62.46205625
30
0
0
VERTEX
8
0
10
15.35194375
20
62.4766625
30
0
0
VERTEX
8
0
10
15.277434375
20
62.484
30
0
0
VERTEX
8
0
10
15.202565625
20
62.484
30
0
0
VERTEX
8
0
10
15.12805625
20
62.4766625
30
0
0
VERTEX
8
0
10
15.054625000000001
20
62.46205625
30
0
0
VERTEX
8
0
10
14.98298125
20
62.440321875
30
0
0
VERTEX
8
0
10
14.913809375000001
20
62.411671875
30
0
0
VERTEX
8
0
10
14.84778125
20
62.376378125
30
0
0
VERTEX
8
0
10
14.78553125
20
62.334781250000006
30
0
0
VERTEX
8
0
10
14.72765625
20
62.287284375000006
30
0
0
VERTEX
8
0
10
14.674715625000001
20
62.23434375
30
0
0
VERTEX
8
0
10
14.62721875
20
62.176468750000005
30
0
0
VERTEX
8
0
10
14.585621875000001
20
62.114218750000006
30
0
0
VERTEX
8
0
10
14.550328125
20
62.048190625000004
30
0
0
VERTEX
8
0
10
14.521678125000001
20
61.97901875
30
0
0
VERTEX
8
0
10
14.49994375
20
61.907375
30
0
0
VERTEX
8
0
10
14.4853375
20
61.83394375
30
0
0
VERTEX
8
0
10
14.478000000000002
20
61.759434375000005
30
0
0
VERTEX
8
0
10
14.478000000000002
20
60.160565625000004
30
0
0
VERTEX
8
0
10
14.4853375
20
60.086056250000006
30
0
0
VERTEX
8
0
10
14.49994375
20
60.012625
30
0
0
VERTEX
8
0
10
14.521678125000001
20
59.94098125
30
0
0
VERTEX
8
0
10
14.550328125
20
59.871809375000005
30
0
0
VERTEX
8
0
10
14.585621875000001
20
59.80578125
30
0
0
VERTEX
8
0
10
14.62721875
20
59.743531250000004
30
0
0
VERTEX
8
0
10
14.674715625000001
20
59.68565625
30
0
0
VERTEX
8
0
10
14.72765625
20
59.632715625
30
0
0
VERTEX
8
0
10
14.78553125
20
59.58521875
30
0
0
VERTEX
8
0
10
14.84778125
20
59.543621875
30
0
0
VERTEX
8
0
10
14.913809375000001
20
59.508328125000006
30
0
0
VERTEX
8
0
10
14.98298125
20
59.479678125
30
0
0
VERTEX
8
0
10
15.054625000000001
20
59.457943750000005
30
0
0
VERTEX
8
0
10
15.12805625
20
59.443337500000005
30
0
0
VERTEX
8
0
10
15.202565625
20
59.436
30
0
0
VERTEX
8
0
10
15.277434375
20
59.436
30
0
0
SEQEND
0
POLYLINE
66
1
8
16_copper
10
0.0
20
0.0
30
0.0
70
1
0
VERTEX
8
0
10
15.35194375
20
39.123337500000005
30
0
0
VERTEX
8
0
10
15.425375
20
39.137943750000005
30
0
0
VERTEX
8
0
10
15.49701875
20
39.159678125
30
0
0
VERTEX
8
0
10
15.566190625
20
39.188328125000005
30
0
0
VERTEX
8
0
10
15.632218750000002
20
39.223621875
30
0
0
VERTEX
8
0
10
15.69446875
20
39.26521875
30
0
0
VERTEX
8
0
10
15.752343750000001
20
39.312715625
30
0
0
VERTEX
8
0
10
15.805284375000001
20
39.36565625
30
0
0
VERTEX
8
0
10
15.852781250000001
20
39.42353125
30
0
0
VERTEX
8
0
10
15.894378125000001
20
39.48578125
30
0
0
VERTEX
8
0
10
15.929671875
20
39.551809375000005
30
0
0
VERTEX
8
0
10
15.958321875000001
20
39.62098125
30
0
0
VERTEX
8
0
10
15.98005625
20
39.692625
30
0
0
VERTEX
8
0
10
15.9946625
20
39.766056250000005
30
0
0
VERTEX
8
0
10
16.002000000000002
20
39.840565625
30
0
0
VERTEX
8
0
10
16.002000000000002
20
41.439434375000005
30
0
0
VERTEX
8
0
10
15.9946625
20
41.51394375
30
0
0
VERTEX
8
0
10
15.98005625
20
41.587375
30
0
0
VERTEX
8
0
10
15.958321875000001
20
41.65901875
30
0
0
VERTEX
8
0
10
15.929671875
20
41.728190625
30
0
0
VERTEX
8
0
10
15.894378125000001
20
41.79421875
30
0
0
VERTEX
8
0
10
15.852781250000001
20
41.856468750000005
30
0
0
VERTEX
8
0
10
15.805284375000001
20
41.91434375
30
0
0
VERTEX
8
0
10
15.752343750000001
20
41.967284375000006
30
0
0
VERTEX
8
0
10
15.69446875
20
42.01478125
30
0
0
VERTEX
8
0
10
15.632218750000002
20
42.056378125
30
0
0
VERTEX
8
0
10
15.566190625
20
42.091671875
30
0
0
VERTEX
8
0
10
15.49701875
20
42.120321875
30
0
0
VERTEX
8
0
10
15.425375
20
42.14205625
30
0
0
VERTEX
8
0
10
15.35194375
20
42.1566625
30
0
0
VERTEX
8
0
10
15.277434375
20
42.164
30
0
0
VERTEX
8
0
10
15.202565625
20
42.164
30
0
0
VERTEX
8
0
10
15.12805625
20
42.1566625
30
0
0
VERTEX
8
0
10
15.054625000000001
20
42.14205625
30
0
0
VERTEX
8
0
10
14.98298125
20
42.120321875
30
0
0
VERTEX
8
0
10
14.913809375000001
20
42.091671875
30
0
0
VERTEX
8
0
10
14.84778125
20
42.056378125
30
0
0
VERTEX
8
0
10
14.78553125
20
42.01478125
30
0
0
VERTEX
8
0
10
14.72765625
20
41.967284375000006
30
0
0
VERTEX
8
0
10
14.674715625000001
20
41.91434375
30
0
0
VERTEX
8
0
10
14.62721875
20
41.856468750000005
30
0
0
VERTEX
8
0
10
14.585621875000001
20
41.79421875
30
0
0
VERTEX
8
0
10
14.550328125
20
41.728190625
30
0
0
VERTEX
8
0
10
14.521678125000001
20
41.65901875
30
0
0
VERTEX
8
0
10
14.49994375
20
41.587375
30
0
0
VERTEX
8
0
10
14.4853375
20
41.51394375
30
0
0
VERTEX
8
0
10
14.478000000000002
20
41.439434375000005
30
0
0
VERTEX
8
0
10
14.478000000000002
20
39.840565625
30
0
0
VERTEX
8
0
10
14.4853375
20
39.766056250000005
30
0
0
VERTEX
8
0
10
14.49994375
20
39.692625
30
0
0
VERTEX
8
0
10
14.521678125000001
20
39.62098125
30
0
0
VERTEX
8
0
10
14.550328125
20
39.551809375000005
30
0
0
VERTEX
8
0
10
14.585621875000001
20
39.48578125
30
0
0
VERTEX
8
0
10
14.62721875
20
39.42353125
30
0
0
VERTEX
8
0
10
14.674715625000001
20
39.36565625
30
0
0
VERTEX
8
0
10
14.72765625
20
39.312715625
30
0
0
VERTEX
8
0
10
14.78553125
20
39.26521875
30
0
0
VERTEX
8
0
10
14.84778125
20
39.223621875
30
0
0
VERTEX
8
0
10
14.913809375000001
20
39.188328125000005
30
0
0
VERTEX
8
0
10
14.98298125
20
39.159678125
30
0
0
VERTEX
8
0
10
15.054625000000001
20
39.137943750000005
30
0
0
VERTEX
8
0
10
15.12805625
20
39.123337500000005
30
0
0
VERTEX
8
0
10
15.202565625
20
39.116
30
0
0
VERTEX
8
0
10
15.277434375
20
39.116
30
0
0
SEQEND
0
POLYLINE
66
1
8
16_copper
10
0.0
20
0.0
30
0.0
70
1
0
VERTEX
8
0
10
17.89194375
20
39.123337500000005
30
0
0
VERTEX
8
0
10
17.965375
20
39.137943750000005
30
0
0
VERTEX
8
0
10
18.03701875
20
39.159678125
30
0
0
VERTEX
8
0
10
18.106190625
20
39.188328125000005
30
0
0
VERTEX
8
0
10
18.172218750000003
20
39.223621875
30
0
0
VERTEX
8
0
10
18.23446875
20
39.26521875
30
0
0
VERTEX
8
0
10
18.29234375
20
39.312715625
30
0
0
VERTEX
8
0
10
18.345284375000002
20
39.36565625
30
0
0
VERTEX
8
0
10
18.392781250000002
20
39.42353125
30
0
0
VERTEX
8
0
10
18.434378125000002
20
39.48578125
30
0
0
VERTEX
8
0
10
18.469671875
20
39.551809375000005
30
0
0
VERTEX
8
0
10
18.498321875000002
20
39.62098125
30
0
0
VERTEX
8
0
10
18.52005625
20
39.692625
30
0
0
VERTEX
8
0
10
18.5346625
20
39.766056250000005
30
0
0
VERTEX
8
0
10
18.542
20
39.840565625
30
0
0
VERTEX
8
0
10
18.542
20
41.439434375000005
30
0
0
VERTEX
8
0
10
18.5346625
20
41.51394375
30
0
0
VERTEX
8
0
10
18.52005625
20
41.587375
30
0
0
VERTEX
8
0
10
18.498321875000002
20
41.65901875
30
0
0
VERTEX
8
0
10
18.469671875
20
41.728190625
30
0
0
VERTEX
8
0
10
18.434378125000002
20
41.79421875
30
0
0
VERTEX
8
0
10
18.392781250000002
20
41.856468750000005
30
0
0
VERTEX
8
0
10
18.345284375000002
20
41.91434375
30
0
0
VERTEX
8
0
10
18.29234375
20
41.967284375000006
30
0
0
VERTEX
8
0
10
18.23446875
20
42.01478125
30
0
0
VERTEX
8
0
10
18.172218750000003
20
42.056378125
30
0
0
VERTEX
8
0
10
18.106190625
20
42.091671875
30
0
0
VERTEX
8
0
10
18.03701875
20
42.120321875
30
0
0
VERTEX
8
0
10
17.965375
20
42.14205625
30
0
0
VERTEX
8
0
10
17.89194375
20
42.1566625
30
0
0
VERTEX
8
0
10
17.817434375
20
42.164
30
0
0
VERTEX
8
0
10
17.742565625
20
42.164
30
0
0
VERTEX
8
0
10
17.66805625
20
42.1566625
30
0
0
VERTEX
8
0
10
17.594625
20
42.14205625
30
0
0
VERTEX
8
0
10
17.52298125
20
42.120321875
30
0
0
VERTEX
8
0
10
17.453809375000002
20
42.091671875
30
0
0
VERTEX
8
0
10
17.38778125
20
42.056378125
30
0
0
VERTEX
8
0
10
17.32553125
20
42.01478125
30
0
0
VERTEX
8
0
10
17.26765625
20
41.967284375000006
30
0
0
VERTEX
8
0
10
17.214715625
20
41.91434375
30
0
0
VERTEX
8
0
10
17.16721875
20
41.856468750000005
30
0
0
VERTEX
8
0
10
17.125621875
20
41.79421875
30
0
0
VERTEX
8
0
10
17.090328125
20
41.728190625
30
0
0
VERTEX
8
0
10
17.061678125
20
41.65901875
30
0
0
VERTEX
8
0
10
17.03994375
20
41.587375
30
0
0
VERTEX
8
0
10
17.0253375
20
41.51394375
30
0
0
VERTEX
8
0
10
17.018
20
41.439434375000005
30
0
0
VERTEX
8
0
10
17.018
20
39.840565625
30
0
0
VERTEX
8
0
10
17.0253375
20
39.766056250000005
30
0
0
VERTEX
8
0
10
17.03994375
20
39.692625
30
0
0
VERTEX
8
0
10
17.061678125
20
39.62098125
30
0
0
VERTEX
8
0
10
17.090328125
20
39.551809375000005
30
0
0
VERTEX
8
0
10
17.125621875
20
39.48578125
30
0
0
VERTEX
8
0
10
17.16721875
20
39.42353125
30
0
0
VERTEX
8
0
10
17.214715625
20
39.36565625
30
0
0
VERTEX
8
0
10
17.26765625
20
39.312715625
30
0
0
VERTEX
8
0
10
17.32553125
20
39.26521875
30
0
0
VERTEX
8
0
10
17.38778125
20
39.223621875
30
0
0
VERTEX
8
0
10
17.453809375000002
20
39.188328125000005
30
0
0
VERTEX
8
0
10
17.52298125
20
39.159678125
30
0
0
VERTEX
8
0
10
17.594625
20
39.137943750000005
30
0
0
VERTEX
8
0
10
17.66805625
20
39.123337500000005
30
0
0
VERTEX
8
0
10
17.742565625
20
39.116
30
0
0
VERTEX
8
0
10
17.817434375
20
39.116
30
0
0
SEQEND
0
POLYLINE
66
1
8
16_copper
10
0.0
20
0.0
30
0.0
70
1
0
VERTEX
8
0
10
20.431943750000002
20
39.123337500000005
30
0
0
VERTEX
8
0
10
20.505375
20
39.137943750000005
30
0
0
VERTEX
8
0
10
20.57701875
20
39.159678125
30
0
0
VERTEX
8
0
10
20.646190625000003
20
39.188328125000005
30
0
0
VERTEX
8
0
10
20.71221875
20
39.223621875
30
0
0
VERTEX
8
0
10
20.77446875
20
39.26521875
30
0
0
VERTEX
8
0
10
20.83234375
20
39.312715625
30
0
0
VERTEX
8
0
10
20.885284375
20
39.36565625
30
0
0
VERTEX
8
0
10
20.93278125
20
39.42353125
30
0
0
VERTEX
8
0
10
20.974378125
20
39.48578125
30
0
0
VERTEX
8
0
10
21.009671875000002
20
39.551809375000005
30
0
0
VERTEX
8
0
10
21.038321875
20
39.62098125
30
0
0
VERTEX
8
0
10
21.060056250000002
20
39.692625
30
0
0
VERTEX
8
0
10
21.074662500000002
20
39.766056250000005
30
0
0
VERTEX
8
0
10
21.082
20
39.840565625
30
0
0
VERTEX
8
0
10
21.082
20
41.439434375000005
30
0
0
VERTEX
8
0
10
21.074662500000002
20
41.51394375
30
0
0
VERTEX
8
0
10
21.060056250000002
20
41.587375
30
0
0
VERTEX
8
0
10
21.038321875
20
41.65901875
30
0
0
VERTEX
8
0
10
21.009671875000002
20
41.728190625
30
0
0
VERTEX
8
0
10
20.974378125
20
41.79421875
30
0
0
VERTEX
8
0
10
20.93278125
20
41.856468750000005
30
0
0
VERTEX
8
0
10
20.885284375
20
41.91434375
30
0
0
VERTEX
8
0
10
20.83234375
20
41.967284375000006
30
0
0
VERTEX
8
0
10
20.77446875
20
42.01478125
30
0
0
VERTEX
8
0
10
20.71221875
20
42.056378125
30
0
0
VERTEX
8
0
10
20.646190625000003
20
42.091671875
30
0
0
VERTEX
8
0
10
20.57701875
20
42.120321875
30
0
0
VERTEX
8
0
10
20.505375
20
42.14205625
30
0
0
VERTEX
8
0
10
20.431943750000002
20
42.1566625
30
0
0
VERTEX
8
0
10
20.357434375
20
42.164
30
0
0
VERTEX
8
0
10
20.282565625
20
42.164
30
0
0
VERTEX
8
0
10
20.208056250000002
20
42.1566625
30
0
0
VERTEX
8
0
10
20.134625
20
42.14205625
30
0
0
VERTEX
8
0
10
20.06298125
20
42.120321875
30
0
0
VERTEX
8
0
10
19.993809375
20
42.091671875
30
0
0
VERTEX
8
0
10
19.927781250000002
20
42.056378125
30
0
0
VERTEX
8
0
10
19.86553125
20
42.01478125
30
0
0
VERTEX
8
0
10
19.80765625
20
41.967284375000006
30
0
0
VERTEX
8
0
10
19.754715625
20
41.91434375
30
0
0
VERTEX
8
0
10
19.707218750000003
20
41.856468750000005
30
0
0
VERTEX
8
0
10
19.665621875
20
41.79421875
30
0
0
VERTEX
8
0
10
19.630328125000002
20
41.728190625
30
0
0
VERTEX
8
0
10
19.601678125
20
41.65901875
30
0
0
VERTEX
8
0
10
19.57994375
20
41.587375
30
0
0
VERTEX
8
0
10
19.565337500000002
20
41.51394375
30
0
0
VERTEX
8
0
10
19.558
20
41.439434375000005
30
0
0
VERTEX
8
0
10
19.558
20
39.840565625
30
0
0
VERTEX
8
0
10
19.565337500000002
20
39.766056250000005
30
0
0
VERTEX
8
0
10
19.57994375
20
39.692625
30
0
0
VERTEX
8
0
10
19.601678125
20
39.62098125
30
0
0
VERTEX
8
0
10
19.630328125000002
20
39.551809375000005
30
0
0
VERTEX
8
0
10
19.665621875
20
39.48578125
30
0
0
VERTEX
8
0
10
19.707218750000003
20
39.42353125
30
0
0
VERTEX
8
0
10
19.754715625
20
39.36565625
30
0
0
VERTEX
8
0
10
19.80765625
20
39.312715625
30
0
0
VERTEX
8
0
10
19.86553125
20
39.26521875
30
0
0
VERTEX
8
0
10
19.927781250000002
20
39.223621875
30
0
0
VERTEX
8
0
10
19.993809375
20
39.188328125000005
30
0
0
VERTEX
8
0
10
20.06298125
20
39.159678125
30
0
0
VERTEX
8
0
10
20.134625
20
39.137943750000005
30
0
0
VERTEX
8
0
10
20.208056250000002
20
39.123337500000005
30
0
0
VERTEX
8
0
10
20.282565625
20
39.116
30
0
0
VERTEX
8
0
10
20.357434375
20
39.116
30
0
0
SEQEND
0
POLYLINE
66
1
8
16_copper
10
0.0
20
0.0
30
0.0
70
1
0
VERTEX
8
0
10
7.73194375
20
18.8033375
30
0
0
VERTEX
8
0
10
7.805375000000001
20
18.81794375
30
0
0
VERTEX
8
0
10
7.87701875
20
18.839678125000002
30
0
0
VERTEX
8
0
10
7.946190625000001
20
18.868328125
30
0
0
VERTEX
8
0
10
8.01221875
20
18.903621875000002
30
0
0
VERTEX
8
0
10
8.074468750000001
20
18.945218750000002
30
0
0
VERTEX
8
0
10
8.13234375
20
18.992715625000002
30
0
0
VERTEX
8
0
10
8.185284375
20
19.04565625
30
0
0
VERTEX
8
0
10
8.23278125
20
19.10353125
30
0
0
VERTEX
8
0
10
8.274378125
20
19.165781250000002
30
0
0
VERTEX
8
0
10
8.309671875000001
20
19.231809375
30
0
0
VERTEX
8
0
10
8.338321875
20
19.30098125
30
0
0
VERTEX
8
0
10
8.36005625
20
19.372625
30
0
0
VERTEX
8
0
10
8.374662500000001
20
19.44605625
30
0
0
VERTEX
8
0
10
8.382
20
19.520565625
30
0
0
VERTEX
8
0
10
8.382
20
21.119434375
30
0
0
VERTEX
8
0
10
8.374662500000001
20
21.193943750000003
30
0
0
VERTEX
8
0
10
8.36005625
20
21.267375
30
0
0
VERTEX
8
0
10
8.338321875
20
21.33901875
30
0
0
VERTEX
8
0
10
8.309671875000001
20
21.408190625
30
0
0
VERTEX
8
0
10
8.274378125
20
21.474218750000002
30
0
0
VERTEX
8
0
10
8.23278125
20
21.53646875
30
0
0
VERTEX
8
0
10
8.185284375
20
21.59434375
30
0
0
VERTEX
8
0
10
8.13234375
20
21.647284375
30
0
0
VERTEX
8
0
10
8.074468750000001
20
21.694781250000002
30
0
0
VERTEX
8
0
10
8.01221875
20
21.736378125
30
0
0
VERTEX
8
0
10
7.946190625000001
20
21.771671875000003
30
0
0
VERTEX
8
0
10
7.87701875
20
21.800321875
30
0
0
VERTEX
8
0
10
7.805375000000001
20
21.822056250000003
30
0
0
VERTEX
8
0
10
7.73194375
20
21.836662500000003
30
0
0
VERTEX
8
0
10
7.657434375
20
21.844
30
0
0
VERTEX
8
0
10
7.582565625
20
21.844
30
0
0
VERTEX
8
0
10
7.50805625
20
21.836662500000003
30
0
0
VERTEX
8
0
10
7.4346250000000005
20
21.822056250000003
30
0
0
VERTEX
8
0
10
7.362981250000001
20
21.800321875
30
0
0
VERTEX
8
0
10
7.293809375
20
21.771671875000003
30
0
0
VERTEX
8
0
10
7.2277812500000005
20
21.736378125
30
0
0
VERTEX
8
0
10
7.16553125
20
21.694781250000002
30
0
0
VERTEX
8
0
10
7.107656250000001
20
21.647284375
30
0
0
VERTEX
8
0
10
7.054715625
20
21.59434375
30
0
0
VERTEX
8
0
10
7.007218750000001
20
21.53646875
30
0
0
VERTEX
8
0
10
6.965621875
20
21.474218750000002
30
0
0
VERTEX
8
0
10
6.930328125
20
21.408190625
30
0
0
VERTEX
8
0
10
6.901678125
20
21.33901875
30
0
0
VERTEX
8
0
10
6.879943750000001
20
21.267375
30
0
0
VERTEX
8
0
10
6.865337500000001
20
21.193943750000003
30
0
0
VERTEX
8
0
10
6.8580000000000005
20
21.119434375
30
0
0
VERTEX
8
0
10
6.8580000000000005
20
19.520565625
30
0
0
VERTEX
8
0
10
6.865337500000001
20
19.44605625
30
0
0
VERTEX
8
0
10
6.879943750000001
20
19.372625
30
0
0
VERTEX
8
0
10
6.901678125
20
19.30098125
30
0
0
VERTEX
8
0
10
6.930328125
20
19.231809375
30
0
0
VERTEX
8
0
10
6.965621875
20
19.165781250000002
30
0
0
VERTEX
8
0
10
7.007218750000001
20
19.10353125
30
0
0
VERTEX
8
0
10
7.054715625
20
19.04565625
30
0
0
VERTEX
8
0
10
7.107656250000001
20
18.992715625000002
30
0
0
VERTEX
8
0
10
7.16553125
20
18.945218750000002
30
0
0
VERTEX
8
0
10
7.2277812500000005
20
18.903621875000002
30
0
0
VERTEX
8
0
10
7.293809375
20
18.868328125
30
0
0
VERTEX
8
0
10
7.362981250000001
20
18.839678125000002
30
0
0
VERTEX
8
0
10
7.4346250000000005
20
18.81794375
30
0
0
VERTEX
8
0
10
7.50805625
20
18.8033375
30
0
0
VERTEX
8
0
10
7.582565625
20
18.796
30
0
0
VERTEX
8
0
10
7.657434375
20
18.796
30
0
0
SEQEND
0
POLYLINE
66
1
8
16_copper
10
0.0
20
0.0
30
0.0
70
1
0
VERTEX
8
0
10
10.27194375
20
18.8033375
30
0
0
VERTEX
8
0
10
10.345375
20
18.81794375
30
0
0
VERTEX
8
0
10
10.41701875
20
18.839678125000002
30
0
0
VERTEX
8
0
10
10.486190625
20
18.868328125
30
0
0
VERTEX
8
0
10
10.55221875
20
18.903621875000002
30
0
0
VERTEX
8
0
10
10.61446875
20
18.945218750000002
30
0
0
VERTEX
8
0
10
10.672343750000001
20
18.992715625000002
30
0
0
VERTEX
8
0
10
10.725284375000001
20
19.04565625
30
0
0
VERTEX
8
0
10
10.772781250000001
20
19.10353125
30
0
0
VERTEX
8
0
10
10.814378125000001
20
19.165781250000002
30
0
0
VERTEX
8
0
10
10.849671875
20
19.231809375
30
0
0
VERTEX
8
0
10
10.878321875000001
20
19.30098125
30
0
0
VERTEX
8
0
10
10.90005625
20
19.372625
30
0
0
VERTEX
8
0
10
10.9146625
20
19.44605625
30
0
0
VERTEX
8
0
10
10.922
20
19.520565625
30
0
0
VERTEX
8
0
10
10.922
20
21.119434375
30
0
0
VERTEX
8
0
10
10.9146625
20
21.193943750000003
30
0
0
VERTEX
8
0
10
10.90005625
20
21.267375
30
0
0
VERTEX
8
0
10
10.878321875000001
20
21.33901875
30
0
0
VERTEX
8
0
10
10.849671875
20
21.408190625
30
0
0
VERTEX
8
0
10
10.814378125000001
20
21.474218750000002
30
0
0
VERTEX
8
0
10
10.772781250000001
20
21.53646875
30
0
0
VERTEX
8
0
10
10.725284375000001
20
21.59434375
30
0
0
VERTEX
8
0
10
10.672343750000001
20
21.647284375
30
0
0
VERTEX
8
0
10
10.61446875
20
21.694781250000002
30
0
0
VERTEX
8
0
10
10.55221875
20
21.736378125
30
0
0
VERTEX
8
0
10
10.486190625
20
21.771671875000003
30
0
0
VERTEX
8
0
10
10.41701875
20
21.800321875
30
0
0
VERTEX
8
0
10
10.345375
20
21.822056250000003
30
0
0
VERTEX
8
0
10
10.27194375
20
21.836662500000003
30
0
0
VERTEX
8
0
10
10.197434375
20
21.844
30
0
0
VERTEX
8
0
10
10.122565625
20
21.844
30
0
0
VERTEX
8
0
10
10.04805625
20
21.836662500000003
30
0
0
VERTEX
8
0
10
9.974625
20
21.822056250000003
30
0
0
VERTEX
8
0
10
9.90298125
20
21.800321875
30
0
0
VERTEX
8
0
10
9.833809375000001
20
21.771671875000003
30
0
0
VERTEX
8
0
10
9.76778125
20
21.736378125
30
0
0
VERTEX
8
0
10
9.70553125
20
21.694781250000002
30
0
0
VERTEX
8
0
10
9.64765625
20
21.647284375
30
0
0
VERTEX
8
0
10
9.594715625000001
20
21.59434375
30
0
0
VERTEX
8
0
10
9.54721875
20
21.53646875
30
0
0
VERTEX
8
0
10
9.505621875000001
20
21.474218750000002
30
0
0
VERTEX
8
0
10
9.470328125
20
21.408190625
30
0
0
VERTEX
8
0
10
9.441678125000001
20
21.33901875
30
0
0
VERTEX
8
0
10
9.41994375
20
21.267375
30
0
0
VERTEX
8
0
10
9.4053375
20
21.193943750000003
30
0
0
VERTEX
8
0
10
9.398
20
21.119434375
30
0
0
VERTEX
8
0
10
9.398
20
19.520565625
30
0
0
VERTEX
8
0
10
9.4053375
20
19.44605625
30
0
0
VERTEX
8
0
10
9.41994375
20
19.372625
30
0
0
VERTEX
8
0
10
9.441678125000001
20
19.30098125
30
0
0
VERTEX
8
0
10
9.470328125
20
19.231809375
30
0
0
VERTEX
8
0
10
9.505621875000001
20
19.165781250000002
30
0
0
VERTEX
8
0
10
9.54721875
20
19.10353125
30
0
0
VERTEX
8
0
10
9.594715625000001
20
19.04565625
30
0
0
VERTEX
8
0
10
9.64765625
20
18.992715625000002
30
0
0
VERTEX
8
0
10
9.70553125
20
18.945218750000002
30
0
0
VERTEX
8
0
10
9.76778125
20
18.903621875000002
30
0
0
VERTEX
8
0
10
9.833809375000001
20
18.868328125
30
0
0
VERTEX
8
0
10
9.90298125
20
18.839678125000002
30
0
0
VERTEX
8
0
10
9.974625
20
18.81794375
30
0
0
VERTEX
8
0
10
10.04805625
20
18.8033375
30
0
0
VERTEX
8
0
10
10.122565625
20
18.796
30
0
0
VERTEX
8
0
10
10.197434375
20
18.796
30
0
0
SEQEND
0
POLYLINE
66
1
8
16_copper
10
0.0
20
0.0
30
0.0
70
1
0
VERTEX
8
0
10
12.811943750000001
20
18.8033375
30
0
0
VERTEX
8
0
10
12.885375
20
18.81794375
30
0
0
VERTEX
8
0
10
12.957018750000001
20
18.839678125000002
30
0
0
VERTEX
8
0
10
13.026190625
20
18.868328125
30
0
0
VERTEX
8
0
10
13.09221875
20
18.903621875000002
30
0
0
VERTEX
8
0
10
13.154468750000001
20
18.945218750000002
30
0
0
VERTEX
8
0
10
13.21234375
20
18.992715625000002
30
0
0
VERTEX
8
0
10
13.265284375
20
19.04565625
30
0
0
VERTEX
8
0
10
13.31278125
20
19.10353125
30
0
0
VERTEX
8
0
10
13.354378125
20
19.165781250000002
30
0
0
VERTEX
8
0
10
13.389671875000001
20
19.231809375
30
0
0
VERTEX
8
0
10
13.418321875
20
19.30098125
30
0
0
VERTEX
8
0
10
13.440056250000001
20
19.372625
30
0
0
VERTEX
8
0
10
13.454662500000001
20
19.44605625
30
0
0
VERTEX
8
0
10
13.462000000000002
20
19.520565625
30
0
0
VERTEX
8
0
10
13.462000000000002
20
21.119434375
30
0
0
VERTEX
8
0
10
13.454662500000001
20
21.193943750000003
30
0
0
VERTEX
8
0
10
13.440056250000001
20
21.267375
30
0
0
VERTEX
8
0
10
13.418321875
20
21.33901875
30
0
0
VERTEX
8
0
10
13.389671875000001
20
21.408190625
30
0
0
VERTEX
8
0
10
13.354378125
20
21.474218750000002
30
0
0
VERTEX
8
0
10
13.31278125
20
21.53646875
30
0
0
VERTEX
8
0
10
13.265284375
20
21.59434375
30
0
0
VERTEX
8
0
10
13.21234375
20
21.647284375
30
0
0
VERTEX
8
0
10
13.154468750000001
20
21.694781250000002
30
0
0
VERTEX
8
0
10
13.09221875
20
21.736378125
30
0
0
VERTEX
8
0
10
13.026190625
20
21.771671875000003
30
0
0
VERTEX
8
0
10
12.957018750000001
20
21.800321875
30
0
0
VERTEX
8
0
10
12.885375
20
21.822056250000003
30
0
0
VERTEX
8
0
10
12.811943750000001
20
21.836662500000003
30
0
0
VERTEX
8
0
10
12.737434375000001
20
21.844
30
0
0
VERTEX
8
0
10
12.662565625000001
20
21.844
30
0
0
VERTEX
8
0
10
12.588056250000001
20
21.836662500000003
30
0
0
VERTEX
8
0
10
12.514625
20
21.822056250000003
30
0
0
VERTEX
8
0
10
12.44298125
20
21.800321875
30
0
0
VERTEX
8
0
10
12.373809375
20
21.771671875000003
30
0
0
VERTEX
8
0
10
12.307781250000001
20
21.736378125
30
0
0
VERTEX
8
0
10
12.24553125
20
21.694781250000002
30
0
0
VERTEX
8
0
10
12.18765625
20
21.647284375
30
0
0
VERTEX
8
0
10
12.134715625
20
21.59434375
30
0
0
VERTEX
8
0
10
12.08721875
20
21.53646875
30
0
0
VERTEX
8
0
10
12.045621875
20
21.474218750000002
30
0
0
VERTEX
8
0
10
12.010328125000001
20
21.408190625
30
0
0
VERTEX
8
0
10
11.981678125
20
21.33901875
30
0
0
VERTEX
8
0
10
11.95994375
20
21.267375
30
0
0
VERTEX
8
0
10
11.9453375
20
21.193943750000003
30
0
0
VERTEX
8
0
10
11.938
20
21.119434375
30
0
0
VERTEX
8
0
10
11.938
20
19.520565625
30
0
0
VERTEX
8
0
10
11.9453375
20
19.44605625
30
0
0
VERTEX
8
0
10
11.95994375
20
19.372625
30
0
0
VERTEX
8
0
10
11.981678125
20
19.30098125
30
0
0
VERTEX
8
0
10
12.010328125000001
20
19.231809375
30
0
0
VERTEX
8
0
10
12.045621875
20
19.165781250000002
30
0
0
VERTEX
8
0
10
12.08721875
20
19.10353125
30
0
0
VERTEX
8
0
10
12.134715625
20
19.04565625
30
0
0
VERTEX
8
0
10
12.18765625
20
18.992715625000002
30
0
0
VERTEX
8
0
10
12.24553125
20
18.945218750000002
30
0
0
VERTEX
8
0
10
12.307781250000001
20
18.903621875000002
30
0
0
VERTEX
8
0
10
12.373809375
20
18.868328125
30
0
0
VERTEX
8
0
10
12.44298125
20
18.839678125000002
30
0
0
VERTEX
8
0
10
12.514625
20
18.81794375
30
0
0
VERTEX
8
0
10
12.588056250000001
20
18.8033375
30
0
0
VERTEX
8
0
10
12.662565625000001
20
18.796
30
0
0
VERTEX
8
0
10
12.737434375000001
20
18.796
30
0
0
SEQEND
0
POLYLINE
66
1
8
16_copper
10
0.0
20
0.0
30
0.0
70
1
0
VERTEX
8
0
10
15.35194375
20
18.8033375
30
0
0
VERTEX
8
0
10
15.425375
20
18.81794375
30
0
0
VERTEX
8
0
10
15.49701875
20
18.839678125000002
30
0
0
VERTEX
8
0
10
15.566190625
20
18.868328125
30
0
0
VERTEX
8
0
10
15.632218750000002
20
18.903621875000002
30
0
0
VERTEX
8
0
10
15.69446875
20
18.945218750000002
30
0
0
VERTEX
8
0
10
15.752343750000001
20
18.992715625000002
30
0
0
VERTEX
8
0
10
15.805284375000001
20
19.04565625
30
0
0
VERTEX
8
0
10
15.852781250000001
20
19.10353125
30
0
0
VERTEX
8
0
10
15.894378125000001
20
19.165781250000002
30
0
0
VERTEX
8
0
10
15.929671875
20
19.231809375
30
0
0
VERTEX
8
0
10
15.958321875000001
20
19.30098125
30
0
0
VERTEX
8
0
10
15.98005625
20
19.372625
30
0
0
VERTEX
8
0
10
15.9946625
20
19.44605625
30
0
0
VERTEX
8
0
10
16.002000000000002
20
19.520565625
30
0
0
VERTEX
8
0
10
16.002000000000002
20
21.119434375
30
0
0
VERTEX
8
0
10
15.9946625
20
21.193943750000003
30
0
0
VERTEX
8
0
10
15.98005625
20
21.267375
30
0
0
VERTEX
8
0
10
15.958321875000001
20
21.33901875
30
0
0
VERTEX
8
0
10
15.929671875
20
21.408190625
30
0
0
VERTEX
8
0
10
15.894378125000001
20
21.474218750000002
30
0
0
VERTEX
8
0
10
15.852781250000001
20
21.53646875
30
0
0
VERTEX
8
0
10
15.805284375000001
20
21.59434375
30
0
0
VERTEX
8
0
10
15.752343750000001
20
21.647284375
30
0
0
VERTEX
8
0
10
15.69446875
20
21.694781250000002
30
0
0
VERTEX
8
0
10
15.632218750000002
20
21.736378125
30
0
0
VERTEX
8
0
10
15.566190625
20
21.771671875000003
30
0
0
VERTEX
8
0
10
15.49701875
20
21.800321875
30
0
0
VERTEX
8
0
10
15.425375
20
21.822056250000003
30
0
0
VERTEX
8
0
10
15.35194375
20
21.836662500000003
30
0
0
VERTEX
8
0
10
15.277434375
20
21.844
30
0
0
VERTEX
8
0
10
15.202565625
20
21.844
30
0
0
VERTEX
8
0
10
15.12805625
20
21.836662500000003
30
0
0
VERTEX
8
0
10
15.054625000000001
20
21.822056250000003
30
0
0
VERTEX
8
0
10
14.98298125
20
21.800321875
30
0
0
VERTEX
8
0
10
14.913809375000001
20
21.771671875000003
30
0
0
VERTEX
8
0
10
14.84778125
20
21.736378125
30
0
0
VERTEX
8
0
10
14.78553125
20
21.694781250000002
30
0
0
VERTEX
8
0
10
14.72765625
20
21.647284375
30
0
0
VERTEX
8
0
10
14.674715625000001
20
21.59434375
30
0
0
VERTEX
8
0
10
14.62721875
20
21.53646875
30
0
0
VERTEX
8
0
10
14.585621875000001
20
21.474218750000002
30
0
0
VERTEX
8
0
10
14.550328125
20
21.408190625
30
0
0
VERTEX
8
0
10
14.521678125000001
20
21.33901875
30
0
0
VERTEX
8
0
10
14.49994375
20
21.267375
30
0
0
VERTEX
8
0
10
14.4853375
20
21.193943750000003
30
0
0
VERTEX
8
0
10
14.478000000000002
20
21.119434375
30
0
0
VERTEX
8
0
10
14.478000000000002
20
19.520565625
30
0
0
VERTEX
8
0
10
14.4853375
20
19.44605625
30
0
0
VERTEX
8
0
10
14.49994375
20
19.372625
30
0
0
VERTEX
8
0
10
14.521678125000001
20
19.30098125
30
0
0
VERTEX
8
0
10
14.550328125
20
19.231809375
30
0
0
VERTEX
8
0
10
14.585621875000001
20
19.165781250000002
30
0
0
VERTEX
8
0
10
14.62721875
20
19.10353125
30
0
0
VERTEX
8
0
10
14.674715625000001
20
19.04565625
30
0
0
VERTEX
8
0
10
14.72765625
20
18.992715625000002
30
0
0
VERTEX
8
0
10
14.78553125
20
18.945218750000002
30
0
0
VERTEX
8
0
10
14.84778125
20
18.903621875000002
30
0
0
VERTEX
8
0
10
14.913809375000001
20
18.868328125
30
0
0
VERTEX
8
0
10
14.98298125
20
18.839678125000002
30
0
0
VERTEX
8
0
10
15.054625000000001
20
18.81794375
30
0
0
VERTEX
8
0
10
15.12805625
20
18.8033375
30
0
0
VERTEX
8
0
10
15.202565625
20
18.796
30
0
0
VERTEX
8
0
10
15.277434375
20
18.796
30
0
0
SEQEND
0
POLYLINE
66
1
8
1_copper
10
0.0
20
0.0
30
0.0
70
1
0
VERTEX
8
0
10
25.69729375
20
45.791375
30
0
0
VERTEX
8
0
10
25.68246875
20
45.837003125
30
0
0
VERTEX
8
0
10
25.6606875
20
45.87975
30
0
0
VERTEX
8
0
10
25.6324875
20
45.9185625
30
0
0
VERTEX
8
0
10
24.434800000000003
20
47.11625
30
0
0
VERTEX
8
0
10
24.434800000000003
20
48.260000000000005
30
0
0
VERTEX
8
0
10
24.65605
20
48.260000000000005
30
0
0
VERTEX
8
0
10
25.400000000000002
20
49.00395
30
0
0
VERTEX
8
0
10
25.400000000000002
20
50.05605
30
0
0
VERTEX
8
0
10
24.65605
20
50.800000000000004
30
0
0
VERTEX
8
0
10
23.60395
20
50.800000000000004
30
0
0
VERTEX
8
0
10
22.86
20
50.05605
30
0
0
VERTEX
8
0
10
22.86
20
49.00395
30
0
0
VERTEX
8
0
10
23.60395
20
48.260000000000005
30
0
0
VERTEX
8
0
10
23.825200000000002
20
48.260000000000005
30
0
0
VERTEX
8
0
10
23.825200000000002
20
46.966012500000005
30
0
0
VERTEX
8
0
10
23.83270625
20
46.918625000000006
30
0
0
VERTEX
8
0
10
23.84753125
20
46.872996875000005
30
0
0
VERTEX
8
0
10
23.8693125
20
46.83025
30
0
0
VERTEX
8
0
10
23.8975125
20
46.7914375
30
0
0
VERTEX
8
0
10
25.095200000000002
20
45.59375
30
0
0
VERTEX
8
0
10
25.095200000000002
20
42.10053125
30
0
0
VERTEX
8
0
10
25.073809375
20
42.091671875
30
0
0
VERTEX
8
0
10
25.00778125
20
42.056378125
30
0
0
VERTEX
8
0
10
24.945531250000002
20
42.01478125
30
0
0
VERTEX
8
0
10
24.887656250000003
20
41.967284375000006
30
0
0
VERTEX
8
0
10
24.834715625
20
41.91434375
30
0
0
VERTEX
8
0
10
24.78721875
20
41.856468750000005
30
0
0
VERTEX
8
0
10
24.745621875
20
41.79421875
30
0
0
VERTEX
8
0
10
24.710328125
20
41.728190625
30
0
0
VERTEX
8
0
10
24.681678125
20
41.65901875
30
0
0
VERTEX
8
0
10
24.65994375
20
41.587375
30
0
0
VERTEX
8
0
10
24.6453375
20
41.51394375
30
0
0
VERTEX
8
0
10
24.638
20
41.439434375000005
30
0
0
VERTEX
8
0
10
24.638
20
39.840565625
30
0
0
VERTEX
8
0
10
24.6453375
20
39.766056250000005
30
0
0
VERTEX
8
0
10
24.65994375
20
39.692625
30
0
0
VERTEX
8
0
10
24.681678125
20
39.62098125
30
0
0
VERTEX
8
0
10
24.710328125
20
39.551809375000005
30
0
0
VERTEX
8
0
10
24.745621875
20
39.48578125
30
0
0
VERTEX
8
0
10
24.78721875
20
39.42353125
30
0
0
VERTEX
8
0
10
24.834715625
20
39.36565625
30
0
0
VERTEX
8
0
10
24.887656250000003
20
39.312715625
30
0
0
VERTEX
8
0
10
24.945531250000002
20
39.26521875
30
0
0
VERTEX
8
0
10
25.00778125
20
39.223621875
30
0
0
VERTEX
8
0
10
25.073809375
20
39.188328125000005
30
0
0
VERTEX
8
0
10
25.095200000000002
20
39.179468750000005
30
0
0
VERTEX
8
0
10
25.095200000000002
20
21.780531250000003
30
0
0
VERTEX
8
0
10
25.073809375
20
21.771671875000003
30
0
0
VERTEX
8
0
10
25.00778125
20
21.736378125
30
0
0
VERTEX
8
0
10
24.945531250000002
20
21.694781250000002
30
0
0
VERTEX
8
0
10
24.887656250000003
20
21.647284375
30
0
0
VERTEX
8
0
10
24.834715625
20
21.59434375
30
0
0
VERTEX
8
0
10
24.78721875
20
21.53646875
30
0
0
VERTEX
8
0
10
24.745621875
20
21.474218750000002
30
0
0
VERTEX
8
0
10
24.710328125
20
21.408190625
30
0
0
VERTEX
8
0
10
24.681678125
20
21.33901875
30
0
0
VERTEX
8
0
10
24.65994375
20
21.267375
30
0
0
VERTEX
8
0
10
24.6453375
20
21.193943750000003
30
0
0
VERTEX
8
0
10
24.638
20
21.119434375
30
0
0
VERTEX
8
0
10
24.638
20
19.520565625
30
0
0
VERTEX
8
0
10
24.6453375
20
19.44605625
30
0
0
VERTEX
8
0
10
24.65994375
20
19.372625
30
0
0
VERTEX
8
0
10
24.681678125
20
19.30098125
30
0
0
VERTEX
8
0
10
24.710328125
20
19.231809375
30
0
0
VERTEX
8
0
10
24.745621875
20
19.165781250000002
30
0
0
VERTEX
8
0
10
24.78721875
20
19.10353125
30
0
0
VERTEX
8
0
10
24.834715625
20
19.04565625
30
0
0
VERTEX
8
0
10
24.887656250000003
20
18.992715625000002
30
0
0
VERTEX
8
0
10
24.945531250000002
20
18.945218750000002
30
0
0
VERTEX
8
0
10
25.00778125
20
18.903621875000002
30
0
0
VERTEX
8
0
10
25.073809375
20
18.868328125
30
0
0
VERTEX
8
0
10
25.095200000000002
20
18.85946875
30
0
0
VERTEX
8
0
10
25.095200000000002
20
3.556
30
0
0
VERTEX
8
0
10
24.87395
20
3.556
30
0
0
VERTEX
8
0
10
24.130000000000003
20
2.81205
30
0
0
VERTEX
8
0
10
24.130000000000003
20
1.7599500000000001
30
0
0
VERTEX
8
0
10
24.87395
20
1.016
30
0
0
VERTEX
8
0
10
25.92605
20
1.016
30
0
0
VERTEX
8
0
10
26.67
20
1.7599500000000001
30
0
0
VERTEX
8
0
10
26.67
20
2.81205
30
0
0
VERTEX
8
0
10
25.92605
20
3.556
30
0
0
VERTEX
8
0
10
25.704800000000002
20
3.556
30
0
0
VERTEX
8
0
10
25.704800000000002
20
18.85946875
30
0
0
VERTEX
8
0
10
25.726190625
20
18.868328125
30
0
0
VERTEX
8
0
10
25.79221875
20
18.903621875000002
30
0
0
VERTEX
8
0
10
25.854468750000002
20
18.945218750000002
30
0
0
VERTEX
8
0
10
25.91234375
20
18.992715625000002
30
0
0
VERTEX
8
0
10
25.965284375
20
19.04565625
30
0
0
VERTEX
8
0
10
26.01278125
20
19.10353125
30
0
0
VERTEX
8
0
10
26.054378125
20
19.165781250000002
30
0
0
VERTEX
8
0
10
26.089671875
20
19.231809375
30
0
0
VERTEX
8
0
10
26.118321875000003
20
19.30098125
30
0
0
VERTEX
8
0
10
26.14005625
20
19.372625
30
0
0
VERTEX
8
0
10
26.1546625
20
19.44605625
30
0
0
VERTEX
8
0
10
26.162000000000003
20
19.520565625
30
0
0
VERTEX
8
0
10
26.162000000000003
20
21.119434375
30
0
0
VERTEX
8
0
10
26.1546625
20
21.193943750000003
30
0
0
VERTEX
8
0
10
26.14005625
20
21.267375
30
0
0
VERTEX
8
0
10
26.118321875000003
20
21.33901875
30
0
0
VERTEX
8
0
10
26.089671875
20
21.408190625
30
0
0
VERTEX
8
0
10
26.054378125
20
21.474218750000002
30
0
0
VERTEX
8
0
10
26.01278125
20
21.53646875
30
0
0
VERTEX
8
0
10
25.965284375
20
21.59434375
30
0
0
VERTEX
8
0
10
25.91234375
20
21.647284375
30
0
0
VERTEX
8
0
10
25.854468750000002
20
21.694781250000002
30
0
0
VERTEX
8
0
10
25.79221875
20
21.736378125
30
0
0
VERTEX
8
0
10
25.726190625
20
21.771671875000003
30
0
0
VERTEX
8
0
10
25.704800000000002
20
21.780531250000003
30
0
0
VERTEX
8
0
10
25.704800000000002
20
39.179468750000005
30
0
0
VERTEX
8
0
10
25.726190625
20
39.188328125000005
30
0
0
VERTEX
8
0
10
25.79221875
20
39.223621875
30
0
0
VERTEX
8
0
10
25.854468750000002
20
39.26521875
30
0
0
VERTEX
8
0
10
25.91234375
20
39.312715625
30
0
0
VERTEX
8
0
10
25.965284375
20
39.36565625
30
0
0
VERTEX
8
0
10
26.01278125
20
39.42353125
30
0
0
VERTEX
8
0
10
26.054378125
20
39.48578125
30
0
0
VERTEX
8
0
10
26.089671875
20
39.551809375000005
30
0
0
VERTEX
8
0
10
26.118321875000003
20
39.62098125
30
0
0
VERTEX
8
0
10
26.14005625
20
39.692625
30
0
0
VERTEX
8
0
10
26.1546625
20
39.766056250000005
30
0
0
VERTEX
8
0
10
26.162000000000003
20
39.840565625
30
0
0
VERTEX
8
0
10
26.162000000000003
20
41.439434375000005
30
0
0
VERTEX
8
0
10
26.1546625
20
41.51394375
30
0
0
VERTEX
8
0
10
26.14005625
20
41.587375
30
0
0
VERTEX
8
0
10
26.118321875000003
20
41.65901875
30
0
0
VERTEX
8
0
10
26.089671875
20
41.728190625
30
0
0
VERTEX
8
0
10
26.054378125
20
41.79421875
30
0
0
VERTEX
8
0
10
26.01278125
20
41.856468750000005
30
0
0
VERTEX
8
0
10
25.965284375
20
41.91434375
30
0
0
VERTEX
8
0
10
25.91234375
20
41.967284375000006
30
0
0
VERTEX
8
0
10
25.854468750000002
20
42.01478125
30
0
0
VERTEX
8
0
10
25.79221875
20
42.056378125
30
0
0
VERTEX
8
0
10
25.726190625
20
42.091671875
30
0
0
VERTEX
8
0
10
25.704800000000002
20
42.10053125
30
0
0
VERTEX
8
0
10
25.704800000000002
20
45.7439875
30
0
0
SEQEND
0
POLYLINE
66
1
8
16_copper
10
0.0
20
0.0
30
0.0
70
1
0
VERTEX
8
0
10
25.400000000000002
20
49.00395
30
0
0
VERTEX
8
0
10
25.400000000000002
20
50.05605
30
0
0
VERTEX
8
0
10
24.65605
20
50.800000000000004
30
0
0
VERTEX
8
0
10
23.60395
20
50.800000000000004
30
0
0
VERTEX
8
0
10
22.86
20
50.05605
30
0
0
VERTEX
8
0
10
22.86
20
49.00395
30
0
0
VERTEX
8
0
10
23.60395
20
48.260000000000005
30
0
0
VERTEX
8
0
10
24.65605
20
48.260000000000005
30
0
0
SEQEND
0
POLYLINE
66
1
8
16_copper
10
0.0
20
0.0
30
0.0
70
1
0
VERTEX
8
0
10
25.51194375
20
39.123337500000005
30
0
0
VERTEX
8
0
10
25.585375000000003
20
39.137943750000005
30
0
0
VERTEX
8
0
10
25.657018750000002
20
39.159678125
30
0
0
VERTEX
8
0
10
25.726190625
20
39.188328125000005
30
0
0
VERTEX
8
0
10
25.79221875
20
39.223621875
30
0
0
VERTEX
8
0
10
25.854468750000002
20
39.26521875
30
0
0
VERTEX
8
0
10
25.91234375
20
39.312715625
30
0
0
VERTEX
8
0
10
25.965284375
20
39.36565625
30
0
0
VERTEX
8
0
10
26.01278125
20
39.42353125
30
0
0
VERTEX
8
0
10
26.054378125
20
39.48578125
30
0
0
VERTEX
8
0
10
26.089671875
20
39.551809375000005
30
0
0
VERTEX
8
0
10
26.118321875000003
20
39.62098125
30
0
0
VERTEX
8
0
10
26.14005625
20
39.692625
30
0
0
VERTEX
8
0
10
26.1546625
20
39.766056250000005
30
0
0
VERTEX
8
0
10
26.162000000000003
20
39.840565625
30
0
0
VERTEX
8
0
10
26.162000000000003
20
41.439434375000005
30
0
0
VERTEX
8
0
10
26.1546625
20
41.51394375
30
0
0
VERTEX
8
0
10
26.14005625
20
41.587375
30
0
0
VERTEX
8
0
10
26.118321875000003
20
41.65901875
30
0
0
VERTEX
8
0
10
26.089671875
20
41.728190625
30
0
0
VERTEX
8
0
10
26.054378125
20
41.79421875
30
0
0
VERTEX
8
0
10
26.01278125
20
41.856468750000005
30
0
0
VERTEX
8
0
10
25.965284375
20
41.91434375
30
0
0
VERTEX
8
0
10
25.91234375
20
41.967284375000006
30
0
0
VERTEX
8
0
10
25.854468750000002
20
42.01478125
30
0
0
VERTEX
8
0
10
25.79221875
20
42.056378125
30
0
0
VERTEX
8
0
10
25.726190625
20
42.091671875
30
0
0
VERTEX
8
0
10
25.657018750000002
20
42.120321875
30
0
0
VERTEX
8
0
10
25.585375000000003
20
42.14205625
30
0
0
VERTEX
8
0
10
25.51194375
20
42.1566625
30
0
0
VERTEX
8
0
10
25.437434375000002
20
42.164
30
0
0
VERTEX
8
0
10
25.362565625000002
20
42.164
30
0
0
VERTEX
8
0
10
25.28805625
20
42.1566625
30
0
0
VERTEX
8
0
10
25.214625
20
42.14205625
30
0
0
VERTEX
8
0
10
25.142981250000002
20
42.120321875
30
0
0
VERTEX
8
0
10
25.073809375
20
42.091671875
30
0
0
VERTEX
8
0
10
25.00778125
20
42.056378125
30
0
0
VERTEX
8
0
10
24.945531250000002
20
42.01478125
30
0
0
VERTEX
8
0
10
24.887656250000003
20
41.967284375000006
30
0
0
VERTEX
8
0
10
24.834715625
20
41.91434375
30
0
0
VERTEX
8
0
10
24.78721875
20
41.856468750000005
30
0
0
VERTEX
8
0
10
24.745621875
20
41.79421875
30
0
0
VERTEX
8
0
10
24.710328125
20
41.728190625
30
0
0
VERTEX
8
0
10
24.681678125
20
41.65901875
30
0
0
VERTEX
8
0
10
24.65994375
20
41.587375
30
0
0
VERTEX
8
0
10
24.6453375
20
41.51394375
30
0
0
VERTEX
8
0
10
24.638
20
41.439434375000005
30
0
0
VERTEX
8
0
10
24.638
20
39.840565625
30
0
0
VERTEX
8
0
10
24.6453375
20
39.766056250000005
30
0
0
VERTEX
8
0
10
24.65994375
20
39.692625
30
0
0
VERTEX
8
0
10
24.681678125
20
39.62098125
30
0
0
VERTEX
8
0
10
24.710328125
20
39.551809375000005
30
0
0
VERTEX
8
0
10
24.745621875
20
39.48578125
30
0
0
VERTEX
8
0
10
24.78721875
20
39.42353125
30
0
0
VERTEX
8
0
10
24.834715625
20
39.36565625
30
0
0
VERTEX
8
0
10
24.887656250000003
20
39.312715625
30
0
0
VERTEX
8
0
10
24.945531250000002
20
39.26521875
30
0
0
VERTEX
8
0
10
25.00778125
20
39.223621875
30
0
0
VERTEX
8
0
10
25.073809375
20
39.188328125000005
30
0
0
VERTEX
8
0
10
25.142981250000002
20
39.159678125
30
0
0
VERTEX
8
0
10
25.214625
20
39.137943750000005
30
0
0
VERTEX
8
0
10
25.28805625
20
39.123337500000005
30
0
0
VERTEX
8
0
10
25.362565625000002
20
39.116
30
0
0
VERTEX
8
0
10
25.437434375000002
20
39.116
30
0
0
SEQEND
0
POLYLINE
66
1
8
16_copper
10
0.0
20
0.0
30
0.0
70
1
0
VERTEX
8
0
10
25.51194375
20
18.8033375
30
0
0
VERTEX
8
0
10
25.585375000000003
20
18.81794375
30
0
0
VERTEX
8
0
10
25.657018750000002
20
18.839678125000002
30
0
0
VERTEX
8
0
10
25.726190625
20
18.868328125
30
0
0
VERTEX
8
0
10
25.79221875
20
18.903621875000002
30
0
0
VERTEX
8
0
10
25.854468750000002
20
18.945218750000002
30
0
0
VERTEX
8
0
10
25.91234375
20
18.992715625000002
30
0
0
VERTEX
8
0
10
25.965284375
20
19.04565625
30
0
0
VERTEX
8
0
10
26.01278125
20
19.10353125
30
0
0
VERTEX
8
0
10
26.054378125
20
19.165781250000002
30
0
0
VERTEX
8
0
10
26.089671875
20
19.231809375
30
0
0
VERTEX
8
0
10
26.118321875000003
20
19.30098125
30
0
0
VERTEX
8
0
10
26.14005625
20
19.372625
30
0
0
VERTEX
8
0
10
26.1546625
20
19.44605625
30
0
0
VERTEX
8
0
10
26.162000000000003
20
19.520565625
30
0
0
VERTEX
8
0
10
26.162000000000003
20
21.119434375
30
0
0
VERTEX
8
0
10
26.1546625
20
21.193943750000003
30
0
0
VERTEX
8
0
10
26.14005625
20
21.267375
30
0
0
VERTEX
8
0
10
26.118321875000003
20
21.33901875
30
0
0
VERTEX
8
0
10
26.089671875
20
21.408190625
30
0
0
VERTEX
8
0
10
26.054378125
20
21.474218750000002
30
0
0
VERTEX
8
0
10
26.01278125
20
21.53646875
30
0
0
VERTEX
8
0
10
25.965284375
20
21.59434375
30
0
0
VERTEX
8
0
10
25.91234375
20
21.647284375
30
0
0
VERTEX
8
0
10
25.854468750000002
20
21.694781250000002
30
0
0
VERTEX
8
0
10
25.79221875
20
21.736378125
30
0
0
VERTEX
8
0
10
25.726190625
20
21.771671875000003
30
0
0
VERTEX
8
0
10
25.657018750000002
20
21.800321875
30
0
0
VERTEX
8
0
10
25.585375000000003
20
21.822056250000003
30
0
0
VERTEX
8
0
10
25.51194375
20
21.836662500000003
30
0
0
VERTEX
8
0
10
25.437434375000002
20
21.844
30
0
0
VERTEX
8
0
10
25.362565625000002
20
21.844
30
0
0
VERTEX
8
0
10
25.28805625
20
21.836662500000003
30
0
0
VERTEX
8
0
10
25.214625
20
21.822056250000003
30
0
0
VERTEX
8
0
10
25.142981250000002
20
21.800321875
30
0
0
VERTEX
8
0
10
25.073809375
20
21.771671875000003
30
0
0
VERTEX
8
0
10
25.00778125
20
21.736378125
30
0
0
VERTEX
8
0
10
24.945531250000002
20
21.694781250000002
30
0
0
VERTEX
8
0
10
24.887656250000003
20
21.647284375
30
0
0
VERTEX
8
0
10
24.834715625
20
21.59434375
30
0
0
VERTEX
8
0
10
24.78721875
20
21.53646875
30
0
0
VERTEX
8
0
10
24.745621875
20
21.474218750000002
30
0
0
VERTEX
8
0
10
24.710328125
20
21.408190625
30
0
0
VERTEX
8
0
10
24.681678125
20
21.33901875
30
0
0
VERTEX
8
0
10
24.65994375
20
21.267375
30
0
0
VERTEX
8
0
10
24.6453375
20
21.193943750000003
30
0
0
VERTEX
8
0
10
24.638
20
21.119434375
30
0
0
VERTEX
8
0
10
24.638
20
19.520565625
30
0
0
VERTEX
8
0
10
24.6453375
20
19.44605625
30
0
0
VERTEX
8
0
10
24.65994375
20
19.372625
30
0
0
VERTEX
8
0
10
24.681678125
20
19.30098125
30
0
0
VERTEX
8
0
10
24.710328125
20
19.231809375
30
0
0
VERTEX
8
0
10
24.745621875
20
19.165781250000002
30
0
0
VERTEX
8
0
10
24.78721875
20
19.10353125
30
0
0
VERTEX
8
0
10
24.834715625
20
19.04565625
30
0
0
VERTEX
8
0
10
24.887656250000003
20
18.992715625000002
30
0
0
VERTEX
8
0
10
24.945531250000002
20
18.945218750000002
30
0
0
VERTEX
8
0
10
25.00778125
20
18.903621875000002
30
0
0
VERTEX
8
0
10
25.073809375
20
18.868328125
30
0
0
VERTEX
8
0
10
25.142981250000002
20
18.839678125000002
30
0
0
VERTEX
8
0
10
25.214625
20
18.81794375
30
0
0
VERTEX
8
0
10
25.28805625
20
18.8033375
30
0
0
VERTEX
8
0
10
25.362565625000002
20
18.796
30
0
0
VERTEX
8
0
10
25.437434375000002
20
18.796
30
0
0
SEQEND
0
POLYLINE
66
1
8
16_copper
10
0.0
20
0.0
30
0.0
70
1
0
VERTEX
8
0
10
26.67
20
1.7599500000000001
30
0
0
VERTEX
8
0
10
26.67
20
2.81205
30
0
0
VERTEX
8
0
10
25.92605
20
3.556
30
0
0
VERTEX
8
0
10
24.87395
20
3.556
30
0
0
VERTEX
8
0
10
24.130000000000003
20
2.81205
30
0
0
VERTEX
8
0
10
24.130000000000003
20
1.7599500000000001
30
0
0
VERTEX
8
0
10
24.87395
20
1.016
30
0
0
VERTEX
8
0
10
25.92605
20
1.016
30
0
0
SEQEND
0
POLYLINE
66
1
8
1_copper
10
0.0
20
0.0
30
0.0
70
1
0
VERTEX
8
0
10
22.977003125
20
8.607531250000001
30
0
0
VERTEX
8
0
10
23.019750000000002
20
8.629312500000001
30
0
0
VERTEX
8
0
10
23.0585625
20
8.657512500000001
30
0
0
VERTEX
8
0
10
23.0924875
20
8.691437500000001
30
0
0
VERTEX
8
0
10
23.120687500000003
20
8.73025
30
0
0
VERTEX
8
0
10
23.142468750000003
20
8.772996875
30
0
0
VERTEX
8
0
10
23.15729375
20
8.818625
30
0
0
VERTEX
8
0
10
23.1648
20
8.8660125
30
0
0
VERTEX
8
0
10
23.1648
20
18.85946875
30
0
0
VERTEX
8
0
10
23.186190625000002
20
18.868328125
30
0
0
VERTEX
8
0
10
23.25221875
20
18.903621875000002
30
0
0
VERTEX
8
0
10
23.31446875
20
18.945218750000002
30
0
0
VERTEX
8
0
10
23.372343750000002
20
18.992715625000002
30
0
0
VERTEX
8
0
10
23.425284375
20
19.04565625
30
0
0
VERTEX
8
0
10
23.47278125
20
19.10353125
30
0
0
VERTEX
8
0
10
23.514378125
20
19.165781250000002
30
0
0
VERTEX
8
0
10
23.549671875
20
19.231809375
30
0
0
VERTEX
8
0
10
23.578321875
20
19.30098125
30
0
0
VERTEX
8
0
10
23.60005625
20
19.372625
30
0
0
VERTEX
8
0
10
23.6146625
20
19.44605625
30
0
0
VERTEX
8
0
10
23.622
20
19.520565625
30
0
0
VERTEX
8
0
10
23.622
20
21.119434375
30
0
0
VERTEX
8
0
10
23.6146625
20
21.193943750000003
30
0
0
VERTEX
8
0
10
23.60005625
20
21.267375
30
0
0
VERTEX
8
0
10
23.578321875
20
21.33901875
30
0
0
VERTEX
8
0
10
23.549671875
20
21.408190625
30
0
0
VERTEX
8
0
10
23.514378125
20
21.474218750000002
30
0
0
VERTEX
8
0
10
23.47278125
20
21.53646875
30
0
0
VERTEX
8
0
10
23.425284375
20
21.59434375
30
0
0
VERTEX
8
0
10
23.372343750000002
20
21.647284375
30
0
0
VERTEX
8
0
10
23.31446875
20
21.694781250000002
30
0
0
VERTEX
8
0
10
23.25221875
20
21.736378125
30
0
0
VERTEX
8
0
10
23.186190625000002
20
21.771671875000003
30
0
0
VERTEX
8
0
10
23.1648
20
21.780531250000003
30
0
0
VERTEX
8
0
10
23.1648
20
39.179468750000005
30
0
0
VERTEX
8
0
10
23.186190625000002
20
39.188328125000005
30
0
0
VERTEX
8
0
10
23.25221875
20
39.223621875
30
0
0
VERTEX
8
0
10
23.31446875
20
39.26521875
30
0
0
VERTEX
8
0
10
23.372343750000002
20
39.312715625
30
0
0
VERTEX
8
0
10
23.425284375
20
39.36565625
30
0
0
VERTEX
8
0
10
23.47278125
20
39.42353125
30
0
0
VERTEX
8
0
10
23.514378125
20
39.48578125
30
0
0
VERTEX
8
0
10
23.549671875
20
39.551809375000005
30
0
0
VERTEX
8
0
10
23.578321875
20
39.62098125
30
0
0
VERTEX
8
0
10
23.60005625
20
39.692625
30
0
0
VERTEX
8
0
10
23.6146625
20
39.766056250000005
30
0
0
VERTEX
8
0
10
23.622
20
39.840565625
30
0
0
VERTEX
8
0
10
23.622
20
41.439434375000005
30
0
0
VERTEX
8
0
10
23.6146625
20
41.51394375
30
0
0
VERTEX
8
0
10
23.60005625
20
41.587375
30
0
0
VERTEX
8
0
10
23.578321875
20
41.65901875
30
0
0
VERTEX
8
0
10
23.549671875
20
41.728190625
30
0
0
VERTEX
8
0
10
23.514378125
20
41.79421875
30
0
0
VERTEX
8
0
10
23.47278125
20
41.856468750000005
30
0
0
VERTEX
8
0
10
23.425284375
20
41.91434375
30
0
0
VERTEX
8
0
10
23.372343750000002
20
41.967284375000006
30
0
0
VERTEX
8
0
10
23.31446875
20
42.01478125
30
0
0
VERTEX
8
0
10
23.25221875
20
42.056378125
30
0
0
VERTEX
8
0
10
23.186190625000002
20
42.091671875
30
0
0
VERTEX
8
0
10
23.1648
20
42.10053125
30
0
0
VERTEX
8
0
10
23.1648
20
44.4739875
30
0
0
VERTEX
8
0
10
23.15729375
20
44.521375
30
0
0
VERTEX
8
0
10
23.142468750000003
20
44.567003125
30
0
0
VERTEX
8
0
10
23.120687500000003
20
44.609750000000005
30
0
0
VERTEX
8
0
10
23.0924875
20
44.648562500000004
30
0
0
VERTEX
8
0
10
23.0585625
20
44.6824875
30
0
0
VERTEX
8
0
10
23.019750000000002
20
44.7106875
30
0
0
VERTEX
8
0
10
22.977003125
20
44.73246875
30
0
0
VERTEX
8
0
10
22.931375000000003
20
44.747293750000004
30
0
0
VERTEX
8
0
10
22.8839875
20
44.7548
30
0
0
VERTEX
8
0
10
20.6248
20
44.7548
30
0
0
VERTEX
8
0
10
20.6248
20
49.553987500000005
30
0
0
VERTEX
8
0
10
20.61729375
20
49.601375000000004
30
0
0
VERTEX
8
0
10
20.60246875
20
49.647003125000005
30
0
0
VERTEX
8
0
10
20.5806875
20
49.689750000000004
30
0
0
VERTEX
8
0
10
20.5524875
20
49.7285625
30
0
0
VERTEX
8
0
10
20.5185625
20
49.7624875
30
0
0
VERTEX
8
0
10
20.47975
20
49.790687500000004
30
0
0
VERTEX
8
0
10
20.437003125
20
49.81246875
30
0
0
VERTEX
8
0
10
20.391375
20
49.82729375
30
0
0
VERTEX
8
0
10
20.3439875
20
49.8348
30
0
0
VERTEX
8
0
10
18.0848
20
49.8348
30
0
0
VERTEX
8
0
10
18.0848
20
55.5752
30
0
0
VERTEX
8
0
10
22.674
20
55.5752
30
0
0
VERTEX
8
0
10
22.674
20
55.353950000000005
30
0
0
VERTEX
8
0
10
23.41795
20
54.61
30
0
0
VERTEX
8
0
10
24.47005
20
54.61
30
0
0
VERTEX
8
0
10
25.214000000000002
20
55.353950000000005
30
0
0
VERTEX
8
0
10
25.214000000000002
20
56.40605
30
0
0
VERTEX
8
0
10
24.47005
20
57.150000000000006
30
0
0
VERTEX
8
0
10
23.41795
20
57.150000000000006
30
0
0
VERTEX
8
0
10
22.674
20
56.40605
30
0
0
VERTEX
8
0
10
22.674
20
56.1848
30
0
0
VERTEX
8
0
10
18.0848
20
56.1848
30
0
0
VERTEX
8
0
10
18.0848
20
59.499468750000005
30
0
0
VERTEX
8
0
10
18.106190625
20
59.508328125000006
30
0
0
VERTEX
8
0
10
18.172218750000003
20
59.543621875
30
0
0
VERTEX
8
0
10
18.23446875
20
59.58521875
30
0
0
VERTEX
8
0
10
18.29234375
20
59.632715625
30
0
0
VERTEX
8
0
10
18.345284375000002
20
59.68565625
30
0
0
VERTEX
8
0
10
18.392781250000002
20
59.743531250000004
30
0
0
VERTEX
8
0
10
18.434378125000002
20
59.80578125
30
0
0
VERTEX
8
0
10
18.469671875
20
59.871809375000005
30
0
0
VERTEX
8
0
10
18.498321875000002
20
59.94098125
30
0
0
VERTEX
8
0
10
18.52005625
20
60.012625
30
0
0
VERTEX
8
0
10
18.5346625
20
60.086056250000006
30
0
0
VERTEX
8
0
10
18.542
20
60.160565625000004
30
0
0
VERTEX
8
0
10
18.542
20
61.759434375000005
30
0
0
VERTEX
8
0
10
18.5346625
20
61.83394375
30
0
0
VERTEX
8
0
10
18.52005625
20
61.907375
30
0
0
VERTEX
8
0
10
18.498321875000002
20
61.97901875
30
0
0
VERTEX
8
0
10
18.469671875
20
62.048190625000004
30
0
0
VERTEX
8
0
10
18.434378125000002
20
62.114218750000006
30
0
0
VERTEX
8
0
10
18.392781250000002
20
62.176468750000005
30
0
0
VERTEX
8
0
10
18.345284375000002
20
62.23434375
30
0
0
VERTEX
8
0
10
18.29234375
20
62.287284375000006
30
0
0
VERTEX
8
0
10
18.23446875
20
62.334781250000006
30
0
0
VERTEX
8
0
10
18.172218750000003
20
62.376378125
30
0
0
VERTEX
8
0
10
18.106190625
20
62.411671875
30
0
0
VERTEX
8
0
10
18.03701875
20
62.440321875
30
0
0
VERTEX
8
0
10
17.965375
20
62.46205625
30
0
0
VERTEX
8
0
10
17.89194375
20
62.4766625
30
0
0
VERTEX
8
0
10
17.817434375
20
62.484
30
0
0
VERTEX
8
0
10
17.742565625
20
62.484
30
0
0
VERTEX
8
0
10
17.66805625
20
62.4766625
30
0
0
VERTEX
8
0
10
17.594625
20
62.46205625
30
0
0
VERTEX
8
0
10
17.52298125
20
62.440321875
30
0
0
VERTEX
8
0
10
17.453809375000002
20
62.411671875
30
0
0
VERTEX
8
0
10
17.38778125
20
62.376378125
30
0
0
VERTEX
8
0
10
17.32553125
20
62.334781250000006
30
0
0
VERTEX
8
0
10
17.26765625
20
62.287284375000006
30
0
0
VERTEX
8
0
10
17.214715625
20
62.23434375
30
0
0
VERTEX
8
0
10
17.16721875
20
62.176468750000005
30
0
0
VERTEX
8
0
10
17.125621875
20
62.114218750000006
30
0
0
VERTEX
8
0
10
17.090328125
20
62.048190625000004
30
0
0
VERTEX
8
0
10
17.061678125
20
61.97901875
30
0
0
VERTEX
8
0
10
17.03994375
20
61.907375
30
0
0
VERTEX
8
0
10
17.0253375
20
61.83394375
30
0
0
VERTEX
8
0
10
17.018
20
61.759434375000005
30
0
0
VERTEX
8
0
10
17.018
20
60.160565625000004
30
0
0
VERTEX
8
0
10
17.0253375
20
60.086056250000006
30
0
0
VERTEX
8
0
10
17.03994375
20
60.012625
30
0
0
VERTEX
8
0
10
17.061678125
20
59.94098125
30
0
0
VERTEX
8
0
10
17.090328125
20
59.871809375000005
30
0
0
VERTEX
8
0
10
17.125621875
20
59.80578125
30
0
0
VERTEX
8
0
10
17.16721875
20
59.743531250000004
30
0
0
VERTEX
8
0
10
17.214715625
20
59.68565625
30
0
0
VERTEX
8
0
10
17.26765625
20
59.632715625
30
0
0
VERTEX
8
0
10
17.32553125
20
59.58521875
30
0
0
VERTEX
8
0
10
17.38778125
20
59.543621875
30
0
0
VERTEX
8
0
10
17.453809375000002
20
59.508328125000006
30
0
0
VERTEX
8
0
10
17.4752
20
59.499468750000005
30
0
0
VERTEX
8
0
10
17.4752
20
54.9148
30
0
0
VERTEX
8
0
10
8.8660125
20
54.9148
30
0
0
VERTEX
8
0
10
8.818625
20
54.90729375
30
0
0
VERTEX
8
0
10
8.772996875
20
54.892468750000006
30
0
0
VERTEX
8
0
10
8.73025
20
54.8706875
30
0
0
VERTEX
8
0
10
8.691437500000001
20
54.842487500000004
30
0
0
VERTEX
8
0
10
8.657512500000001
20
54.8085625
30
0
0
VERTEX
8
0
10
8.629312500000001
20
54.76975
30
0
0
VERTEX
8
0
10
8.607531250000001
20
54.727003125
30
0
0
VERTEX
8
0
10
8.59270625
20
54.681375
30
0
0
VERTEX
8
0
10
8.5852
20
54.6339875
30
0
0
VERTEX
8
0
10
8.5852
20
49.8348
30
0
0
VERTEX
8
0
10
7.112
20
49.8348
30
0
0
VERTEX
8
0
10
7.112
20
50.329434375000005
30
0
0
VERTEX
8
0
10
7.104662500000001
20
50.40394375
30
0
0
VERTEX
8
0
10
7.09005625
20
50.477375
30
0
0
VERTEX
8
0
10
7.0683218750000005
20
50.54901875
30
0
0
VERTEX
8
0
10
7.039671875000001
20
50.618190625000004
30
0
0
VERTEX
8
0
10
7.004378125000001
20
50.68421875
30
0
0
VERTEX
8
0
10
6.96278125
20
50.746468750000005
30
0
0
VERTEX
8
0
10
6.915284375000001
20
50.80434375
30
0
0
VERTEX
8
0
10
6.86234375
20
50.857284375
30
0
0
VERTEX
8
0
10
6.804468750000001
20
50.90478125
30
0
0
VERTEX
8
0
10
6.74221875
20
50.946378125
30
0
0
VERTEX
8
0
10
6.676190625
20
50.981671875
30
0
0
VERTEX
8
0
10
6.60701875
20
51.010321875
30
0
0
VERTEX
8
0
10
6.535375
20
51.032056250000004
30
0
0
VERTEX
8
0
10
6.4619437500000005
20
51.046662500000004
30
0
0
VERTEX
8
0
10
6.387434375000001
20
51.054
30
0
0
VERTEX
8
0
10
6.312565625
20
51.054
30
0
0
VERTEX
8
0
10
6.2380562500000005
20
51.046662500000004
30
0
0
VERTEX
8
0
10
6.164625
20
51.032056250000004
30
0
0
VERTEX
8
0
10
6.09298125
20
51.010321875
30
0
0
VERTEX
8
0
10
6.023809375
20
50.981671875
30
0
0
VERTEX
8
0
10
5.95778125
20
50.946378125
30
0
0
VERTEX
8
0
10
5.89553125
20
50.90478125
30
0
0
VERTEX
8
0
10
5.83765625
20
50.857284375
30
0
0
VERTEX
8
0
10
5.7847156250000005
20
50.80434375
30
0
0
VERTEX
8
0
10
5.73721875
20
50.746468750000005
30
0
0
VERTEX
8
0
10
5.6956218750000005
20
50.68421875
30
0
0
VERTEX
8
0
10
5.660328125
20
50.618190625000004
30
0
0
VERTEX
8
0
10
5.6316781250000005
20
50.54901875
30
0
0
VERTEX
8
0
10
5.60994375
20
50.477375
30
0
0
VERTEX
8
0
10
5.5953375
20
50.40394375
30
0
0
VERTEX
8
0
10
5.588
20
50.329434375000005
30
0
0
VERTEX
8
0
10
5.588
20
48.730565625000004
30
0
0
VERTEX
8
0
10
5.5953375
20
48.65605625
30
0
0
VERTEX
8
0
10
5.60994375
20
48.582625
30
0
0
VERTEX
8
0
10
5.6316781250000005
20
48.51098125
30
0
0
VERTEX
8
0
10
5.660328125
20
48.441809375000005
30
0
0
VERTEX
8
0
10
5.6956218750000005
20
48.37578125
30
0
0
VERTEX
8
0
10
5.73721875
20
48.313531250000004
30
0
0
VERTEX
8
0
10
5.7847156250000005
20
48.25565625
30
0
0
VERTEX
8
0
10
5.83765625
20
48.202715625
30
0
0
VERTEX
8
0
10
5.89553125
20
48.15521875
30
0
0
VERTEX
8
0
10
5.95778125
20
48.113621875
30
0
0
VERTEX
8
0
10
6.023809375
20
48.078328125000006
30
0
0
VERTEX
8
0
10
6.09298125
20
48.049678125
30
0
0
VERTEX
8
0
10
6.164625
20
48.027943750000006
30
0
0
VERTEX
8
0
10
6.2380562500000005
20
48.013337500000006
30
0
0
VERTEX
8
0
10
6.312565625
20
48.006
30
0
0
VERTEX
8
0
10
6.387434375000001
20
48.006
30
0
0
VERTEX
8
0
10
6.4619437500000005
20
48.013337500000006
30
0
0
VERTEX
8
0
10
6.535375
20
48.027943750000006
30
0
0
VERTEX
8
0
10
6.60701875
20
48.049678125
30
0
0
VERTEX
8
0
10
6.676190625
20
48.078328125000006
30
0
0
VERTEX
8
0
10
6.74221875
20
48.113621875
30
0
0
VERTEX
8
0
10
6.804468750000001
20
48.15521875
30
0
0
VERTEX
8
0
10
6.86234375
20
48.202715625
30
0
0
VERTEX
8
0
10
6.915284375000001
20
48.25565625
30
0
0
VERTEX
8
0
10
6.96278125
20
48.313531250000004
30
0
0
VERTEX
8
0
10
7.004378125000001
20
48.37578125
30
0
0
VERTEX
8
0
10
7.039671875000001
20
48.441809375000005
30
0
0
VERTEX
8
0
10
7.0683218750000005
20
48.51098125
30
0
0
VERTEX
8
0
10
7.09005625
20
48.582625
30
0
0
VERTEX
8
0
10
7.104662500000001
20
48.65605625
30
0
0
VERTEX
8
0
10
7.112
20
48.730565625000004
30
0
0
VERTEX
8
0
10
7.112
20
49.2252
30
0
0
VERTEX
8
0
10
8.913987500000001
20
49.2252
30
0
0
VERTEX
8
0
10
8.961375
20
49.23270625
30
0
0
VERTEX
8
0
10
9.007003125
20
49.24753125
30
0
0
VERTEX
8
0
10
9.049750000000001
20
49.269312500000005
30
0
0
VERTEX
8
0
10
9.0885625
20
49.2975125
30
0
0
VERTEX
8
0
10
9.1224875
20
49.3314375
30
0
0
VERTEX
8
0
10
9.1506875
20
49.370250000000006
30
0
0
VERTEX
8
0
10
9.17246875
20
49.412996875000005
30
0
0
VERTEX
8
0
10
9.18729375
20
49.458625000000005
30
0
0
VERTEX
8
0
10
9.1948
20
49.506012500000004
30
0
0
VERTEX
8
0
10
9.1948
20
54.3052
30
0
0
VERTEX
8
0
10
17.4752
20
54.3052
30
0
0
VERTEX
8
0
10
17.4752
20
49.8348
30
0
0
VERTEX
8
0
10
16.002000000000002
20
49.8348
30
0
0
VERTEX
8
0
10
16.002000000000002
20
50.329434375000005
30
0
0
VERTEX
8
0
10
15.9946625
20
50.40394375
30
0
0
VERTEX
8
0
10
15.98005625
20
50.477375
30
0
0
VERTEX
8
0
10
15.958321875000001
20
50.54901875
30
0
0
VERTEX
8
0
10
15.929671875
20
50.618190625000004
30
0
0
VERTEX
8
0
10
15.894378125000001
20
50.68421875
30
0
0
VERTEX
8
0
10
15.852781250000001
20
50.746468750000005
30
0
0
VERTEX
8
0
10
15.805284375000001
20
50.80434375
30
0
0
VERTEX
8
0
10
15.752343750000001
20
50.857284375
30
0
0
VERTEX
8
0
10
15.69446875
20
50.90478125
30
0
0
VERTEX
8
0
10
15.632218750000002
20
50.946378125
30
0
0
VERTEX
8
0
10
15.566190625
20
50.981671875
30
0
0
VERTEX
8
0
10
15.49701875
20
51.010321875
30
0
0
VERTEX
8
0
10
15.425375
20
51.032056250000004
30
0
0
VERTEX
8
0
10
15.35194375
20
51.046662500000004
30
0
0
VERTEX
8
0
10
15.277434375
20
51.054
30
0
0
VERTEX
8
0
10
15.202565625
20
51.054
30
0
0
VERTEX
8
0
10
15.12805625
20
51.046662500000004
30
0
0
VERTEX
8
0
10
15.054625000000001
20
51.032056250000004
30
0
0
VERTEX
8
0
10
14.98298125
20
51.010321875
30
0
0
VERTEX
8
0
10
14.913809375000001
20
50.981671875
30
0
0
VERTEX
8
0
10
14.84778125
20
50.946378125
30
0
0
VERTEX
8
0
10
14.78553125
20
50.90478125
30
0
0
VERTEX
8
0
10
14.72765625
20
50.857284375
30
0
0
VERTEX
8
0
10
14.674715625000001
20
50.80434375
30
0
0
VERTEX
8
0
10
14.62721875
20
50.746468750000005
30
0
0
VERTEX
8
0
10
14.585621875000001
20
50.68421875
30
0
0
VERTEX
8
0
10
14.550328125
20
50.618190625000004
30
0
0
VERTEX
8
0
10
14.521678125000001
20
50.54901875
30
0
0
VERTEX
8
0
10
14.49994375
20
50.477375
30
0
0
VERTEX
8
0
10
14.4853375
20
50.40394375
30
0
0
VERTEX
8
0
10
14.478000000000002
20
50.329434375000005
30
0
0
VERTEX
8
0
10
14.478000000000002
20
48.730565625000004
30
0
0
VERTEX
8
0
10
14.4853375
20
48.65605625
30
0
0
VERTEX
8
0
10
14.49994375
20
48.582625
30
0
0
VERTEX
8
0
10
14.521678125000001
20
48.51098125
30
0
0
VERTEX
8
0
10
14.550328125
20
48.441809375000005
30
0
0
VERTEX
8
0
10
14.585621875000001
20
48.37578125
30
0
0
VERTEX
8
0
10
14.62721875
20
48.313531250000004
30
0
0
VERTEX
8
0
10
14.674715625000001
20
48.25565625
30
0
0
VERTEX
8
0
10
14.72765625
20
48.202715625
30
0
0
VERTEX
8
0
10
14.78553125
20
48.15521875
30
0
0
VERTEX
8
0
10
14.84778125
20
48.113621875
30
0
0
VERTEX
8
0
10
14.913809375000001
20
48.078328125000006
30
0
0
VERTEX
8
0
10
14.98298125
20
48.049678125
30
0
0
VERTEX
8
0
10
15.054625000000001
20
48.027943750000006
30
0
0
VERTEX
8
0
10
15.12805625
20
48.013337500000006
30
0
0
VERTEX
8
0
10
15.202565625
20
48.006
30
0
0
VERTEX
8
0
10
15.277434375
20
48.006
30
0
0
VERTEX
8
0
10
15.35194375
20
48.013337500000006
30
0
0
VERTEX
8
0
10
15.425375
20
48.027943750000006
30
0
0
VERTEX
8
0
10
15.49701875
20
48.049678125
30
0
0
VERTEX
8
0
10
15.566190625
20
48.078328125000006
30
0
0
VERTEX
8
0
10
15.632218750000002
20
48.113621875
30
0
0
VERTEX
8
0
10
15.69446875
20
48.15521875
30
0
0
VERTEX
8
0
10
15.752343750000001
20
48.202715625
30
0
0
VERTEX
8
0
10
15.805284375000001
20
48.25565625
30
0
0
VERTEX
8
0
10
15.852781250000001
20
48.313531250000004
30
0
0
VERTEX
8
0
10
15.894378125000001
20
48.37578125
30
0
0
VERTEX
8
0
10
15.929671875
20
48.441809375000005
30
0
0
VERTEX
8
0
10
15.958321875000001
20
48.51098125
30
0
0
VERTEX
8
0
10
15.98005625
20
48.582625
30
0
0
VERTEX
8
0
10
15.9946625
20
48.65605625
30
0
0
VERTEX
8
0
10
16.002000000000002
20
48.730565625000004
30
0
0
VERTEX
8
0
10
16.002000000000002
20
49.2252
30
0
0
VERTEX
8
0
10
20.0152
20
49.2252
30
0
0
VERTEX
8
0
10
20.0152
20
44.4260125
30
0
0
VERTEX
8
0
10
20.022706250000002
20
44.378625
30
0
0
VERTEX
8
0
10
20.03753125
20
44.332996875
30
0
0
VERTEX
8
0
10
20.0593125
20
44.29025
30
0
0
VERTEX
8
0
10
20.087512500000003
20
44.2514375
30
0
0
VERTEX
8
0
10
20.121437500000003
20
44.217512500000005
30
0
0
VERTEX
8
0
10
20.16025
20
44.1893125
30
0
0
VERTEX
8
0
10
20.202996875
20
44.16753125
30
0
0
VERTEX
8
0
10
20.248625
20
44.15270625
30
0
0
VERTEX
8
0
10
20.2960125
20
44.1452
30
0
0
VERTEX
8
0
10
22.555200000000003
20
44.1452
30
0
0
VERTEX
8
0
10
22.555200000000003
20
42.10053125
30
0
0
VERTEX
8
0
10
22.533809375
20
42.091671875
30
0
0
VERTEX
8
0
10
22.46778125
20
42.056378125
30
0
0
VERTEX
8
0
10
22.405531250000003
20
42.01478125
30
0
0
VERTEX
8
0
10
22.34765625
20
41.967284375000006
30
0
0
VERTEX
8
0
10
22.294715625000002
20
41.91434375
30
0
0
VERTEX
8
0
10
22.247218750000002
20
41.856468750000005
30
0
0
VERTEX
8
0
10
22.205621875000002
20
41.79421875
30
0
0
VERTEX
8
0
10
22.170328125
20
41.728190625
30
0
0
VERTEX
8
0
10
22.141678125000002
20
41.65901875
30
0
0
VERTEX
8
0
10
22.11994375
20
41.587375
30
0
0
VERTEX
8
0
10
22.1053375
20
41.51394375
30
0
0
VERTEX
8
0
10
22.098000000000003
20
41.439434375000005
30
0
0
VERTEX
8
0
10
22.098000000000003
20
39.840565625
30
0
0
VERTEX
8
0
10
22.1053375
20
39.766056250000005
30
0
0
VERTEX
8
0
10
22.11994375
20
39.692625
30
0
0
VERTEX
8
0
10
22.141678125000002
20
39.62098125
30
0
0
VERTEX
8
0
10
22.170328125
20
39.551809375000005
30
0
0
VERTEX
8
0
10
22.205621875000002
20
39.48578125
30
0
0
VERTEX
8
0
10
22.247218750000002
20
39.42353125
30
0
0
VERTEX
8
0
10
22.294715625000002
20
39.36565625
30
0
0
VERTEX
8
0
10
22.34765625
20
39.312715625
30
0
0
VERTEX
8
0
10
22.405531250000003
20
39.26521875
30
0
0
VERTEX
8
0
10
22.46778125
20
39.223621875
30
0
0
VERTEX
8
0
10
22.533809375
20
39.188328125000005
30
0
0
VERTEX
8
0
10
22.555200000000003
20
39.179468750000005
30
0
0
VERTEX
8
0
10
22.555200000000003
20
21.780531250000003
30
0
0
VERTEX
8
0
10
22.533809375
20
21.771671875000003
30
0
0
VERTEX
8
0
10
22.46778125
20
21.736378125
30
0
0
VERTEX
8
0
10
22.405531250000003
20
21.694781250000002
30
0
0
VERTEX
8
0
10
22.34765625
20
21.647284375
30
0
0
VERTEX
8
0
10
22.294715625000002
20
21.59434375
30
0
0
VERTEX
8
0
10
22.247218750000002
20
21.53646875
30
0
0
VERTEX
8
0
10
22.205621875000002
20
21.474218750000002
30
0
0
VERTEX
8
0
10
22.170328125
20
21.408190625
30
0
0
VERTEX
8
0
10
22.141678125000002
20
21.33901875
30
0
0
VERTEX
8
0
10
22.11994375
20
21.267375
30
0
0
VERTEX
8
0
10
22.1053375
20
21.193943750000003
30
0
0
VERTEX
8
0
10
22.098000000000003
20
21.119434375
30
0
0
VERTEX
8
0
10
22.098000000000003
20
19.520565625
30
0
0
VERTEX
8
0
10
22.1053375
20
19.44605625
30
0
0
VERTEX
8
0
10
22.11994375
20
19.372625
30
0
0
VERTEX
8
0
10
22.141678125000002
20
19.30098125
30
0
0
VERTEX
8
0
10
22.170328125
20
19.231809375
30
0
0
VERTEX
8
0
10
22.205621875000002
20
19.165781250000002
30
0
0
VERTEX
8
0
10
22.247218750000002
20
19.10353125
30
0
0
VERTEX
8
0
10
22.294715625000002
20
19.04565625
30
0
0
VERTEX
8
0
10
22.34765625
20
18.992715625000002
30
0
0
VERTEX
8
0
10
22.405531250000003
20
18.945218750000002
30
0
0
VERTEX
8
0
10
22.46778125
20
18.903621875000002
30
0
0
VERTEX
8
0
10
22.533809375
20
18.868328125
30
0
0
VERTEX
8
0
10
22.555200000000003
20
18.85946875
30
0
0
VERTEX
8
0
10
22.555200000000003
20
9.1948
30
0
0
VERTEX
8
0
10
21.4136125
20
9.1948
30
0
0
VERTEX
8
0
10
21.366225
20
9.18729375
30
0
0
VERTEX
8
0
10
21.320596875
20
9.17246875
30
0
0
VERTEX
8
0
10
21.27785
20
9.1506875
30
0
0
VERTEX
8
0
10
21.239037500000002
20
9.1224875
30
0
0
VERTEX
8
0
10
21.205112500000002
20
9.0885625
30
0
0
VERTEX
8
0
10
21.1769125
20
9.049750000000001
30
0
0
VERTEX
8
0
10
21.15513125
20
9.007003125
30
0
0
VERTEX
8
0
10
21.140306250000002
20
8.961375
30
0
0
VERTEX
8
0
10
21.1328
20
8.913987500000001
30
0
0
VERTEX
8
0
10
21.1328
20
3.556
30
0
0
VERTEX
8
0
10
20.911550000000002
20
3.556
30
0
0
VERTEX
8
0
10
20.1676
20
2.81205
30
0
0
VERTEX
8
0
10
20.1676
20
1.7599500000000001
30
0
0
VERTEX
8
0
10
20.911550000000002
20
1.016
30
0
0
VERTEX
8
0
10
21.96365
20
1.016
30
0
0
VERTEX
8
0
10
22.7076
20
1.7599500000000001
30
0
0
VERTEX
8
0
10
22.7076
20
2.81205
30
0
0
VERTEX
8
0
10
21.96365
20
3.556
30
0
0
VERTEX
8
0
10
21.7424
20
3.556
30
0
0
VERTEX
8
0
10
21.7424
20
8.5852
30
0
0
VERTEX
8
0
10
22.8839875
20
8.5852
30
0
0
VERTEX
8
0
10
22.931375000000003
20
8.59270625
30
0
0
SEQEND
0
POLYLINE
66
1
8
16_copper
10
0.0
20
0.0
30
0.0
70
1
0
VERTEX
8
0
10
17.89194375
20
59.443337500000005
30
0
0
VERTEX
8
0
10
17.965375
20
59.457943750000005
30
0
0
VERTEX
8
0
10
18.03701875
20
59.479678125
30
0
0
VERTEX
8
0
10
18.106190625
20
59.508328125000006
30
0
0
VERTEX
8
0
10
18.172218750000003
20
59.543621875
30
0
0
VERTEX
8
0
10
18.23446875
20
59.58521875
30
0
0
VERTEX
8
0
10
18.29234375
20
59.632715625
30
0
0
VERTEX
8
0
10
18.345284375000002
20
59.68565625
30
0
0
VERTEX
8
0
10
18.392781250000002
20
59.743531250000004
30
0
0
VERTEX
8
0
10
18.434378125000002
20
59.80578125
30
0
0
VERTEX
8
0
10
18.469671875
20
59.871809375000005
30
0
0
VERTEX
8
0
10
18.498321875000002
20
59.94098125
30
0
0
VERTEX
8
0
10
18.52005625
20
60.012625
30
0
0
VERTEX
8
0
10
18.5346625
20
60.086056250000006
30
0
0
VERTEX
8
0
10
18.542
20
60.160565625000004
30
0
0
VERTEX
8
0
10
18.542
20
61.759434375000005
30
0
0
VERTEX
8
0
10
18.5346625
20
61.83394375
30
0
0
VERTEX
8
0
10
18.52005625
20
61.907375
30
0
0
VERTEX
8
0
10
18.498321875000002
20
61.97901875
30
0
0
VERTEX
8
0
10
18.469671875
20
62.048190625000004
30
0
0
VERTEX
8
0
10
18.434378125000002
20
62.114218750000006
30
0
0
VERTEX
8
0
10
18.392781250000002
20
62.176468750000005
30
0
0
VERTEX
8
0
10
18.345284375000002
20
62.23434375
30
0
0
VERTEX
8
0
10
18.29234375
20
62.287284375000006
30
0
0
VERTEX
8
0
10
18.23446875
20
62.334781250000006
30
0
0
VERTEX
8
0
10
18.172218750000003
20
62.376378125
30
0
0
VERTEX
8
0
10
18.106190625
20
62.411671875
30
0
0
VERTEX
8
0
10
18.03701875
20
62.440321875
30
0
0
VERTEX
8
0
10
17.965375
20
62.46205625
30
0
0
VERTEX
8
0
10
17.89194375
20
62.4766625
30
0
0
VERTEX
8
0
10
17.817434375
20
62.484
30
0
0
VERTEX
8
0
10
17.742565625
20
62.484
30
0
0
VERTEX
8
0
10
17.66805625
20
62.4766625
30
0
0
VERTEX
8
0
10
17.594625
20
62.46205625
30
0
0
VERTEX
8
0
10
17.52298125
20
62.440321875
30
0
0
VERTEX
8
0
10
17.453809375000002
20
62.411671875
30
0
0
VERTEX
8
0
10
17.38778125
20
62.376378125
30
0
0
VERTEX
8
0
10
17.32553125
20
62.334781250000006
30
0
0
VERTEX
8
0
10
17.26765625
20
62.287284375000006
30
0
0
VERTEX
8
0
10
17.214715625
20
62.23434375
30
0
0
VERTEX
8
0
10
17.16721875
20
62.176468750000005
30
0
0
VERTEX
8
0
10
17.125621875
20
62.114218750000006
30
0
0
VERTEX
8
0
10
17.090328125
20
62.048190625000004
30
0
0
VERTEX
8
0
10
17.061678125
20
61.97901875
30
0
0
VERTEX
8
0
10
17.03994375
20
61.907375
30
0
0
VERTEX
8
0
10
17.0253375
20
61.83394375
30
0
0
VERTEX
8
0
10
17.018
20
61.759434375000005
30
0
0
VERTEX
8
0
10
17.018
20
60.160565625000004
30
0
0
VERTEX
8
0
10
17.0253375
20
60.086056250000006
30
0
0
VERTEX
8
0
10
17.03994375
20
60.012625
30
0
0
VERTEX
8
0
10
17.061678125
20
59.94098125
30
0
0
VERTEX
8
0
10
17.090328125
20
59.871809375000005
30
0
0
VERTEX
8
0
10
17.125621875
20
59.80578125
30
0
0
VERTEX
8
0
10
17.16721875
20
59.743531250000004
30
0
0
VERTEX
8
0
10
17.214715625
20
59.68565625
30
0
0
VERTEX
8
0
10
17.26765625
20
59.632715625
30
0
0
VERTEX
8
0
10
17.32553125
20
59.58521875
30
0
0
VERTEX
8
0
10
17.38778125
20
59.543621875
30
0
0
VERTEX
8
0
10
17.453809375000002
20
59.508328125000006
30
0
0
VERTEX
8
0
10
17.52298125
20
59.479678125
30
0
0
VERTEX
8
0
10
17.594625
20
59.457943750000005
30
0
0
VERTEX
8
0
10
17.66805625
20
59.443337500000005
30
0
0
VERTEX
8
0
10
17.742565625
20
59.436
30
0
0
VERTEX
8
0
10
17.817434375
20
59.436
30
0
0
SEQEND
0
POLYLINE
66
1
8
16_copper
10
0.0
20
0.0
30
0.0
70
1
0
VERTEX
8
0
10
25.214000000000002
20
55.353950000000005
30
0
0
VERTEX
8
0
10
25.214000000000002
20
56.40605
30
0
0
VERTEX
8
0
10
24.47005
20
57.150000000000006
30
0
0
VERTEX
8
0
10
23.41795
20
57.150000000000006
30
0
0
VERTEX
8
0
10
22.674
20
56.40605
30
0
0
VERTEX
8
0
10
22.674
20
55.353950000000005
30
0
0
VERTEX
8
0
10
23.41795
20
54.61
30
0
0
VERTEX
8
0
10
24.47005
20
54.61
30
0
0
SEQEND
0
POLYLINE
66
1
8
16_copper
10
0.0
20
0.0
30
0.0
70
1
0
VERTEX
8
0
10
6.4619437500000005
20
48.013337500000006
30
0
0
VERTEX
8
0
10
6.535375
20
48.027943750000006
30
0
0
VERTEX
8
0
10
6.60701875
20
48.049678125
30
0
0
VERTEX
8
0
10
6.676190625
20
48.078328125000006
30
0
0
VERTEX
8
0
10
6.74221875
20
48.113621875
30
0
0
VERTEX
8
0
10
6.804468750000001
20
48.15521875
30
0
0
VERTEX
8
0
10
6.86234375
20
48.202715625
30
0
0
VERTEX
8
0
10
6.915284375000001
20
48.25565625
30
0
0
VERTEX
8
0
10
6.96278125
20
48.313531250000004
30
0
0
VERTEX
8
0
10
7.004378125000001
20
48.37578125
30
0
0
VERTEX
8
0
10
7.039671875000001
20
48.441809375000005
30
0
0
VERTEX
8
0
10
7.0683218750000005
20
48.51098125
30
0
0
VERTEX
8
0
10
7.09005625
20
48.582625
30
0
0
VERTEX
8
0
10
7.104662500000001
20
48.65605625
30
0
0
VERTEX
8
0
10
7.112
20
48.730565625000004
30
0
0
VERTEX
8
0
10
7.112
20
50.329434375000005
30
0
0
VERTEX
8
0
10
7.104662500000001
20
50.40394375
30
0
0
VERTEX
8
0
10
7.09005625
20
50.477375
30
0
0
VERTEX
8
0
10
7.0683218750000005
20
50.54901875
30
0
0
VERTEX
8
0
10
7.039671875000001
20
50.618190625000004
30
0
0
VERTEX
8
0
10
7.004378125000001
20
50.68421875
30
0
0
VERTEX
8
0
10
6.96278125
20
50.746468750000005
30
0
0
VERTEX
8
0
10
6.915284375000001
20
50.80434375
30
0
0
VERTEX
8
0
10
6.86234375
20
50.857284375
30
0
0
VERTEX
8
0
10
6.804468750000001
20
50.90478125
30
0
0
VERTEX
8
0
10
6.74221875
20
50.946378125
30
0
0
VERTEX
8
0
10
6.676190625
20
50.981671875
30
0
0
VERTEX
8
0
10
6.60701875
20
51.010321875
30
0
0
VERTEX
8
0
10
6.535375
20
51.032056250000004
30
0
0
VERTEX
8
0
10
6.4619437500000005
20
51.046662500000004
30
0
0
VERTEX
8
0
10
6.387434375000001
20
51.054
30
0
0
VERTEX
8
0
10
6.312565625
20
51.054
30
0
0
VERTEX
8
0
10
6.2380562500000005
20
51.046662500000004
30
0
0
VERTEX
8
0
10
6.164625
20
51.032056250000004
30
0
0
VERTEX
8
0
10
6.09298125
20
51.010321875
30
0
0
VERTEX
8
0
10
6.023809375
20
50.981671875
30
0
0
VERTEX
8
0
10
5.95778125
20
50.946378125
30
0
0
VERTEX
8
0
10
5.89553125
20
50.90478125
30
0
0
VERTEX
8
0
10
5.83765625
20
50.857284375
30
0
0
VERTEX
8
0
10
5.7847156250000005
20
50.80434375
30
0
0
VERTEX
8
0
10
5.73721875
20
50.746468750000005
30
0
0
VERTEX
8
0
10
5.6956218750000005
20
50.68421875
30
0
0
VERTEX
8
0
10
5.660328125
20
50.618190625000004
30
0
0
VERTEX
8
0
10
5.6316781250000005
20
50.54901875
30
0
0
VERTEX
8
0
10
5.60994375
20
50.477375
30
0
0
VERTEX
8
0
10
5.5953375
20
50.40394375
30
0
0
VERTEX
8
0
10
5.588
20
50.329434375000005
30
0
0
VERTEX
8
0
10
5.588
20
48.730565625000004
30
0
0
VERTEX
8
0
10
5.5953375
20
48.65605625
30
0
0
VERTEX
8
0
10
5.60994375
20
48.582625
30
0
0
VERTEX
8
0
10
5.6316781250000005
20
48.51098125
30
0
0
VERTEX
8
0
10
5.660328125
20
48.441809375000005
30
0
0
VERTEX
8
0
10
5.6956218750000005
20
48.37578125
30
0
0
VERTEX
8
0
10
5.73721875
20
48.313531250000004
30
0
0
VERTEX
8
0
10
5.7847156250000005
20
48.25565625
30
0
0
VERTEX
8
0
10
5.83765625
20
48.202715625
30
0
0
VERTEX
8
0
10
5.89553125
20
48.15521875
30
0
0
VERTEX
8
0
10
5.95778125
20
48.113621875
30
0
0
VERTEX
8
0
10
6.023809375
20
48.078328125000006
30
0
0
VERTEX
8
0
10
6.09298125
20
48.049678125
30
0
0
VERTEX
8
0
10
6.164625
20
48.027943750000006
30
0
0
VERTEX
8
0
10
6.2380562500000005
20
48.013337500000006
30
0
0
VERTEX
8
0
10
6.312565625
20
48.006
30
0
0
VERTEX
8
0
10
6.387434375000001
20
48.006
30
0
0
SEQEND
0
POLYLINE
66
1
8
16_copper
10
0.0
20
0.0
30
0.0
70
1
0
VERTEX
8
0
10
15.35194375
20
48.013337500000006
30
0
0
VERTEX
8
0
10
15.425375
20
48.027943750000006
30
0
0
VERTEX
8
0
10
15.49701875
20
48.049678125
30
0
0
VERTEX
8
0
10
15.566190625
20
48.078328125000006
30
0
0
VERTEX
8
0
10
15.632218750000002
20
48.113621875
30
0
0
VERTEX
8
0
10
15.69446875
20
48.15521875
30
0
0
VERTEX
8
0
10
15.752343750000001
20
48.202715625
30
0
0
VERTEX
8
0
10
15.805284375000001
20
48.25565625
30
0
0
VERTEX
8
0
10
15.852781250000001
20
48.313531250000004
30
0
0
VERTEX
8
0
10
15.894378125000001
20
48.37578125
30
0
0
VERTEX
8
0
10
15.929671875
20
48.441809375000005
30
0
0
VERTEX
8
0
10
15.958321875000001
20
48.51098125
30
0
0
VERTEX
8
0
10
15.98005625
20
48.582625
30
0
0
VERTEX
8
0
10
15.9946625
20
48.65605625
30
0
0
VERTEX
8
0
10
16.002000000000002
20
48.730565625000004
30
0
0
VERTEX
8
0
10
16.002000000000002
20
50.329434375000005
30
0
0
VERTEX
8
0
10
15.9946625
20
50.40394375
30
0
0
VERTEX
8
0
10
15.98005625
20
50.477375
30
0
0
VERTEX
8
0
10
15.958321875000001
20
50.54901875
30
0
0
VERTEX
8
0
10
15.929671875
20
50.618190625000004
30
0
0
VERTEX
8
0
10
15.894378125000001
20
50.68421875
30
0
0
VERTEX
8
0
10
15.852781250000001
20
50.746468750000005
30
0
0
VERTEX
8
0
10
15.805284375000001
20
50.80434375
30
0
0
VERTEX
8
0
10
15.752343750000001
20
50.857284375
30
0
0
VERTEX
8
0
10
15.69446875
20
50.90478125
30
0
0
VERTEX
8
0
10
15.632218750000002
20
50.946378125
30
0
0
VERTEX
8
0
10
15.566190625
20
50.981671875
30
0
0
VERTEX
8
0
10
15.49701875
20
51.010321875
30
0
0
VERTEX
8
0
10
15.425375
20
51.032056250000004
30
0
0
VERTEX
8
0
10
15.35194375
20
51.046662500000004
30
0
0
VERTEX
8
0
10
15.277434375
20
51.054
30
0
0
VERTEX
8
0
10
15.202565625
20
51.054
30
0
0
VERTEX
8
0
10
15.12805625
20
51.046662500000004
30
0
0
VERTEX
8
0
10
15.054625000000001
20
51.032056250000004
30
0
0
VERTEX
8
0
10
14.98298125
20
51.010321875
30
0
0
VERTEX
8
0
10
14.913809375000001
20
50.981671875
30
0
0
VERTEX
8
0
10
14.84778125
20
50.946378125
30
0
0
VERTEX
8
0
10
14.78553125
20
50.90478125
30
0
0
VERTEX
8
0
10
14.72765625
20
50.857284375
30
0
0
VERTEX
8
0
10
14.674715625000001
20
50.80434375
30
0
0
VERTEX
8
0
10
14.62721875
20
50.746468750000005
30
0
0
VERTEX
8
0
10
14.585621875000001
20
50.68421875
30
0
0
VERTEX
8
0
10
14.550328125
20
50.618190625000004
30
0
0
VERTEX
8
0
10
14.521678125000001
20
50.54901875
30
0
0
VERTEX
8
0
10
14.49994375
20
50.477375
30
0
0
VERTEX
8
0
10
14.4853375
20
50.40394375
30
0
0
VERTEX
8
0
10
14.478000000000002
20
50.329434375000005
30
0
0
VERTEX
8
0
10
14.478000000000002
20
48.730565625000004
30
0
0
VERTEX
8
0
10
14.4853375
20
48.65605625
30
0
0
VERTEX
8
0
10
14.49994375
20
48.582625
30
0
0
VERTEX
8
0
10
14.521678125000001
20
48.51098125
30
0
0
VERTEX
8
0
10
14.550328125
20
48.441809375000005
30
0
0
VERTEX
8
0
10
14.585621875000001
20
48.37578125
30
0
0
VERTEX
8
0
10
14.62721875
20
48.313531250000004
30
0
0
VERTEX
8
0
10
14.674715625000001
20
48.25565625
30
0
0
VERTEX
8
0
10
14.72765625
20
48.202715625
30
0
0
VERTEX
8
0
10
14.78553125
20
48.15521875
30
0
0
VERTEX
8
0
10
14.84778125
20
48.113621875
30
0
0
VERTEX
8
0
10
14.913809375000001
20
48.078328125000006
30
0
0
VERTEX
8
0
10
14.98298125
20
48.049678125
30
0
0
VERTEX
8
0
10
15.054625000000001
20
48.027943750000006
30
0
0
VERTEX
8
0
10
15.12805625
20
48.013337500000006
30
0
0
VERTEX
8
0
10
15.202565625
20
48.006
30
0
0
VERTEX
8
0
10
15.277434375
20
48.006
30
0
0
SEQEND
0
POLYLINE
66
1
8
16_copper
10
0.0
20
0.0
30
0.0
70
1
0
VERTEX
8
0
10
22.97194375
20
39.123337500000005
30
0
0
VERTEX
8
0
10
23.045375
20
39.137943750000005
30
0
0
VERTEX
8
0
10
23.11701875
20
39.159678125
30
0
0
VERTEX
8
0
10
23.186190625000002
20
39.188328125000005
30
0
0
VERTEX
8
0
10
23.25221875
20
39.223621875
30
0
0
VERTEX
8
0
10
23.31446875
20
39.26521875
30
0
0
VERTEX
8
0
10
23.372343750000002
20
39.312715625
30
0
0
VERTEX
8
0
10
23.425284375
20
39.36565625
30
0
0
VERTEX
8
0
10
23.47278125
20
39.42353125
30
0
0
VERTEX
8
0
10
23.514378125
20
39.48578125
30
0
0
VERTEX
8
0
10
23.549671875
20
39.551809375000005
30
0
0
VERTEX
8
0
10
23.578321875
20
39.62098125
30
0
0
VERTEX
8
0
10
23.60005625
20
39.692625
30
0
0
VERTEX
8
0
10
23.6146625
20
39.766056250000005
30
0
0
VERTEX
8
0
10
23.622
20
39.840565625
30
0
0
VERTEX
8
0
10
23.622
20
41.439434375000005
30
0
0
VERTEX
8
0
10
23.6146625
20
41.51394375
30
0
0
VERTEX
8
0
10
23.60005625
20
41.587375
30
0
0
VERTEX
8
0
10
23.578321875
20
41.65901875
30
0
0
VERTEX
8
0
10
23.549671875
20
41.728190625
30
0
0
VERTEX
8
0
10
23.514378125
20
41.79421875
30
0
0
VERTEX
8
0
10
23.47278125
20
41.856468750000005
30
0
0
VERTEX
8
0
10
23.425284375
20
41.91434375
30
0
0
VERTEX
8
0
10
23.372343750000002
20
41.967284375000006
30
0
0
VERTEX
8
0
10
23.31446875
20
42.01478125
30
0
0
VERTEX
8
0
10
23.25221875
20
42.056378125
30
0
0
VERTEX
8
0
10
23.186190625000002
20
42.091671875
30
0
0
VERTEX
8
0
10
23.11701875
20
42.120321875
30
0
0
VERTEX
8
0
10
23.045375
20
42.14205625
30
0
0
VERTEX
8
0
10
22.97194375
20
42.1566625
30
0
0
VERTEX
8
0
10
22.897434375
20
42.164
30
0
0
VERTEX
8
0
10
22.822565625000003
20
42.164
30
0
0
VERTEX
8
0
10
22.74805625
20
42.1566625
30
0
0
VERTEX
8
0
10
22.674625000000002
20
42.14205625
30
0
0
VERTEX
8
0
10
22.602981250000003
20
42.120321875
30
0
0
VERTEX
8
0
10
22.533809375
20
42.091671875
30
0
0
VERTEX
8
0
10
22.46778125
20
42.056378125
30
0
0
VERTEX
8
0
10
22.405531250000003
20
42.01478125
30
0
0
VERTEX
8
0
10
22.34765625
20
41.967284375000006
30
0
0
VERTEX
8
0
10
22.294715625000002
20
41.91434375
30
0
0
VERTEX
8
0
10
22.247218750000002
20
41.856468750000005
30
0
0
VERTEX
8
0
10
22.205621875000002
20
41.79421875
30
0
0
VERTEX
8
0
10
22.170328125
20
41.728190625
30
0
0
VERTEX
8
0
10
22.141678125000002
20
41.65901875
30
0
0
VERTEX
8
0
10
22.11994375
20
41.587375
30
0
0
VERTEX
8
0
10
22.1053375
20
41.51394375
30
0
0
VERTEX
8
0
10
22.098000000000003
20
41.439434375000005
30
0
0
VERTEX
8
0
10
22.098000000000003
20
39.840565625
30
0
0
VERTEX
8
0
10
22.1053375
20
39.766056250000005
30
0
0
VERTEX
8
0
10
22.11994375
20
39.692625
30
0
0
VERTEX
8
0
10
22.141678125000002
20
39.62098125
30
0
0
VERTEX
8
0
10
22.170328125
20
39.551809375000005
30
0
0
VERTEX
8
0
10
22.205621875000002
20
39.48578125
30
0
0
VERTEX
8
0
10
22.247218750000002
20
39.42353125
30
0
0
VERTEX
8
0
10
22.294715625000002
20
39.36565625
30
0
0
VERTEX
8
0
10
22.34765625
20
39.312715625
30
0
0
VERTEX
8
0
10
22.405531250000003
20
39.26521875
30
0
0
VERTEX
8
0
10
22.46778125
20
39.223621875
30
0
0
VERTEX
8
0
10
22.533809375
20
39.188328125000005
30
0
0
VERTEX
8
0
10
22.602981250000003
20
39.159678125
30
0
0
VERTEX
8
0
10
22.674625000000002
20
39.137943750000005
30
0
0
VERTEX
8
0
10
22.74805625
20
39.123337500000005
30
0
0
VERTEX
8
0
10
22.822565625000003
20
39.116
30
0
0
VERTEX
8
0
10
22.897434375
20
39.116
30
0
0
SEQEND
0
POLYLINE
66
1
8
16_copper
10
0.0
20
0.0
30
0.0
70
1
0
VERTEX
8
0
10
22.97194375
20
18.8033375
30
0
0
VERTEX
8
0
10
23.045375
20
18.81794375
30
0
0
VERTEX
8
0
10
23.11701875
20
18.839678125000002
30
0
0
VERTEX
8
0
10
23.186190625000002
20
18.868328125
30
0
0
VERTEX
8
0
10
23.25221875
20
18.903621875000002
30
0
0
VERTEX
8
0
10
23.31446875
20
18.945218750000002
30
0
0
VERTEX
8
0
10
23.372343750000002
20
18.992715625000002
30
0
0
VERTEX
8
0
10
23.425284375
20
19.04565625
30
0
0
VERTEX
8
0
10
23.47278125
20
19.10353125
30
0
0
VERTEX
8
0
10
23.514378125
20
19.165781250000002
30
0
0
VERTEX
8
0
10
23.549671875
20
19.231809375
30
0
0
VERTEX
8
0
10
23.578321875
20
19.30098125
30
0
0
VERTEX
8
0
10
23.60005625
20
19.372625
30
0
0
VERTEX
8
0
10
23.6146625
20
19.44605625
30
0
0
VERTEX
8
0
10
23.622
20
19.520565625
30
0
0
VERTEX
8
0
10
23.622
20
21.119434375
30
0
0
VERTEX
8
0
10
23.6146625
20
21.193943750000003
30
0
0
VERTEX
8
0
10
23.60005625
20
21.267375
30
0
0
VERTEX
8
0
10
23.578321875
20
21.33901875
30
0
0
VERTEX
8
0
10
23.549671875
20
21.408190625
30
0
0
VERTEX
8
0
10
23.514378125
20
21.474218750000002
30
0
0
VERTEX
8
0
10
23.47278125
20
21.53646875
30
0
0
VERTEX
8
0
10
23.425284375
20
21.59434375
30
0
0
VERTEX
8
0
10
23.372343750000002
20
21.647284375
30
0
0
VERTEX
8
0
10
23.31446875
20
21.694781250000002
30
0
0
VERTEX
8
0
10
23.25221875
20
21.736378125
30
0
0
VERTEX
8
0
10
23.186190625000002
20
21.771671875000003
30
0
0
VERTEX
8
0
10
23.11701875
20
21.800321875
30
0
0
VERTEX
8
0
10
23.045375
20
21.822056250000003
30
0
0
VERTEX
8
0
10
22.97194375
20
21.836662500000003
30
0
0
VERTEX
8
0
10
22.897434375
20
21.844
30
0
0
VERTEX
8
0
10
22.822565625000003
20
21.844
30
0
0
VERTEX
8
0
10
22.74805625
20
21.836662500000003
30
0
0
VERTEX
8
0
10
22.674625000000002
20
21.822056250000003
30
0
0
VERTEX
8
0
10
22.602981250000003
20
21.800321875
30
0
0
VERTEX
8
0
10
22.533809375
20
21.771671875000003
30
0
0
VERTEX
8
0
10
22.46778125
20
21.736378125
30
0
0
VERTEX
8
0
10
22.405531250000003
20
21.694781250000002
30
0
0
VERTEX
8
0
10
22.34765625
20
21.647284375
30
0
0
VERTEX
8
0
10
22.294715625000002
20
21.59434375
30
0
0
VERTEX
8
0
10
22.247218750000002
20
21.53646875
30
0
0
VERTEX
8
0
10
22.205621875000002
20
21.474218750000002
30
0
0
VERTEX
8
0
10
22.170328125
20
21.408190625
30
0
0
VERTEX
8
0
10
22.141678125000002
20
21.33901875
30
0
0
VERTEX
8
0
10
22.11994375
20
21.267375
30
0
0
VERTEX
8
0
10
22.1053375
20
21.193943750000003
30
0
0
VERTEX
8
0
10
22.098000000000003
20
21.119434375
30
0
0
VERTEX
8
0
10
22.098000000000003
20
19.520565625
30
0
0
VERTEX
8
0
10
22.1053375
20
19.44605625
30
0
0
VERTEX
8
0
10
22.11994375
20
19.372625
30
0
0
VERTEX
8
0
10
22.141678125000002
20
19.30098125
30
0
0
VERTEX
8
0
10
22.170328125
20
19.231809375
30
0
0
VERTEX
8
0
10
22.205621875000002
20
19.165781250000002
30
0
0
VERTEX
8
0
10
22.247218750000002
20
19.10353125
30
0
0
VERTEX
8
0
10
22.294715625000002
20
19.04565625
30
0
0
VERTEX
8
0
10
22.34765625
20
18.992715625000002
30
0
0
VERTEX
8
0
10
22.405531250000003
20
18.945218750000002
30
0
0
VERTEX
8
0
10
22.46778125
20
18.903621875000002
30
0
0
VERTEX
8
0
10
22.533809375
20
18.868328125
30
0
0
VERTEX
8
0
10
22.602981250000003
20
18.839678125000002
30
0
0
VERTEX
8
0
10
22.674625000000002
20
18.81794375
30
0
0
VERTEX
8
0
10
22.74805625
20
18.8033375
30
0
0
VERTEX
8
0
10
22.822565625000003
20
18.796
30
0
0
VERTEX
8
0
10
22.897434375
20
18.796
30
0
0
SEQEND
0
POLYLINE
66
1
8
16_copper
10
0.0
20
0.0
30
0.0
70
1
0
VERTEX
8
0
10
22.7076
20
1.7599500000000001
30
0
0
VERTEX
8
0
10
22.7076
20
2.81205
30
0
0
VERTEX
8
0
10
21.96365
20
3.556
30
0
0
VERTEX
8
0
10
20.911550000000002
20
3.556
30
0
0
VERTEX
8
0
10
20.1676
20
2.81205
30
0
0
VERTEX
8
0
10
20.1676
20
1.7599500000000001
30
0
0
VERTEX
8
0
10
20.911550000000002
20
1.016
30
0
0
VERTEX
8
0
10
21.96365
20
1.016
30
0
0
SEQEND
0
POLYLINE
66
1
8
1_copper
10
0.0
20
0.0
30
0.0
70
1
0
VERTEX
8
0
10
17.897003125
20
12.417531250000001
30
0
0
VERTEX
8
0
10
17.93975
20
12.4393125
30
0
0
VERTEX
8
0
10
17.978562500000002
20
12.4675125
30
0
0
VERTEX
8
0
10
18.012487500000002
20
12.5014375
30
0
0
VERTEX
8
0
10
18.0406875
20
12.54025
30
0
0
VERTEX
8
0
10
18.06246875
20
12.582996875000001
30
0
0
VERTEX
8
0
10
18.077293750000003
20
12.628625000000001
30
0
0
VERTEX
8
0
10
18.0848
20
12.6760125
30
0
0
VERTEX
8
0
10
18.0848
20
18.85946875
30
0
0
VERTEX
8
0
10
18.106190625
20
18.868328125
30
0
0
VERTEX
8
0
10
18.172218750000003
20
18.903621875000002
30
0
0
VERTEX
8
0
10
18.23446875
20
18.945218750000002
30
0
0
VERTEX
8
0
10
18.29234375
20
18.992715625000002
30
0
0
VERTEX
8
0
10
18.345284375000002
20
19.04565625
30
0
0
VERTEX
8
0
10
18.392781250000002
20
19.10353125
30
0
0
VERTEX
8
0
10
18.434378125000002
20
19.165781250000002
30
0
0
VERTEX
8
0
10
18.469671875
20
19.231809375
30
0
0
VERTEX
8
0
10
18.498321875000002
20
19.30098125
30
0
0
VERTEX
8
0
10
18.52005625
20
19.372625
30
0
0
VERTEX
8
0
10
18.5346625
20
19.44605625
30
0
0
VERTEX
8
0
10
18.542
20
19.520565625
30
0
0
VERTEX
8
0
10
18.542
20
21.119434375
30
0
0
VERTEX
8
0
10
18.5346625
20
21.193943750000003
30
0
0
VERTEX
8
0
10
18.52005625
20
21.267375
30
0
0
VERTEX
8
0
10
18.498321875000002
20
21.33901875
30
0
0
VERTEX
8
0
10
18.469671875
20
21.408190625
30
0
0
VERTEX
8
0
10
18.434378125000002
20
21.474218750000002
30
0
0
VERTEX
8
0
10
18.392781250000002
20
21.53646875
30
0
0
VERTEX
8
0
10
18.345284375000002
20
21.59434375
30
0
0
VERTEX
8
0
10
18.29234375
20
21.647284375
30
0
0
VERTEX
8
0
10
18.23446875
20
21.694781250000002
30
0
0
VERTEX
8
0
10
18.172218750000003
20
21.736378125
30
0
0
VERTEX
8
0
10
18.106190625
20
21.771671875000003
30
0
0
VERTEX
8
0
10
18.0848
20
21.780531250000003
30
0
0
VERTEX
8
0
10
18.0848
20
34.3139875
30
0
0
VERTEX
8
0
10
18.077293750000003
20
34.361375
30
0
0
VERTEX
8
0
10
18.06246875
20
34.407003125
30
0
0
VERTEX
8
0
10
18.0406875
20
34.44975
30
0
0
VERTEX
8
0
10
18.012487500000002
20
34.4885625
30
0
0
VERTEX
8
0
10
17.978562500000002
20
34.522487500000004
30
0
0
VERTEX
8
0
10
17.93975
20
34.5506875
30
0
0
VERTEX
8
0
10
17.897003125
20
34.57246875
30
0
0
VERTEX
8
0
10
17.851375
20
34.58729375
30
0
0
VERTEX
8
0
10
17.8039875
20
34.5948
30
0
0
VERTEX
8
0
10
10.4648
20
34.5948
30
0
0
VERTEX
8
0
10
10.4648
20
39.179468750000005
30
0
0
VERTEX
8
0
10
10.486190625
20
39.188328125000005
30
0
0
VERTEX
8
0
10
10.55221875
20
39.223621875
30
0
0
VERTEX
8
0
10
10.61446875
20
39.26521875
30
0
0
VERTEX
8
0
10
10.672343750000001
20
39.312715625
30
0
0
VERTEX
8
0
10
10.725284375000001
20
39.36565625
30
0
0
VERTEX
8
0
10
10.772781250000001
20
39.42353125
30
0
0
VERTEX
8
0
10
10.814378125000001
20
39.48578125
30
0
0
VERTEX
8
0
10
10.849671875
20
39.551809375000005
30
0
0
VERTEX
8
0
10
10.878321875000001
20
39.62098125
30
0
0
VERTEX
8
0
10
10.90005625
20
39.692625
30
0
0
VERTEX
8
0
10
10.9146625
20
39.766056250000005
30
0
0
VERTEX
8
0
10
10.922
20
39.840565625
30
0
0
VERTEX
8
0
10
10.922
20
41.439434375000005
30
0
0
VERTEX
8
0
10
10.9146625
20
41.51394375
30
0
0
VERTEX
8
0
10
10.90005625
20
41.587375
30
0
0
VERTEX
8
0
10
10.878321875000001
20
41.65901875
30
0
0
VERTEX
8
0
10
10.849671875
20
41.728190625
30
0
0
VERTEX
8
0
10
10.814378125000001
20
41.79421875
30
0
0
VERTEX
8
0
10
10.772781250000001
20
41.856468750000005
30
0
0
VERTEX
8
0
10
10.725284375000001
20
41.91434375
30
0
0
VERTEX
8
0
10
10.672343750000001
20
41.967284375000006
30
0
0
VERTEX
8
0
10
10.61446875
20
42.01478125
30
0
0
VERTEX
8
0
10
10.55221875
20
42.056378125
30
0
0
VERTEX
8
0
10
10.486190625
20
42.091671875
30
0
0
VERTEX
8
0
10
10.41701875
20
42.120321875
30
0
0
VERTEX
8
0
10
10.345375
20
42.14205625
30
0
0
VERTEX
8
0
10
10.27194375
20
42.1566625
30
0
0
VERTEX
8
0
10
10.197434375
20
42.164
30
0
0
VERTEX
8
0
10
10.122565625
20
42.164
30
0
0
VERTEX
8
0
10
10.04805625
20
42.1566625
30
0
0
VERTEX
8
0
10
9.974625
20
42.14205625
30
0
0
VERTEX
8
0
10
9.90298125
20
42.120321875
30
0
0
VERTEX
8
0
10
9.833809375000001
20
42.091671875
30
0
0
VERTEX
8
0
10
9.76778125
20
42.056378125
30
0
0
VERTEX
8
0
10
9.70553125
20
42.01478125
30
0
0
VERTEX
8
0
10
9.64765625
20
41.967284375000006
30
0
0
VERTEX
8
0
10
9.594715625000001
20
41.91434375
30
0
0
VERTEX
8
0
10
9.54721875
20
41.856468750000005
30
0
0
VERTEX
8
0
10
9.505621875000001
20
41.79421875
30
0
0
VERTEX
8
0
10
9.470328125
20
41.728190625
30
0
0
VERTEX
8
0
10
9.441678125000001
20
41.65901875
30
0
0
VERTEX
8
0
10
9.41994375
20
41.587375
30
0
0
VERTEX
8
0
10
9.4053375
20
41.51394375
30
0
0
VERTEX
8
0
10
9.398
20
41.439434375000005
30
0
0
VERTEX
8
0
10
9.398
20
39.840565625
30
0
0
VERTEX
8
0
10
9.4053375
20
39.766056250000005
30
0
0
VERTEX
8
0
10
9.41994375
20
39.692625
30
0
0
VERTEX
8
0
10
9.441678125000001
20
39.62098125
30
0
0
VERTEX
8
0
10
9.470328125
20
39.551809375000005
30
0
0
VERTEX
8
0
10
9.505621875000001
20
39.48578125
30
0
0
VERTEX
8
0
10
9.54721875
20
39.42353125
30
0
0
VERTEX
8
0
10
9.594715625000001
20
39.36565625
30
0
0
VERTEX
8
0
10
9.64765625
20
39.312715625
30
0
0
VERTEX
8
0
10
9.70553125
20
39.26521875
30
0
0
VERTEX
8
0
10
9.76778125
20
39.223621875
30
0
0
VERTEX
8
0
10
9.833809375000001
20
39.188328125000005
30
0
0
VERTEX
8
0
10
9.8552
20
39.179468750000005
30
0
0
VERTEX
8
0
10
9.8552
20
34.2660125
30
0
0
VERTEX
8
0
10
9.86270625
20
34.218625
30
0
0
VERTEX
8
0
10
9.87753125
20
34.172996875
30
0
0
VERTEX
8
0
10
9.8993125
20
34.130250000000004
30
0
0
VERTEX
8
0
10
9.9275125
20
34.091437500000005
30
0
0
VERTEX
8
0
10
9.9614375
20
34.0575125
30
0
0
VERTEX
8
0
10
10.000250000000001
20
34.0293125
30
0
0
VERTEX
8
0
10
10.042996875
20
34.00753125
30
0
0
VERTEX
8
0
10
10.088625
20
33.992706250000005
30
0
0
VERTEX
8
0
10
10.1360125
20
33.9852
30
0
0
VERTEX
8
0
10
17.4752
20
33.9852
30
0
0
VERTEX
8
0
10
17.4752
20
21.780531250000003
30
0
0
VERTEX
8
0
10
17.453809375000002
20
21.771671875000003
30
0
0
VERTEX
8
0
10
17.38778125
20
21.736378125
30
0
0
VERTEX
8
0
10
17.32553125
20
21.694781250000002
30
0
0
VERTEX
8
0
10
17.26765625
20
21.647284375
30
0
0
VERTEX
8
0
10
17.214715625
20
21.59434375
30
0
0
VERTEX
8
0
10
17.16721875
20
21.53646875
30
0
0
VERTEX
8
0
10
17.125621875
20
21.474218750000002
30
0
0
VERTEX
8
0
10
17.090328125
20
21.408190625
30
0
0
VERTEX
8
0
10
17.061678125
20
21.33901875
30
0
0
VERTEX
8
0
10
17.03994375
20
21.267375
30
0
0
VERTEX
8
0
10
17.0253375
20
21.193943750000003
30
0
0
VERTEX
8
0
10
17.018
20
21.119434375
30
0
0
VERTEX
8
0
10
17.018
20
19.520565625
30
0
0
VERTEX
8
0
10
17.0253375
20
19.44605625
30
0
0
VERTEX
8
0
10
17.03994375
20
19.372625
30
0
0
VERTEX
8
0
10
17.061678125
20
19.30098125
30
0
0
VERTEX
8
0
10
17.090328125
20
19.231809375
30
0
0
VERTEX
8
0
10
17.125621875
20
19.165781250000002
30
0
0
VERTEX
8
0
10
17.16721875
20
19.10353125
30
0
0
VERTEX
8
0
10
17.214715625
20
19.04565625
30
0
0
VERTEX
8
0
10
17.26765625
20
18.992715625000002
30
0
0
VERTEX
8
0
10
17.32553125
20
18.945218750000002
30
0
0
VERTEX
8
0
10
17.38778125
20
18.903621875000002
30
0
0
VERTEX
8
0
10
17.453809375000002
20
18.868328125
30
0
0
VERTEX
8
0
10
17.4752
20
18.85946875
30
0
0
VERTEX
8
0
10
17.4752
20
13.004800000000001
30
0
0
VERTEX
8
0
10
13.9460125
20
13.004800000000001
30
0
0
VERTEX
8
0
10
13.898625000000001
20
12.99729375
30
0
0
VERTEX
8
0
10
13.852996875
20
12.98246875
30
0
0
VERTEX
8
0
10
13.81025
20
12.9606875
30
0
0
VERTEX
8
0
10
13.771437500000001
20
12.9324875
30
0
0
VERTEX
8
0
10
13.737512500000001
20
12.8985625
30
0
0
VERTEX
8
0
10
13.709312500000001
20
12.85975
30
0
0
VERTEX
8
0
10
13.687531250000001
20
12.817003125000001
30
0
0
VERTEX
8
0
10
13.672706250000001
20
12.771375
30
0
0
VERTEX
8
0
10
13.6652
20
12.7239875
30
0
0
VERTEX
8
0
10
13.6652
20
3.556
30
0
0
VERTEX
8
0
10
13.443950000000001
20
3.556
30
0
0
VERTEX
8
0
10
12.700000000000001
20
2.81205
30
0
0
VERTEX
8
0
10
12.700000000000001
20
1.7599500000000001
30
0
0
VERTEX
8
0
10
13.443950000000001
20
1.016
30
0
0
VERTEX
8
0
10
14.49605
20
1.016
30
0
0
VERTEX
8
0
10
15.24
20
1.7599500000000001
30
0
0
VERTEX
8
0
10
15.24
20
2.81205
30
0
0
VERTEX
8
0
10
14.49605
20
3.556
30
0
0
VERTEX
8
0
10
14.2748
20
3.556
30
0
0
VERTEX
8
0
10
14.2748
20
12.3952
30
0
0
VERTEX
8
0
10
17.8039875
20
12.3952
30
0
0
VERTEX
8
0
10
17.851375
20
12.402706250000001
30
0
0
SEQEND
0
POLYLINE
66
1
8
16_copper
10
0.0
20
0.0
30
0.0
70
1
0
VERTEX
8
0
10
10.27194375
20
39.123337500000005
30
0
0
VERTEX
8
0
10
10.345375
20
39.137943750000005
30
0
0
VERTEX
8
0
10
10.41701875
20
39.159678125
30
0
0
VERTEX
8
0
10
10.486190625
20
39.188328125000005
30
0
0
VERTEX
8
0
10
10.55221875
20
39.223621875
30
0
0
VERTEX
8
0
10
10.61446875
20
39.26521875
30
0
0
VERTEX
8
0
10
10.672343750000001
20
39.312715625
30
0
0
VERTEX
8
0
10
10.725284375000001
20
39.36565625
30
0
0
VERTEX
8
0
10
10.772781250000001
20
39.42353125
30
0
0
VERTEX
8
0
10
10.814378125000001
20
39.48578125
30
0
0
VERTEX
8
0
10
10.849671875
20
39.551809375000005
30
0
0
VERTEX
8
0
10
10.878321875000001
20
39.62098125
30
0
0
VERTEX
8
0
10
10.90005625
20
39.692625
30
0
0
VERTEX
8
0
10
10.9146625
20
39.766056250000005
30
0
0
VERTEX
8
0
10
10.922
20
39.840565625
30
0
0
VERTEX
8
0
10
10.922
20
41.439434375000005
30
0
0
VERTEX
8
0
10
10.9146625
20
41.51394375
30
0
0
VERTEX
8
0
10
10.90005625
20
41.587375
30
0
0
VERTEX
8
0
10
10.878321875000001
20
41.65901875
30
0
0
VERTEX
8
0
10
10.849671875
20
41.728190625
30
0
0
VERTEX
8
0
10
10.814378125000001
20
41.79421875
30
0
0
VERTEX
8
0
10
10.772781250000001
20
41.856468750000005
30
0
0
VERTEX
8
0
10
10.725284375000001
20
41.91434375
30
0
0
VERTEX
8
0
10
10.672343750000001
20
41.967284375000006
30
0
0
VERTEX
8
0
10
10.61446875
20
42.01478125
30
0
0
VERTEX
8
0
10
10.55221875
20
42.056378125
30
0
0
VERTEX
8
0
10
10.486190625
20
42.091671875
30
0
0
VERTEX
8
0
10
10.41701875
20
42.120321875
30
0
0
VERTEX
8
0
10
10.345375
20
42.14205625
30
0
0
VERTEX
8
0
10
10.27194375
20
42.1566625
30
0
0
VERTEX
8
0
10
10.197434375
20
42.164
30
0
0
VERTEX
8
0
10
10.122565625
20
42.164
30
0
0
VERTEX
8
0
10
10.04805625
20
42.1566625
30
0
0
VERTEX
8
0
10
9.974625
20
42.14205625
30
0
0
VERTEX
8
0
10
9.90298125
20
42.120321875
30
0
0
VERTEX
8
0
10
9.833809375000001
20
42.091671875
30
0
0
VERTEX
8
0
10
9.76778125
20
42.056378125
30
0
0
VERTEX
8
0
10
9.70553125
20
42.01478125
30
0
0
VERTEX
8
0
10
9.64765625
20
41.967284375000006
30
0
0
VERTEX
8
0
10
9.594715625000001
20
41.91434375
30
0
0
VERTEX
8
0
10
9.54721875
20
41.856468750000005
30
0
0
VERTEX
8
0
10
9.505621875000001
20
41.79421875
30
0
0
VERTEX
8
0
10
9.470328125
20
41.728190625
30
0
0
VERTEX
8
0
10
9.441678125000001
20
41.65901875
30
0
0
VERTEX
8
0
10
9.41994375
20
41.587375
30
0
0
VERTEX
8
0
10
9.4053375
20
41.51394375
30
0
0
VERTEX
8
0
10
9.398
20
41.439434375000005
30
0
0
VERTEX
8
0
10
9.398
20
39.840565625
30
0
0
VERTEX
8
0
10
9.4053375
20
39.766056250000005
30
0
0
VERTEX
8
0
10
9.41994375
20
39.692625
30
0
0
VERTEX
8
0
10
9.441678125000001
20
39.62098125
30
0
0
VERTEX
8
0
10
9.470328125
20
39.551809375000005
30
0
0
VERTEX
8
0
10
9.505621875000001
20
39.48578125
30
0
0
VERTEX
8
0
10
9.54721875
20
39.42353125
30
0
0
VERTEX
8
0
10
9.594715625000001
20
39.36565625
30
0
0
VERTEX
8
0
10
9.64765625
20
39.312715625
30
0
0
VERTEX
8
0
10
9.70553125
20
39.26521875
30
0
0
VERTEX
8
0
10
9.76778125
20
39.223621875
30
0
0
VERTEX
8
0
10
9.833809375000001
20
39.188328125000005
30
0
0
VERTEX
8
0
10
9.90298125
20
39.159678125
30
0
0
VERTEX
8
0
10
9.974625
20
39.137943750000005
30
0
0
VERTEX
8
0
10
10.04805625
20
39.123337500000005
30
0
0
VERTEX
8
0
10
10.122565625
20
39.116
30
0
0
VERTEX
8
0
10
10.197434375
20
39.116
30
0
0
SEQEND
0
POLYLINE
66
1
8
16_copper
10
0.0
20
0.0
30
0.0
70
1
0
VERTEX
8
0
10
17.89194375
20
18.8033375
30
0
0
VERTEX
8
0
10
17.965375
20
18.81794375
30
0
0
VERTEX
8
0
10
18.03701875
20
18.839678125000002
30
0
0
VERTEX
8
0
10
18.106190625
20
18.868328125
30
0
0
VERTEX
8
0
10
18.172218750000003
20
18.903621875000002
30
0
0
VERTEX
8
0
10
18.23446875
20
18.945218750000002
30
0
0
VERTEX
8
0
10
18.29234375
20
18.992715625000002
30
0
0
VERTEX
8
0
10
18.345284375000002
20
19.04565625
30
0
0
VERTEX
8
0
10
18.392781250000002
20
19.10353125
30
0
0
VERTEX
8
0
10
18.434378125000002
20
19.165781250000002
30
0
0
VERTEX
8
0
10
18.469671875
20
19.231809375
30
0
0
VERTEX
8
0
10
18.498321875000002
20
19.30098125
30
0
0
VERTEX
8
0
10
18.52005625
20
19.372625
30
0
0
VERTEX
8
0
10
18.5346625
20
19.44605625
30
0
0
VERTEX
8
0
10
18.542
20
19.520565625
30
0
0
VERTEX
8
0
10
18.542
20
21.119434375
30
0
0
VERTEX
8
0
10
18.5346625
20
21.193943750000003
30
0
0
VERTEX
8
0
10
18.52005625
20
21.267375
30
0
0
VERTEX
8
0
10
18.498321875000002
20
21.33901875
30
0
0
VERTEX
8
0
10
18.469671875
20
21.408190625
30
0
0
VERTEX
8
0
10
18.434378125000002
20
21.474218750000002
30
0
0
VERTEX
8
0
10
18.392781250000002
20
21.53646875
30
0
0
VERTEX
8
0
10
18.345284375000002
20
21.59434375
30
0
0
VERTEX
8
0
10
18.29234375
20
21.647284375
30
0
0
VERTEX
8
0
10
18.23446875
20
21.694781250000002
30
0
0
VERTEX
8
0
10
18.172218750000003
20
21.736378125
30
0
0
VERTEX
8
0
10
18.106190625
20
21.771671875000003
30
0
0
VERTEX
8
0
10
18.03701875
20
21.800321875
30
0
0
VERTEX
8
0
10
17.965375
20
21.822056250000003
30
0
0
VERTEX
8
0
10
17.89194375
20
21.836662500000003
30
0
0
VERTEX
8
0
10
17.817434375
20
21.844
30
0
0
VERTEX
8
0
10
17.742565625
20
21.844
30
0
0
VERTEX
8
0
10
17.66805625
20
21.836662500000003
30
0
0
VERTEX
8
0
10
17.594625
20
21.822056250000003
30
0
0
VERTEX
8
0
10
17.52298125
20
21.800321875
30
0
0
VERTEX
8
0
10
17.453809375000002
20
21.771671875000003
30
0
0
VERTEX
8
0
10
17.38778125
20
21.736378125
30
0
0
VERTEX
8
0
10
17.32553125
20
21.694781250000002
30
0
0
VERTEX
8
0
10
17.26765625
20
21.647284375
30
0
0
VERTEX
8
0
10
17.214715625
20
21.59434375
30
0
0
VERTEX
8
0
10
17.16721875
20
21.53646875
30
0
0
VERTEX
8
0
10
17.125621875
20
21.474218750000002
30
0
0
VERTEX
8
0
10
17.090328125
20
21.408190625
30
0
0
VERTEX
8
0
10
17.061678125
20
21.33901875
30
0
0
VERTEX
8
0
10
17.03994375
20
21.267375
30
0
0
VERTEX
8
0
10
17.0253375
20
21.193943750000003
30
0
0
VERTEX
8
0
10
17.018
20
21.119434375
30
0
0
VERTEX
8
0
10
17.018
20
19.520565625
30
0
0
VERTEX
8
0
10
17.0253375
20
19.44605625
30
0
0
VERTEX
8
0
10
17.03994375
20
19.372625
30
0
0
VERTEX
8
0
10
17.061678125
20
19.30098125
30
0
0
VERTEX
8
0
10
17.090328125
20
19.231809375
30
0
0
VERTEX
8
0
10
17.125621875
20
19.165781250000002
30
0
0
VERTEX
8
0
10
17.16721875
20
19.10353125
30
0
0
VERTEX
8
0
10
17.214715625
20
19.04565625
30
0
0
VERTEX
8
0
10
17.26765625
20
18.992715625000002
30
0
0
VERTEX
8
0
10
17.32553125
20
18.945218750000002
30
0
0
VERTEX
8
0
10
17.38778125
20
18.903621875000002
30
0
0
VERTEX
8
0
10
17.453809375000002
20
18.868328125
30
0
0
VERTEX
8
0
10
17.52298125
20
18.839678125000002
30
0
0
VERTEX
8
0
10
17.594625
20
18.81794375
30
0
0
VERTEX
8
0
10
17.66805625
20
18.8033375
30
0
0
VERTEX
8
0
10
17.742565625
20
18.796
30
0
0
VERTEX
8
0
10
17.817434375
20
18.796
30
0
0
SEQEND
0
POLYLINE
66
1
8
16_copper
10
0.0
20
0.0
30
0.0
70
1
0
VERTEX
8
0
10
15.24
20
1.7599500000000001
30
0
0
VERTEX
8
0
10
15.24
20
2.81205
30
0
0
VERTEX
8
0
10
14.49605
20
3.556
30
0
0
VERTEX
8
0
10
13.443950000000001
20
3.556
30
0
0
VERTEX
8
0
10
12.700000000000001
20
2.81205
30
0
0
VERTEX
8
0
10
12.700000000000001
20
1.7599500000000001
30
0
0
VERTEX
8
0
10
13.443950000000001
20
1.016
30
0
0
VERTEX
8
0
10
14.49605
20
1.016
30
0
0
SEQEND
0
POLYLINE
66
1
8
1_copper
10
0.0
20
0.0
30
0.0
70
1
0
VERTEX
8
0
10
20.437003125
20
9.87753125
30
0
0
VERTEX
8
0
10
20.47975
20
9.8993125
30
0
0
VERTEX
8
0
10
20.5185625
20
9.9275125
30
0
0
VERTEX
8
0
10
20.5524875
20
9.9614375
30
0
0
VERTEX
8
0
10
20.5806875
20
10.000250000000001
30
0
0
VERTEX
8
0
10
20.60246875
20
10.042996875
30
0
0
VERTEX
8
0
10
20.61729375
20
10.088625
30
0
0
VERTEX
8
0
10
20.6248
20
10.1360125
30
0
0
VERTEX
8
0
10
20.6248
20
18.85946875
30
0
0
VERTEX
8
0
10
20.646190625000003
20
18.868328125
30
0
0
VERTEX
8
0
10
20.71221875
20
18.903621875000002
30
0
0
VERTEX
8
0
10
20.77446875
20
18.945218750000002
30
0
0
VERTEX
8
0
10
20.83234375
20
18.992715625000002
30
0
0
VERTEX
8
0
10
20.885284375
20
19.04565625
30
0
0
VERTEX
8
0
10
20.93278125
20
19.10353125
30
0
0
VERTEX
8
0
10
20.974378125
20
19.165781250000002
30
0
0
VERTEX
8
0
10
21.009671875000002
20
19.231809375
30
0
0
VERTEX
8
0
10
21.038321875
20
19.30098125
30
0
0
VERTEX
8
0
10
21.060056250000002
20
19.372625
30
0
0
VERTEX
8
0
10
21.074662500000002
20
19.44605625
30
0
0
VERTEX
8
0
10
21.082
20
19.520565625
30
0
0
VERTEX
8
0
10
21.082
20
21.119434375
30
0
0
VERTEX
8
0
10
21.074662500000002
20
21.193943750000003
30
0
0
VERTEX
8
0
10
21.060056250000002
20
21.267375
30
0
0
VERTEX
8
0
10
21.038321875
20
21.33901875
30
0
0
VERTEX
8
0
10
21.009671875000002
20
21.408190625
30
0
0
VERTEX
8
0
10
20.974378125
20
21.474218750000002
30
0
0
VERTEX
8
0
10
20.93278125
20
21.53646875
30
0
0
VERTEX
8
0
10
20.885284375
20
21.59434375
30
0
0
VERTEX
8
0
10
20.83234375
20
21.647284375
30
0
0
VERTEX
8
0
10
20.77446875
20
21.694781250000002
30
0
0
VERTEX
8
0
10
20.71221875
20
21.736378125
30
0
0
VERTEX
8
0
10
20.646190625000003
20
21.771671875000003
30
0
0
VERTEX
8
0
10
20.6248
20
21.780531250000003
30
0
0
VERTEX
8
0
10
20.6248
20
36.8539875
30
0
0
VERTEX
8
0
10
20.61729375
20
36.901375
30
0
0
VERTEX
8
0
10
20.60246875
20
36.947003125
30
0
0
VERTEX
8
0
10
20.5806875
20
36.98975
30
0
0
VERTEX
8
0
10
20.5524875
20
37.0285625
30
0
0
VERTEX
8
0
10
20.5185625
20
37.0624875
30
0
0
VERTEX
8
0
10
20.47975
20
37.0906875
30
0
0
VERTEX
8
0
10
20.437003125
20
37.112468750000005
30
0
0
VERTEX
8
0
10
20.391375
20
37.12729375
30
0
0
VERTEX
8
0
10
20.3439875
20
37.1348
30
0
0
VERTEX
8
0
10
13.004800000000001
20
37.1348
30
0
0
VERTEX
8
0
10
13.004800000000001
20
39.179468750000005
30
0
0
VERTEX
8
0
10
13.026190625
20
39.188328125000005
30
0
0
VERTEX
8
0
10
13.09221875
20
39.223621875
30
0
0
VERTEX
8
0
10
13.154468750000001
20
39.26521875
30
0
0
VERTEX
8
0
10
13.21234375
20
39.312715625
30
0
0
VERTEX
8
0
10
13.265284375
20
39.36565625
30
0
0
VERTEX
8
0
10
13.31278125
20
39.42353125
30
0
0
VERTEX
8
0
10
13.354378125
20
39.48578125
30
0
0
VERTEX
8
0
10
13.389671875000001
20
39.551809375000005
30
0
0
VERTEX
8
0
10
13.418321875
20
39.62098125
30
0
0
VERTEX
8
0
10
13.440056250000001
20
39.692625
30
0
0
VERTEX
8
0
10
13.454662500000001
20
39.766056250000005
30
0
0
VERTEX
8
0
10
13.462000000000002
20
39.840565625
30
0
0
VERTEX
8
0
10
13.462000000000002
20
41.439434375000005
30
0
0
VERTEX
8
0
10
13.454662500000001
20
41.51394375
30
0
0
VERTEX
8
0
10
13.440056250000001
20
41.587375
30
0
0
VERTEX
8
0
10
13.418321875
20
41.65901875
30
0
0
VERTEX
8
0
10
13.389671875000001
20
41.728190625
30
0
0
VERTEX
8
0
10
13.354378125
20
41.79421875
30
0
0
VERTEX
8
0
10
13.31278125
20
41.856468750000005
30
0
0
VERTEX
8
0
10
13.265284375
20
41.91434375
30
0
0
VERTEX
8
0
10
13.21234375
20
41.967284375000006
30
0
0
VERTEX
8
0
10
13.154468750000001
20
42.01478125
30
0
0
VERTEX
8
0
10
13.09221875
20
42.056378125
30
0
0
VERTEX
8
0
10
13.026190625
20
42.091671875
30
0
0
VERTEX
8
0
10
12.957018750000001
20
42.120321875
30
0
0
VERTEX
8
0
10
12.885375
20
42.14205625
30
0
0
VERTEX
8
0
10
12.811943750000001
20
42.1566625
30
0
0
VERTEX
8
0
10
12.737434375000001
20
42.164
30
0
0
VERTEX
8
0
10
12.662565625000001
20
42.164
30
0
0
VERTEX
8
0
10
12.588056250000001
20
42.1566625
30
0
0
VERTEX
8
0
10
12.514625
20
42.14205625
30
0
0
VERTEX
8
0
10
12.44298125
20
42.120321875
30
0
0
VERTEX
8
0
10
12.373809375
20
42.091671875
30
0
0
VERTEX
8
0
10
12.307781250000001
20
42.056378125
30
0
0
VERTEX
8
0
10
12.24553125
20
42.01478125
30
0
0
VERTEX
8
0
10
12.18765625
20
41.967284375000006
30
0
0
VERTEX
8
0
10
12.134715625
20
41.91434375
30
0
0
VERTEX
8
0
10
12.08721875
20
41.856468750000005
30
0
0
VERTEX
8
0
10
12.045621875
20
41.79421875
30
0
0
VERTEX
8
0
10
12.010328125000001
20
41.728190625
30
0
0
VERTEX
8
0
10
11.981678125
20
41.65901875
30
0
0
VERTEX
8
0
10
11.95994375
20
41.587375
30
0
0
VERTEX
8
0
10
11.9453375
20
41.51394375
30
0
0
VERTEX
8
0
10
11.938
20
41.439434375000005
30
0
0
VERTEX
8
0
10
11.938
20
39.840565625
30
0
0
VERTEX
8
0
10
11.9453375
20
39.766056250000005
30
0
0
VERTEX
8
0
10
11.95994375
20
39.692625
30
0
0
VERTEX
8
0
10
11.981678125
20
39.62098125
30
0
0
VERTEX
8
0
10
12.010328125000001
20
39.551809375000005
30
0
0
VERTEX
8
0
10
12.045621875
20
39.48578125
30
0
0
VERTEX
8
0
10
12.08721875
20
39.42353125
30
0
0
VERTEX
8
0
10
12.134715625
20
39.36565625
30
0
0
VERTEX
8
0
10
12.18765625
20
39.312715625
30
0
0
VERTEX
8
0
10
12.24553125
20
39.26521875
30
0
0
VERTEX
8
0
10
12.307781250000001
20
39.223621875
30
0
0
VERTEX
8
0
10
12.373809375
20
39.188328125000005
30
0
0
VERTEX
8
0
10
12.3952
20
39.179468750000005
30
0
0
VERTEX
8
0
10
12.3952
20
36.8060125
30
0
0
VERTEX
8
0
10
12.402706250000001
20
36.758625
30
0
0
VERTEX
8
0
10
12.417531250000001
20
36.712996875
30
0
0
VERTEX
8
0
10
12.4393125
20
36.67025
30
0
0
VERTEX
8
0
10
12.4675125
20
36.631437500000004
30
0
0
VERTEX
8
0
10
12.5014375
20
36.5975125
30
0
0
VERTEX
8
0
10
12.54025
20
36.5693125
30
0
0
VERTEX
8
0
10
12.582996875000001
20
36.54753125
30
0
0
VERTEX
8
0
10
12.628625000000001
20
36.532706250000004
30
0
0
VERTEX
8
0
10
12.6760125
20
36.525200000000005
30
0
0
VERTEX
8
0
10
20.0152
20
36.525200000000005
30
0
0
VERTEX
8
0
10
20.0152
20
21.780531250000003
30
0
0
VERTEX
8
0
10
19.993809375
20
21.771671875000003
30
0
0
VERTEX
8
0
10
19.927781250000002
20
21.736378125
30
0
0
VERTEX
8
0
10
19.86553125
20
21.694781250000002
30
0
0
VERTEX
8
0
10
19.80765625
20
21.647284375
30
0
0
VERTEX
8
0
10
19.754715625
20
21.59434375
30
0
0
VERTEX
8
0
10
19.707218750000003
20
21.53646875
30
0
0
VERTEX
8
0
10
19.665621875
20
21.474218750000002
30
0
0
VERTEX
8
0
10
19.630328125000002
20
21.408190625
30
0
0
VERTEX
8
0
10
19.601678125
20
21.33901875
30
0
0
VERTEX
8
0
10
19.57994375
20
21.267375
30
0
0
VERTEX
8
0
10
19.565337500000002
20
21.193943750000003
30
0
0
VERTEX
8
0
10
19.558
20
21.119434375
30
0
0
VERTEX
8
0
10
19.558
20
19.520565625
30
0
0
VERTEX
8
0
10
19.565337500000002
20
19.44605625
30
0
0
VERTEX
8
0
10
19.57994375
20
19.372625
30
0
0
VERTEX
8
0
10
19.601678125
20
19.30098125
30
0
0
VERTEX
8
0
10
19.630328125000002
20
19.231809375
30
0
0
VERTEX
8
0
10
19.665621875
20
19.165781250000002
30
0
0
VERTEX
8
0
10
19.707218750000003
20
19.10353125
30
0
0
VERTEX
8
0
10
19.754715625
20
19.04565625
30
0
0
VERTEX
8
0
10
19.80765625
20
18.992715625000002
30
0
0
VERTEX
8
0
10
19.86553125
20
18.945218750000002
30
0
0
VERTEX
8
0
10
19.927781250000002
20
18.903621875000002
30
0
0
VERTEX
8
0
10
19.993809375
20
18.868328125
30
0
0
VERTEX
8
0
10
20.0152
20
18.85946875
30
0
0
VERTEX
8
0
10
20.0152
20
10.4648
30
0
0
VERTEX
8
0
10
17.7560125
20
10.4648
30
0
0
VERTEX
8
0
10
17.708625
20
10.45729375
30
0
0
VERTEX
8
0
10
17.662996875
20
10.44246875
30
0
0
VERTEX
8
0
10
17.620250000000002
20
10.4206875
30
0
0
VERTEX
8
0
10
17.5814375
20
10.3924875
30
0
0
VERTEX
8
0
10
17.5475125
20
10.3585625
30
0
0
VERTEX
8
0
10
17.5193125
20
10.31975
30
0
0
VERTEX
8
0
10
17.49753125
20
10.277003125
30
0
0
VERTEX
8
0
10
17.48270625
20
10.231375
30
0
0
VERTEX
8
0
10
17.4752
20
10.1839875
30
0
0
VERTEX
8
0
10
17.4752
20
3.556
30
0
0
VERTEX
8
0
10
17.25395
20
3.556
30
0
0
VERTEX
8
0
10
16.51
20
2.81205
30
0
0
VERTEX
8
0
10
16.51
20
1.7599500000000001
30
0
0
VERTEX
8
0
10
17.25395
20
1.016
30
0
0
VERTEX
8
0
10
18.306050000000003
20
1.016
30
0
0
VERTEX
8
0
10
19.05
20
1.7599500000000001
30
0
0
VERTEX
8
0
10
19.05
20
2.81205
30
0
0
VERTEX
8
0
10
18.306050000000003
20
3.556
30
0
0
VERTEX
8
0
10
18.0848
20
3.556
30
0
0
VERTEX
8
0
10
18.0848
20
9.8552
30
0
0
VERTEX
8
0
10
20.3439875
20
9.8552
30
0
0
VERTEX
8
0
10
20.391375
20
9.86270625
30
0
0
SEQEND
0
POLYLINE
66
1
8
16_copper
10
0.0
20
0.0
30
0.0
70
1
0
VERTEX
8
0
10
12.811943750000001
20
39.123337500000005
30
0
0
VERTEX
8
0
10
12.885375
20
39.137943750000005
30
0
0
VERTEX
8
0
10
12.957018750000001
20
39.159678125
30
0
0
VERTEX
8
0
10
13.026190625
20
39.188328125000005
30
0
0
VERTEX
8
0
10
13.09221875
20
39.223621875
30
0
0
VERTEX
8
0
10
13.154468750000001
20
39.26521875
30
0
0
VERTEX
8
0
10
13.21234375
20
39.312715625
30
0
0
VERTEX
8
0
10
13.265284375
20
39.36565625
30
0
0
VERTEX
8
0
10
13.31278125
20
39.42353125
30
0
0
VERTEX
8
0
10
13.354378125
20
39.48578125
30
0
0
VERTEX
8
0
10
13.389671875000001
20
39.551809375000005
30
0
0
VERTEX
8
0
10
13.418321875
20
39.62098125
30
0
0
VERTEX
8
0
10
13.440056250000001
20
39.692625
30
0
0
VERTEX
8
0
10
13.454662500000001
20
39.766056250000005
30
0
0
VERTEX
8
0
10
13.462000000000002
20
39.840565625
30
0
0
VERTEX
8
0
10
13.462000000000002
20
41.439434375000005
30
0
0
VERTEX
8
0
10
13.454662500000001
20
41.51394375
30
0
0
VERTEX
8
0
10
13.440056250000001
20
41.587375
30
0
0
VERTEX
8
0
10
13.418321875
20
41.65901875
30
0
0
VERTEX
8
0
10
13.389671875000001
20
41.728190625
30
0
0
VERTEX
8
0
10
13.354378125
20
41.79421875
30
0
0
VERTEX
8
0
10
13.31278125
20
41.856468750000005
30
0
0
VERTEX
8
0
10
13.265284375
20
41.91434375
30
0
0
VERTEX
8
0
10
13.21234375
20
41.967284375000006
30
0
0
VERTEX
8
0
10
13.154468750000001
20
42.01478125
30
0
0
VERTEX
8
0
10
13.09221875
20
42.056378125
30
0
0
VERTEX
8
0
10
13.026190625
20
42.091671875
30
0
0
VERTEX
8
0
10
12.957018750000001
20
42.120321875
30
0
0
VERTEX
8
0
10
12.885375
20
42.14205625
30
0
0
VERTEX
8
0
10
12.811943750000001
20
42.1566625
30
0
0
VERTEX
8
0
10
12.737434375000001
20
42.164
30
0
0
VERTEX
8
0
10
12.662565625000001
20
42.164
30
0
0
VERTEX
8
0
10
12.588056250000001
20
42.1566625
30
0
0
VERTEX
8
0
10
12.514625
20
42.14205625
30
0
0
VERTEX
8
0
10
12.44298125
20
42.120321875
30
0
0
VERTEX
8
0
10
12.373809375
20
42.091671875
30
0
0
VERTEX
8
0
10
12.307781250000001
20
42.056378125
30
0
0
VERTEX
8
0
10
12.24553125
20
42.01478125
30
0
0
VERTEX
8
0
10
12.18765625
20
41.967284375000006
30
0
0
VERTEX
8
0
10
12.134715625
20
41.91434375
30
0
0
VERTEX
8
0
10
12.08721875
20
41.856468750000005
30
0
0
VERTEX
8
0
10
12.045621875
20
41.79421875
30
0
0
VERTEX
8
0
10
12.010328125000001
20
41.728190625
30
0
0
VERTEX
8
0
10
11.981678125
20
41.65901875
30
0
0
VERTEX
8
0
10
11.95994375
20
41.587375
30
0
0
VERTEX
8
0
10
11.9453375
20
41.51394375
30
0
0
VERTEX
8
0
10
11.938
20
41.439434375000005
30
0
0
VERTEX
8
0
10
11.938
20
39.840565625
30
0
0
VERTEX
8
0
10
11.9453375
20
39.766056250000005
30
0
0
VERTEX
8
0
10
11.95994375
20
39.692625
30
0
0
VERTEX
8
0
10
11.981678125
20
39.62098125
30
0
0
VERTEX
8
0
10
12.010328125000001
20
39.551809375000005
30
0
0
VERTEX
8
0
10
12.045621875
20
39.48578125
30
0
0
VERTEX
8
0
10
12.08721875
20
39.42353125
30
0
0
VERTEX
8
0
10
12.134715625
20
39.36565625
30
0
0
VERTEX
8
0
10
12.18765625
20
39.312715625
30
0
0
VERTEX
8
0
10
12.24553125
20
39.26521875
30
0
0
VERTEX
8
0
10
12.307781250000001
20
39.223621875
30
0
0
VERTEX
8
0
10
12.373809375
20
39.188328125000005
30
0
0
VERTEX
8
0
10
12.44298125
20
39.159678125
30
0
0
VERTEX
8
0
10
12.514625
20
39.137943750000005
30
0
0
VERTEX
8
0
10
12.588056250000001
20
39.123337500000005
30
0
0
VERTEX
8
0
10
12.662565625000001
20
39.116
30
0
0
VERTEX
8
0
10
12.737434375000001
20
39.116
30
0
0
SEQEND
0
POLYLINE
66
1
8
16_copper
10
0.0
20
0.0
30
0.0
70
1
0
VERTEX
8
0
10
20.431943750000002
20
18.8033375
30
0
0
VERTEX
8
0
10
20.505375
20
18.81794375
30
0
0
VERTEX
8
0
10
20.57701875
20
18.839678125000002
30
0
0
VERTEX
8
0
10
20.646190625000003
20
18.868328125
30
0
0
VERTEX
8
0
10
20.71221875
20
18.903621875000002
30
0
0
VERTEX
8
0
10
20.77446875
20
18.945218750000002
30
0
0
VERTEX
8
0
10
20.83234375
20
18.992715625000002
30
0
0
VERTEX
8
0
10
20.885284375
20
19.04565625
30
0
0
VERTEX
8
0
10
20.93278125
20
19.10353125
30
0
0
VERTEX
8
0
10
20.974378125
20
19.165781250000002
30
0
0
VERTEX
8
0
10
21.009671875000002
20
19.231809375
30
0
0
VERTEX
8
0
10
21.038321875
20
19.30098125
30
0
0
VERTEX
8
0
10
21.060056250000002
20
19.372625
30
0
0
VERTEX
8
0
10
21.074662500000002
20
19.44605625
30
0
0
VERTEX
8
0
10
21.082
20
19.520565625
30
0
0
VERTEX
8
0
10
21.082
20
21.119434375
30
0
0
VERTEX
8
0
10
21.074662500000002
20
21.193943750000003
30
0
0
VERTEX
8
0
10
21.060056250000002
20
21.267375
30
0
0
VERTEX
8
0
10
21.038321875
20
21.33901875
30
0
0
VERTEX
8
0
10
21.009671875000002
20
21.408190625
30
0
0
VERTEX
8
0
10
20.974378125
20
21.474218750000002
30
0
0
VERTEX
8
0
10
20.93278125
20
21.53646875
30
0
0
VERTEX
8
0
10
20.885284375
20
21.59434375
30
0
0
VERTEX
8
0
10
20.83234375
20
21.647284375
30
0
0
VERTEX
8
0
10
20.77446875
20
21.694781250000002
30
0
0
VERTEX
8
0
10
20.71221875
20
21.736378125
30
0
0
VERTEX
8
0
10
20.646190625000003
20
21.771671875000003
30
0
0
VERTEX
8
0
10
20.57701875
20
21.800321875
30
0
0
VERTEX
8
0
10
20.505375
20
21.822056250000003
30
0
0
VERTEX
8
0
10
20.431943750000002
20
21.836662500000003
30
0
0
VERTEX
8
0
10
20.357434375
20
21.844
30
0
0
VERTEX
8
0
10
20.282565625
20
21.844
30
0
0
VERTEX
8
0
10
20.208056250000002
20
21.836662500000003
30
0
0
VERTEX
8
0
10
20.134625
20
21.822056250000003
30
0
0
VERTEX
8
0
10
20.06298125
20
21.800321875
30
0
0
VERTEX
8
0
10
19.993809375
20
21.771671875000003
30
0
0
VERTEX
8
0
10
19.927781250000002
20
21.736378125
30
0
0
VERTEX
8
0
10
19.86553125
20
21.694781250000002
30
0
0
VERTEX
8
0
10
19.80765625
20
21.647284375
30
0
0
VERTEX
8
0
10
19.754715625
20
21.59434375
30
0
0
VERTEX
8
0
10
19.707218750000003
20
21.53646875
30
0
0
VERTEX
8
0
10
19.665621875
20
21.474218750000002
30
0
0
VERTEX
8
0
10
19.630328125000002
20
21.408190625
30
0
0
VERTEX
8
0
10
19.601678125
20
21.33901875
30
0
0
VERTEX
8
0
10
19.57994375
20
21.267375
30
0
0
VERTEX
8
0
10
19.565337500000002
20
21.193943750000003
30
0
0
VERTEX
8
0
10
19.558
20
21.119434375
30
0
0
VERTEX
8
0
10
19.558
20
19.520565625
30
0
0
VERTEX
8
0
10
19.565337500000002
20
19.44605625
30
0
0
VERTEX
8
0
10
19.57994375
20
19.372625
30
0
0
VERTEX
8
0
10
19.601678125
20
19.30098125
30
0
0
VERTEX
8
0
10
19.630328125000002
20
19.231809375
30
0
0
VERTEX
8
0
10
19.665621875
20
19.165781250000002
30
0
0
VERTEX
8
0
10
19.707218750000003
20
19.10353125
30
0
0
VERTEX
8
0
10
19.754715625
20
19.04565625
30
0
0
VERTEX
8
0
10
19.80765625
20
18.992715625000002
30
0
0
VERTEX
8
0
10
19.86553125
20
18.945218750000002
30
0
0
VERTEX
8
0
10
19.927781250000002
20
18.903621875000002
30
0
0
VERTEX
8
0
10
19.993809375
20
18.868328125
30
0
0
VERTEX
8
0
10
20.06298125
20
18.839678125000002
30
0
0
VERTEX
8
0
10
20.134625
20
18.81794375
30
0
0
VERTEX
8
0
10
20.208056250000002
20
18.8033375
30
0
0
VERTEX
8
0
10
20.282565625
20
18.796
30
0
0
VERTEX
8
0
10
20.357434375
20
18.796
30
0
0
SEQEND
0
POLYLINE
66
1
8
16_copper
10
0.0
20
0.0
30
0.0
70
1
0
VERTEX
8
0
10
19.05
20
1.7599500000000001
30
0
0
VERTEX
8
0
10
19.05
20
2.81205
30
0
0
VERTEX
8
0
10
18.306050000000003
20
3.556
30
0
0
VERTEX
8
0
10
17.25395
20
3.556
30
0
0
VERTEX
8
0
10
16.51
20
2.81205
30
0
0
VERTEX
8
0
10
16.51
20
1.7599500000000001
30
0
0
VERTEX
8
0
10
17.25395
20
1.016
30
0
0
VERTEX
8
0
10
18.306050000000003
20
1.016
30
0
0
SEQEND
0
POLYLINE
66
1
8
1_copper
10
0.0
20
0.0
30
0.0
70
1
0
VERTEX
8
0
10
2.58329375
20
5.405375
30
0
0
VERTEX
8
0
10
2.56846875
20
5.451003125000001
30
0
0
VERTEX
8
0
10
2.5466875
20
5.49375
30
0
0
VERTEX
8
0
10
2.5184875
20
5.5325625
30
0
0
VERTEX
8
0
10
1.6256000000000002
20
6.4254500000000005
30
0
0
VERTEX
8
0
10
1.6256000000000002
20
56.845200000000006
30
0
0
VERTEX
8
0
10
10.1839875
20
56.845200000000006
30
0
0
VERTEX
8
0
10
10.231375
20
56.852706250000004
30
0
0
VERTEX
8
0
10
10.277003125
20
56.867531250000006
30
0
0
VERTEX
8
0
10
10.31975
20
56.8893125
30
0
0
VERTEX
8
0
10
10.3585625
20
56.9175125
30
0
0
VERTEX
8
0
10
10.3924875
20
56.951437500000004
30
0
0
VERTEX
8
0
10
10.4206875
20
56.99025
30
0
0
VERTEX
8
0
10
10.44246875
20
57.032996875
30
0
0
VERTEX
8
0
10
10.45729375
20
57.078625
30
0
0
VERTEX
8
0
10
10.4648
20
57.1260125
30
0
0
VERTEX
8
0
10
10.4648
20
59.499468750000005
30
0
0
VERTEX
8
0
10
10.486190625
20
59.508328125000006
30
0
0
VERTEX
8
0
10
10.55221875
20
59.543621875
30
0
0
VERTEX
8
0
10
10.61446875
20
59.58521875
30
0
0
VERTEX
8
0
10
10.672343750000001
20
59.632715625
30
0
0
VERTEX
8
0
10
10.725284375000001
20
59.68565625
30
0
0
VERTEX
8
0
10
10.772781250000001
20
59.743531250000004
30
0
0
VERTEX
8
0
10
10.814378125000001
20
59.80578125
30
0
0
VERTEX
8
0
10
10.849671875
20
59.871809375000005
30
0
0
VERTEX
8
0
10
10.878321875000001
20
59.94098125
30
0
0
VERTEX
8
0
10
10.90005625
20
60.012625
30
0
0
VERTEX
8
0
10
10.9146625
20
60.086056250000006
30
0
0
VERTEX
8
0
10
10.922
20
60.160565625000004
30
0
0
VERTEX
8
0
10
10.922
20
61.759434375000005
30
0
0
VERTEX
8
0
10
10.9146625
20
61.83394375
30
0
0
VERTEX
8
0
10
10.90005625
20
61.907375
30
0
0
VERTEX
8
0
10
10.878321875000001
20
61.97901875
30
0
0
VERTEX
8
0
10
10.849671875
20
62.048190625000004
30
0
0
VERTEX
8
0
10
10.814378125000001
20
62.114218750000006
30
0
0
VERTEX
8
0
10
10.772781250000001
20
62.176468750000005
30
0
0
VERTEX
8
0
10
10.725284375000001
20
62.23434375
30
0
0
VERTEX
8
0
10
10.672343750000001
20
62.287284375000006
30
0
0
VERTEX
8
0
10
10.61446875
20
62.334781250000006
30
0
0
VERTEX
8
0
10
10.55221875
20
62.376378125
30
0
0
VERTEX
8
0
10
10.486190625
20
62.411671875
30
0
0
VERTEX
8
0
10
10.41701875
20
62.440321875
30
0
0
VERTEX
8
0
10
10.345375
20
62.46205625
30
0
0
VERTEX
8
0
10
10.27194375
20
62.4766625
30
0
0
VERTEX
8
0
10
10.197434375
20
62.484
30
0
0
VERTEX
8
0
10
10.122565625
20
62.484
30
0
0
VERTEX
8
0
10
10.04805625
20
62.4766625
30
0
0
VERTEX
8
0
10
9.974625
20
62.46205625
30
0
0
VERTEX
8
0
10
9.90298125
20
62.440321875
30
0
0
VERTEX
8
0
10
9.833809375000001
20
62.411671875
30
0
0
VERTEX
8
0
10
9.76778125
20
62.376378125
30
0
0
VERTEX
8
0
10
9.70553125
20
62.334781250000006
30
0
0
VERTEX
8
0
10
9.64765625
20
62.287284375000006
30
0
0
VERTEX
8
0
10
9.594715625000001
20
62.23434375
30
0
0
VERTEX
8
0
10
9.54721875
20
62.176468750000005
30
0
0
VERTEX
8
0
10
9.505621875000001
20
62.114218750000006
30
0
0
VERTEX
8
0
10
9.470328125
20
62.048190625000004
30
0
0
VERTEX
8
0
10
9.441678125000001
20
61.97901875
30
0
0
VERTEX
8
0
10
9.41994375
20
61.907375
30
0
0
VERTEX
8
0
10
9.4053375
20
61.83394375
30
0
0
VERTEX
8
0
10
9.398
20
61.759434375000005
30
0
0
VERTEX
8
0
10
9.398
20
60.160565625000004
30
0
0
VERTEX
8
0
10
9.4053375
20
60.086056250000006
30
0
0
VERTEX
8
0
10
9.41994375
20
60.012625
30
0
0
VERTEX
8
0
10
9.441678125000001
20
59.94098125
30
0
0
VERTEX
8
0
10
9.470328125
20
59.871809375000005
30
0
0
VERTEX
8
0
10
9.505621875000001
20
59.80578125
30
0
0
VERTEX
8
0
10
9.54721875
20
59.743531250000004
30
0
0
VERTEX
8
0
10
9.594715625000001
20
59.68565625
30
0
0
VERTEX
8
0
10
9.64765625
20
59.632715625
30
0
0
VERTEX
8
0
10
9.70553125
20
59.58521875
30
0
0
VERTEX
8
0
10
9.76778125
20
59.543621875
30
0
0
VERTEX
8
0
10
9.833809375000001
20
59.508328125000006
30
0
0
VERTEX
8
0
10
9.8552
20
59.499468750000005
30
0
0
VERTEX
8
0
10
9.8552
20
57.454800000000006
30
0
0
VERTEX
8
0
10
1.2968125000000001
20
57.454800000000006
30
0
0
VERTEX
8
0
10
1.249425
20
57.44729375
30
0
0
VERTEX
8
0
10
1.203796875
20
57.432468750000005
30
0
0
VERTEX
8
0
10
1.1610500000000001
20
57.4106875
30
0
0
VERTEX
8
0
10
1.1222375
20
57.3824875
30
0
0
VERTEX
8
0
10
1.0883125
20
57.3485625
30
0
0
VERTEX
8
0
10
1.0601125
20
57.30975
30
0
0
VERTEX
8
0
10
1.0383312500000001
20
57.267003125
30
0
0
VERTEX
8
0
10
1.02350625
20
57.221375
30
0
0
VERTEX
8
0
10
1.016
20
57.1739875
30
0
0
VERTEX
8
0
10
1.016
20
6.2752125
30
0
0
VERTEX
8
0
10
1.02350625
20
6.227825
30
0
0
VERTEX
8
0
10
1.0383312500000001
20
6.182196875000001
30
0
0
VERTEX
8
0
10
1.0601125
20
6.13945
30
0
0
VERTEX
8
0
10
1.0883125
20
6.1006375
30
0
0
VERTEX
8
0
10
1.9812
20
5.20775
30
0
0
VERTEX
8
0
10
1.9812
20
3.556
30
0
0
VERTEX
8
0
10
1.7599500000000001
20
3.556
30
0
0
VERTEX
8
0
10
1.016
20
2.81205
30
0
0
VERTEX
8
0
10
1.016
20
1.7599500000000001
30
0
0
VERTEX
8
0
10
1.7599500000000001
20
1.016
30
0
0
VERTEX
8
0
10
2.81205
20
1.016
30
0
0
VERTEX
8
0
10
3.556
20
1.7599500000000001
30
0
0
VERTEX
8
0
10
3.556
20
2.81205
30
0
0
VERTEX
8
0
10
2.81205
20
3.556
30
0
0
VERTEX
8
0
10
2.5908
20
3.556
30
0
0
VERTEX
8
0
10
2.5908
20
5.3579875
30
0
0
SEQEND
0
POLYLINE
66
1
8
16_copper
10
0.0
20
0.0
30
0.0
70
1
0
VERTEX
8
0
10
10.27194375
20
59.443337500000005
30
0
0
VERTEX
8
0
10
10.345375
20
59.457943750000005
30
0
0
VERTEX
8
0
10
10.41701875
20
59.479678125
30
0
0
VERTEX
8
0
10
10.486190625
20
59.508328125000006
30
0
0
VERTEX
8
0
10
10.55221875
20
59.543621875
30
0
0
VERTEX
8
0
10
10.61446875
20
59.58521875
30
0
0
VERTEX
8
0
10
10.672343750000001
20
59.632715625
30
0
0
VERTEX
8
0
10
10.725284375000001
20
59.68565625
30
0
0
VERTEX
8
0
10
10.772781250000001
20
59.743531250000004
30
0
0
VERTEX
8
0
10
10.814378125000001
20
59.80578125
30
0
0
VERTEX
8
0
10
10.849671875
20
59.871809375000005
30
0
0
VERTEX
8
0
10
10.878321875000001
20
59.94098125
30
0
0
VERTEX
8
0
10
10.90005625
20
60.012625
30
0
0
VERTEX
8
0
10
10.9146625
20
60.086056250000006
30
0
0
VERTEX
8
0
10
10.922
20
60.160565625000004
30
0
0
VERTEX
8
0
10
10.922
20
61.759434375000005
30
0
0
VERTEX
8
0
10
10.9146625
20
61.83394375
30
0
0
VERTEX
8
0
10
10.90005625
20
61.907375
30
0
0
VERTEX
8
0
10
10.878321875000001
20
61.97901875
30
0
0
VERTEX
8
0
10
10.849671875
20
62.048190625000004
30
0
0
VERTEX
8
0
10
10.814378125000001
20
62.114218750000006
30
0
0
VERTEX
8
0
10
10.772781250000001
20
62.176468750000005
30
0
0
VERTEX
8
0
10
10.725284375000001
20
62.23434375
30
0
0
VERTEX
8
0
10
10.672343750000001
20
62.287284375000006
30
0
0
VERTEX
8
0
10
10.61446875
20
62.334781250000006
30
0
0
VERTEX
8
0
10
10.55221875
20
62.376378125
30
0
0
VERTEX
8
0
10
10.486190625
20
62.411671875
30
0
0
VERTEX
8
0
10
10.41701875
20
62.440321875
30
0
0
VERTEX
8
0
10
10.345375
20
62.46205625
30
0
0
VERTEX
8
0
10
10.27194375
20
62.4766625
30
0
0
VERTEX
8
0
10
10.197434375
20
62.484
30
0
0
VERTEX
8
0
10
10.122565625
20
62.484
30
0
0
VERTEX
8
0
10
10.04805625
20
62.4766625
30
0
0
VERTEX
8
0
10
9.974625
20
62.46205625
30
0
0
VERTEX
8
0
10
9.90298125
20
62.440321875
30
0
0
VERTEX
8
0
10
9.833809375000001
20
62.411671875
30
0
0
VERTEX
8
0
10
9.76778125
20
62.376378125
30
0
0
VERTEX
8
0
10
9.70553125
20
62.334781250000006
30
0
0
VERTEX
8
0
10
9.64765625
20
62.287284375000006
30
0
0
VERTEX
8
0
10
9.594715625000001
20
62.23434375
30
0
0
VERTEX
8
0
10
9.54721875
20
62.176468750000005
30
0
0
VERTEX
8
0
10
9.505621875000001
20
62.114218750000006
30
0
0
VERTEX
8
0
10
9.470328125
20
62.048190625000004
30
0
0
VERTEX
8
0
10
9.441678125000001
20
61.97901875
30
0
0
VERTEX
8
0
10
9.41994375
20
61.907375
30
0
0
VERTEX
8
0
10
9.4053375
20
61.83394375
30
0
0
VERTEX
8
0
10
9.398
20
61.759434375000005
30
0
0
VERTEX
8
0
10
9.398
20
60.160565625000004
30
0
0
VERTEX
8
0
10
9.4053375
20
60.086056250000006
30
0
0
VERTEX
8
0
10
9.41994375
20
60.012625
30
0
0
VERTEX
8
0
10
9.441678125000001
20
59.94098125
30
0
0
VERTEX
8
0
10
9.470328125
20
59.871809375000005
30
0
0
VERTEX
8
0
10
9.505621875000001
20
59.80578125
30
0
0
VERTEX
8
0
10
9.54721875
20
59.743531250000004
30
0
0
VERTEX
8
0
10
9.594715625000001
20
59.68565625
30
0
0
VERTEX
8
0
10
9.64765625
20
59.632715625
30
0
0
VERTEX
8
0
10
9.70553125
20
59.58521875
30
0
0
VERTEX
8
0
10
9.76778125
20
59.543621875
30
0
0
VERTEX
8
0
10
9.833809375000001
20
59.508328125000006
30
0
0
VERTEX
8
0
10
9.90298125
20
59.479678125
30
0
0
VERTEX
8
0
10
9.974625
20
59.457943750000005
30
0
0
VERTEX
8
0
10
10.04805625
20
59.443337500000005
30
0
0
VERTEX
8
0
10
10.122565625
20
59.436
30
0
0
VERTEX
8
0
10
10.197434375
20
59.436
30
0
0
SEQEND
0
POLYLINE
66
1
8
16_copper
10
0.0
20
0.0
30
0.0
70
1
0
VERTEX
8
0
10
3.556
20
1.7599500000000001
30
0
0
VERTEX
8
0
10
3.556
20
2.81205
30
0
0
VERTEX
8
0
10
2.81205
20
3.556
30
0
0
VERTEX
8
0
10
1.7599500000000001
20
3.556
30
0
0
VERTEX
8
0
10
1.016
20
2.81205
30
0
0
VERTEX
8
0
10
1.016
20
1.7599500000000001
30
0
0
VERTEX
8
0
10
1.7599500000000001
20
1.016
30
0
0
VERTEX
8
0
10
2.81205
20
1.016
30
0
0
SEQEND
0
POLYLINE
66
1
8
1_copper
10
0.0
20
0.0
30
0.0
70
1
0
VERTEX
8
0
10
10.45729375
20
8.961375
30
0
0
VERTEX
8
0
10
10.44246875
20
9.007003125
30
0
0
VERTEX
8
0
10
10.4206875
20
9.049750000000001
30
0
0
VERTEX
8
0
10
10.3924875
20
9.0885625
30
0
0
VERTEX
8
0
10
10.3585625
20
9.1224875
30
0
0
VERTEX
8
0
10
10.31975
20
9.1506875
30
0
0
VERTEX
8
0
10
10.277003125
20
9.17246875
30
0
0
VERTEX
8
0
10
10.231375
20
9.18729375
30
0
0
VERTEX
8
0
10
10.1839875
20
9.1948
30
0
0
VERTEX
8
0
10
6.654800000000001
20
9.1948
30
0
0
VERTEX
8
0
10
6.654800000000001
20
44.1452
30
0
0
VERTEX
8
0
10
12.7239875
20
44.1452
30
0
0
VERTEX
8
0
10
12.771375
20
44.15270625
30
0
0
VERTEX
8
0
10
12.817003125000001
20
44.16753125
30
0
0
VERTEX
8
0
10
12.85975
20
44.1893125
30
0
0
VERTEX
8
0
10
12.8985625
20
44.217512500000005
30
0
0
VERTEX
8
0
10
12.9324875
20
44.2514375
30
0
0
VERTEX
8
0
10
12.9606875
20
44.29025
30
0
0
VERTEX
8
0
10
12.98246875
20
44.332996875
30
0
0
VERTEX
8
0
10
12.99729375
20
44.378625
30
0
0
VERTEX
8
0
10
13.004800000000001
20
44.4260125
30
0
0
VERTEX
8
0
10
13.004800000000001
20
48.069468750000006
30
0
0
VERTEX
8
0
10
13.026190625
20
48.078328125000006
30
0
0
VERTEX
8
0
10
13.09221875
20
48.113621875
30
0
0
VERTEX
8
0
10
13.154468750000001
20
48.15521875
30
0
0
VERTEX
8
0
10
13.21234375
20
48.202715625
30
0
0
VERTEX
8
0
10
13.265284375
20
48.25565625
30
0
0
VERTEX
8
0
10
13.31278125
20
48.313531250000004
30
0
0
VERTEX
8
0
10
13.354378125
20
48.37578125
30
0
0
VERTEX
8
0
10
13.389671875000001
20
48.441809375000005
30
0
0
VERTEX
8
0
10
13.418321875
20
48.51098125
30
0
0
VERTEX
8
0
10
13.440056250000001
20
48.582625
30
0
0
VERTEX
8
0
10
13.454662500000001
20
48.65605625
30
0
0
VERTEX
8
0
10
13.462000000000002
20
48.730565625000004
30
0
0
VERTEX
8
0
10
13.462000000000002
20
50.329434375000005
30
0
0
VERTEX
8
0
10
13.454662500000001
20
50.40394375
30
0
0
VERTEX
8
0
10
13.440056250000001
20
50.477375
30
0
0
VERTEX
8
0
10
13.418321875
20
50.54901875
30
0
0
VERTEX
8
0
10
13.389671875000001
20
50.618190625000004
30
0
0
VERTEX
8
0
10
13.354378125
20
50.68421875
30
0
0
VERTEX
8
0
10
13.31278125
20
50.746468750000005
30
0
0
VERTEX
8
0
10
13.265284375
20
50.80434375
30
0
0
VERTEX
8
0
10
13.21234375
20
50.857284375
30
0
0
VERTEX
8
0
10
13.154468750000001
20
50.90478125
30
0
0
VERTEX
8
0
10
13.09221875
20
50.946378125
30
0
0
VERTEX
8
0
10
13.026190625
20
50.981671875
30
0
0
VERTEX
8
0
10
12.957018750000001
20
51.010321875
30
0
0
VERTEX
8
0
10
12.885375
20
51.032056250000004
30
0
0
VERTEX
8
0
10
12.811943750000001
20
51.046662500000004
30
0
0
VERTEX
8
0
10
12.737434375000001
20
51.054
30
0
0
VERTEX
8
0
10
12.662565625000001
20
51.054
30
0
0
VERTEX
8
0
10
12.588056250000001
20
51.046662500000004
30
0
0
VERTEX
8
0
10
12.514625
20
51.032056250000004
30
0
0
VERTEX
8
0
10
12.44298125
20
51.010321875
30
0
0
VERTEX
8
0
10
12.373809375
20
50.981671875
30
0
0
VERTEX
8
0
10
12.307781250000001
20
50.946378125
30
0
0
VERTEX
8
0
10
12.24553125
20
50.90478125
30
0
0
VERTEX
8
0
10
12.18765625
20
50.857284375
30
0
0
VERTEX
8
0
10
12.134715625
20
50.80434375
30
0
0
VERTEX
8
0
10
12.08721875
20
50.746468750000005
30
0
0
VERTEX
8
0
10
12.045621875
20
50.68421875
30
0
0
VERTEX
8
0
10
12.010328125000001
20
50.618190625000004
30
0
0
VERTEX
8
0
10
11.981678125
20
50.54901875
30
0
0
VERTEX
8
0
10
11.95994375
20
50.477375
30
0
0
VERTEX
8
0
10
11.9453375
20
50.40394375
30
0
0
VERTEX
8
0
10
11.938
20
50.329434375000005
30
0
0
VERTEX
8
0
10
11.938
20
48.730565625000004
30
0
0
VERTEX
8
0
10
11.9453375
20
48.65605625
30
0
0
VERTEX
8
0
10
11.95994375
20
48.582625
30
0
0
VERTEX
8
0
10
11.981678125
20
48.51098125
30
0
0
VERTEX
8
0
10
12.010328125000001
20
48.441809375000005
30
0
0
VERTEX
8
0
10
12.045621875
20
48.37578125
30
0
0
VERTEX
8
0
10
12.08721875
20
48.313531250000004
30
0
0
VERTEX
8
0
10
12.134715625
20
48.25565625
30
0
0
VERTEX
8
0
10
12.18765625
20
48.202715625
30
0
0
VERTEX
8
0
10
12.24553125
20
48.15521875
30
0
0
VERTEX
8
0
10
12.307781250000001
20
48.113621875
30
0
0
VERTEX
8
0
10
12.373809375
20
48.078328125000006
30
0
0
VERTEX
8
0
10
12.3952
20
48.069468750000006
30
0
0
VERTEX
8
0
10
12.3952
20
44.7548
30
0
0
VERTEX
8
0
10
6.3260125
20
44.7548
30
0
0
VERTEX
8
0
10
6.278625
20
44.747293750000004
30
0
0
VERTEX
8
0
10
6.232996875
20
44.73246875
30
0
0
VERTEX
8
0
10
6.190250000000001
20
44.7106875
30
0
0
VERTEX
8
0
10
6.1514375
20
44.6824875
30
0
0
VERTEX
8
0
10
6.1175125
20
44.648562500000004
30
0
0
VERTEX
8
0
10
6.0893125
20
44.609750000000005
30
0
0
VERTEX
8
0
10
6.06753125
20
44.567003125
30
0
0
VERTEX
8
0
10
6.05270625
20
44.521375
30
0
0
VERTEX
8
0
10
6.0452
20
44.4739875
30
0
0
VERTEX
8
0
10
6.0452
20
8.8660125
30
0
0
VERTEX
8
0
10
6.05270625
20
8.818625
30
0
0
VERTEX
8
0
10
6.06753125
20
8.772996875
30
0
0
VERTEX
8
0
10
6.0893125
20
8.73025
30
0
0
VERTEX
8
0
10
6.1175125
20
8.691437500000001
30
0
0
VERTEX
8
0
10
6.1514375
20
8.657512500000001
30
0
0
VERTEX
8
0
10
6.190250000000001
20
8.629312500000001
30
0
0
VERTEX
8
0
10
6.232996875
20
8.607531250000001
30
0
0
VERTEX
8
0
10
6.278625
20
8.59270625
30
0
0
VERTEX
8
0
10
6.3260125
20
8.5852
30
0
0
VERTEX
8
0
10
9.8552
20
8.5852
30
0
0
VERTEX
8
0
10
9.8552
20
3.556
30
0
0
VERTEX
8
0
10
9.63395
20
3.556
30
0
0
VERTEX
8
0
10
8.89
20
2.81205
30
0
0
VERTEX
8
0
10
8.89
20
1.7599500000000001
30
0
0
VERTEX
8
0
10
9.63395
20
1.016
30
0
0
VERTEX
8
0
10
10.68605
20
1.016
30
0
0
VERTEX
8
0
10
11.43
20
1.7599500000000001
30
0
0
VERTEX
8
0
10
11.43
20
2.81205
30
0
0
VERTEX
8
0
10
10.68605
20
3.556
30
0
0
VERTEX
8
0
10
10.4648
20
3.556
30
0
0
VERTEX
8
0
10
10.4648
20
8.913987500000001
30
0
0
SEQEND
0
POLYLINE
66
1
8
16_copper
10
0.0
20
0.0
30
0.0
70
1
0
VERTEX
8
0
10
12.811943750000001
20
48.013337500000006
30
0
0
VERTEX
8
0
10
12.885375
20
48.027943750000006
30
0
0
VERTEX
8
0
10
12.957018750000001
20
48.049678125
30
0
0
VERTEX
8
0
10
13.026190625
20
48.078328125000006
30
0
0
VERTEX
8
0
10
13.09221875
20
48.113621875
30
0
0
VERTEX
8
0
10
13.154468750000001
20
48.15521875
30
0
0
VERTEX
8
0
10
13.21234375
20
48.202715625
30
0
0
VERTEX
8
0
10
13.265284375
20
48.25565625
30
0
0
VERTEX
8
0
10
13.31278125
20
48.313531250000004
30
0
0
VERTEX
8
0
10
13.354378125
20
48.37578125
30
0
0
VERTEX
8
0
10
13.389671875000001
20
48.441809375000005
30
0
0
VERTEX
8
0
10
13.418321875
20
48.51098125
30
0
0
VERTEX
8
0
10
13.440056250000001
20
48.582625
30
0
0
VERTEX
8
0
10
13.454662500000001
20
48.65605625
30
0
0
VERTEX
8
0
10
13.462000000000002
20
48.730565625000004
30
0
0
VERTEX
8
0
10
13.462000000000002
20
50.329434375000005
30
0
0
VERTEX
8
0
10
13.454662500000001
20
50.40394375
30
0
0
VERTEX
8
0
10
13.440056250000001
20
50.477375
30
0
0
VERTEX
8
0
10
13.418321875
20
50.54901875
30
0
0
VERTEX
8
0
10
13.389671875000001
20
50.618190625000004
30
0
0
VERTEX
8
0
10
13.354378125
20
50.68421875
30
0
0
VERTEX
8
0
10
13.31278125
20
50.746468750000005
30
0
0
VERTEX
8
0
10
13.265284375
20
50.80434375
30
0
0
VERTEX
8
0
10
13.21234375
20
50.857284375
30
0
0
VERTEX
8
0
10
13.154468750000001
20
50.90478125
30
0
0
VERTEX
8
0
10
13.09221875
20
50.946378125
30
0
0
VERTEX
8
0
10
13.026190625
20
50.981671875
30
0
0
VERTEX
8
0
10
12.957018750000001
20
51.010321875
30
0
0
VERTEX
8
0
10
12.885375
20
51.032056250000004
30
0
0
VERTEX
8
0
10
12.811943750000001
20
51.046662500000004
30
0
0
VERTEX
8
0
10
12.737434375000001
20
51.054
30
0
0
VERTEX
8
0
10
12.662565625000001
20
51.054
30
0
0
VERTEX
8
0
10
12.588056250000001
20
51.046662500000004
30
0
0
VERTEX
8
0
10
12.514625
20
51.032056250000004
30
0
0
VERTEX
8
0
10
12.44298125
20
51.010321875
30
0
0
VERTEX
8
0
10
12.373809375
20
50.981671875
30
0
0
VERTEX
8
0
10
12.307781250000001
20
50.946378125
30
0
0
VERTEX
8
0
10
12.24553125
20
50.90478125
30
0
0
VERTEX
8
0
10
12.18765625
20
50.857284375
30
0
0
VERTEX
8
0
10
12.134715625
20
50.80434375
30
0
0
VERTEX
8
0
10
12.08721875
20
50.746468750000005
30
0
0
VERTEX
8
0
10
12.045621875
20
50.68421875
30
0
0
VERTEX
8
0
10
12.010328125000001
20
50.618190625000004
30
0
0
VERTEX
8
0
10
11.981678125
20
50.54901875
30
0
0
VERTEX
8
0
10
11.95994375
20
50.477375
30
0
0
VERTEX
8
0
10
11.9453375
20
50.40394375
30
0
0
VERTEX
8
0
10
11.938
20
50.329434375000005
30
0
0
VERTEX
8
0
10
11.938
20
48.730565625000004
30
0
0
VERTEX
8
0
10
11.9453375
20
48.65605625
30
0
0
VERTEX
8
0
10
11.95994375
20
48.582625
30
0
0
VERTEX
8
0
10
11.981678125
20
48.51098125
30
0
0
VERTEX
8
0
10
12.010328125000001
20
48.441809375000005
30
0
0
VERTEX
8
0
10
12.045621875
20
48.37578125
30
0
0
VERTEX
8
0
10
12.08721875
20
48.313531250000004
30
0
0
VERTEX
8
0
10
12.134715625
20
48.25565625
30
0
0
VERTEX
8
0
10
12.18765625
20
48.202715625
30
0
0
VERTEX
8
0
10
12.24553125
20
48.15521875
30
0
0
VERTEX
8
0
10
12.307781250000001
20
48.113621875
30
0
0
VERTEX
8
0
10
12.373809375
20
48.078328125000006
30
0
0
VERTEX
8
0
10
12.44298125
20
48.049678125
30
0
0
VERTEX
8
0
10
12.514625
20
48.027943750000006
30
0
0
VERTEX
8
0
10
12.588056250000001
20
48.013337500000006
30
0
0
VERTEX
8
0
10
12.662565625000001
20
48.006
30
0
0
VERTEX
8
0
10
12.737434375000001
20
48.006
30
0
0
SEQEND
0
POLYLINE
66
1
8
16_copper
10
0.0
20
0.0
30
0.0
70
1
0
VERTEX
8
0
10
11.43
20
1.7599500000000001
30
0
0
VERTEX
8
0
10
11.43
20
2.81205
30
0
0
VERTEX
8
0
10
10.68605
20
3.556
30
0
0
VERTEX
8
0
10
9.63395
20
3.556
30
0
0
VERTEX
8
0
10
8.89
20
2.81205
30
0
0
VERTEX
8
0
10
8.89
20
1.7599500000000001
30
0
0
VERTEX
8
0
10
9.63395
20
1.016
30
0
0
VERTEX
8
0
10
10.68605
20
1.016
30
0
0
SEQEND
0
POLYLINE
66
1
8
1_copper
10
0.0
20
0.0
30
0.0
70
1
0
VERTEX
8
0
10
6.393293750000001
20
5.405375
30
0
0
VERTEX
8
0
10
6.378468750000001
20
5.451003125000001
30
0
0
VERTEX
8
0
10
6.3566875000000005
20
5.49375
30
0
0
VERTEX
8
0
10
6.3284875000000005
20
5.5325625
30
0
0
VERTEX
8
0
10
4.1148
20
7.746250000000001
30
0
0
VERTEX
8
0
10
4.1148
20
48.069468750000006
30
0
0
VERTEX
8
0
10
4.136190625
20
48.078328125000006
30
0
0
VERTEX
8
0
10
4.20221875
20
48.113621875
30
0
0
VERTEX
8
0
10
4.26446875
20
48.15521875
30
0
0
VERTEX
8
0
10
4.32234375
20
48.202715625
30
0
0
VERTEX
8
0
10
4.375284375000001
20
48.25565625
30
0
0
VERTEX
8
0
10
4.42278125
20
48.313531250000004
30
0
0
VERTEX
8
0
10
4.4643781250000005
20
48.37578125
30
0
0
VERTEX
8
0
10
4.499671875000001
20
48.441809375000005
30
0
0
VERTEX
8
0
10
4.5283218750000005
20
48.51098125
30
0
0
VERTEX
8
0
10
4.55005625
20
48.582625
30
0
0
VERTEX
8
0
10
4.5646625
20
48.65605625
30
0
0
VERTEX
8
0
10
4.572
20
48.730565625000004
30
0
0
VERTEX
8
0
10
4.572
20
50.329434375000005
30
0
0
VERTEX
8
0
10
4.5646625
20
50.40394375
30
0
0
VERTEX
8
0
10
4.55005625
20
50.477375
30
0
0
VERTEX
8
0
10
4.5283218750000005
20
50.54901875
30
0
0
VERTEX
8
0
10
4.499671875000001
20
50.618190625000004
30
0
0
VERTEX
8
0
10
4.4643781250000005
20
50.68421875
30
0
0
VERTEX
8
0
10
4.42278125
20
50.746468750000005
30
0
0
VERTEX
8
0
10
4.375284375000001
20
50.80434375
30
0
0
VERTEX
8
0
10
4.32234375
20
50.857284375
30
0
0
VERTEX
8
0
10
4.26446875
20
50.90478125
30
0
0
VERTEX
8
0
10
4.20221875
20
50.946378125
30
0
0
VERTEX
8
0
10
4.136190625
20
50.981671875
30
0
0
VERTEX
8
0
10
4.06701875
20
51.010321875
30
0
0
VERTEX
8
0
10
3.995375
20
51.032056250000004
30
0
0
VERTEX
8
0
10
3.92194375
20
51.046662500000004
30
0
0
VERTEX
8
0
10
3.847434375
20
51.054
30
0
0
VERTEX
8
0
10
3.7725656250000004
20
51.054
30
0
0
VERTEX
8
0
10
3.69805625
20
51.046662500000004
30
0
0
VERTEX
8
0
10
3.624625
20
51.032056250000004
30
0
0
VERTEX
8
0
10
3.55298125
20
51.010321875
30
0
0
VERTEX
8
0
10
3.4838093750000003
20
50.981671875
30
0
0
VERTEX
8
0
10
3.41778125
20
50.946378125
30
0
0
VERTEX
8
0
10
3.3555312500000003
20
50.90478125
30
0
0
VERTEX
8
0
10
3.29765625
20
50.857284375
30
0
0
VERTEX
8
0
10
3.244715625
20
50.80434375
30
0
0
VERTEX
8
0
10
3.19721875
20
50.746468750000005
30
0
0
VERTEX
8
0
10
3.155621875
20
50.68421875
30
0
0
VERTEX
8
0
10
3.1203281250000003
20
50.618190625000004
30
0
0
VERTEX
8
0
10
3.091678125
20
50.54901875
30
0
0
VERTEX
8
0
10
3.06994375
20
50.477375
30
0
0
VERTEX
8
0
10
3.0553375000000003
20
50.40394375
30
0
0
VERTEX
8
0
10
3.048
20
50.329434375000005
30
0
0
VERTEX
8
0
10
3.048
20
48.730565625000004
30
0
0
VERTEX
8
0
10
3.0553375000000003
20
48.65605625
30
0
0
VERTEX
8
0
10
3.06994375
20
48.582625
30
0
0
VERTEX
8
0
10
3.091678125
20
48.51098125
30
0
0
VERTEX
8
0
10
3.1203281250000003
20
48.441809375000005
30
0
0
VERTEX
8
0
10
3.155621875
20
48.37578125
30
0
0
VERTEX
8
0
10
3.19721875
20
48.313531250000004
30
0
0
VERTEX
8
0
10
3.244715625
20
48.25565625
30
0
0
VERTEX
8
0
10
3.29765625
20
48.202715625
30
0
0
VERTEX
8
0
10
3.3555312500000003
20
48.15521875
30
0
0
VERTEX
8
0
10
3.41778125
20
48.113621875
30
0
0
VERTEX
8
0
10
3.4838093750000003
20
48.078328125000006
30
0
0
VERTEX
8
0
10
3.5052000000000003
20
48.069468750000006
30
0
0
VERTEX
8
0
10
3.5052000000000003
20
7.5960125000000005
30
0
0
VERTEX
8
0
10
3.5127062500000004
20
7.548625
30
0
0
VERTEX
8
0
10
3.52753125
20
7.502996875
30
0
0
VERTEX
8
0
10
3.5493125
20
7.46025
30
0
0
VERTEX
8
0
10
3.5775125
20
7.421437500000001
30
0
0
VERTEX
8
0
10
5.7912
20
5.20775
30
0
0
VERTEX
8
0
10
5.7912
20
3.556
30
0
0
VERTEX
8
0
10
5.56995
20
3.556
30
0
0
VERTEX
8
0
10
4.8260000000000005
20
2.81205
30
0
0
VERTEX
8
0
10
4.8260000000000005
20
1.7599500000000001
30
0
0
VERTEX
8
0
10
5.56995
20
1.016
30
0
0
VERTEX
8
0
10
6.622050000000001
20
1.016
30
0
0
VERTEX
8
0
10
7.3660000000000005
20
1.7599500000000001
30
0
0
VERTEX
8
0
10
7.3660000000000005
20
2.81205
30
0
0
VERTEX
8
0
10
6.622050000000001
20
3.556
30
0
0
VERTEX
8
0
10
6.4008
20
3.556
30
0
0
VERTEX
8
0
10
6.4008
20
5.3579875
30
0
0
SEQEND
0
POLYLINE
66
1
8
16_copper
10
0.0
20
0.0
30
0.0
70
1
0
VERTEX
8
0
10
3.92194375
20
48.013337500000006
30
0
0
VERTEX
8
0
10
3.995375
20
48.027943750000006
30
0
0
VERTEX
8
0
10
4.06701875
20
48.049678125
30
0
0
VERTEX
8
0
10
4.136190625
20
48.078328125000006
30
0
0
VERTEX
8
0
10
4.20221875
20
48.113621875
30
0
0
VERTEX
8
0
10
4.26446875
20
48.15521875
30
0
0
VERTEX
8
0
10
4.32234375
20
48.202715625
30
0
0
VERTEX
8
0
10
4.375284375000001
20
48.25565625
30
0
0
VERTEX
8
0
10
4.42278125
20
48.313531250000004
30
0
0
VERTEX
8
0
10
4.4643781250000005
20
48.37578125
30
0
0
VERTEX
8
0
10
4.499671875000001
20
48.441809375000005
30
0
0
VERTEX
8
0
10
4.5283218750000005
20
48.51098125
30
0
0
VERTEX
8
0
10
4.55005625
20
48.582625
30
0
0
VERTEX
8
0
10
4.5646625
20
48.65605625
30
0
0
VERTEX
8
0
10
4.572
20
48.730565625000004
30
0
0
VERTEX
8
0
10
4.572
20
50.329434375000005
30
0
0
VERTEX
8
0
10
4.5646625
20
50.40394375
30
0
0
VERTEX
8
0
10
4.55005625
20
50.477375
30
0
0
VERTEX
8
0
10
4.5283218750000005
20
50.54901875
30
0
0
VERTEX
8
0
10
4.499671875000001
20
50.618190625000004
30
0
0
VERTEX
8
0
10
4.4643781250000005
20
50.68421875
30
0
0
VERTEX
8
0
10
4.42278125
20
50.746468750000005
30
0
0
VERTEX
8
0
10
4.375284375000001
20
50.80434375
30
0
0
VERTEX
8
0
10
4.32234375
20
50.857284375
30
0
0
VERTEX
8
0
10
4.26446875
20
50.90478125
30
0
0
VERTEX
8
0
10
4.20221875
20
50.946378125
30
0
0
VERTEX
8
0
10
4.136190625
20
50.981671875
30
0
0
VERTEX
8
0
10
4.06701875
20
51.010321875
30
0
0
VERTEX
8
0
10
3.995375
20
51.032056250000004
30
0
0
VERTEX
8
0
10
3.92194375
20
51.046662500000004
30
0
0
VERTEX
8
0
10
3.847434375
20
51.054
30
0
0
VERTEX
8
0
10
3.7725656250000004
20
51.054
30
0
0
VERTEX
8
0
10
3.69805625
20
51.046662500000004
30
0
0
VERTEX
8
0
10
3.624625
20
51.032056250000004
30
0
0
VERTEX
8
0
10
3.55298125
20
51.010321875
30
0
0
VERTEX
8
0
10
3.4838093750000003
20
50.981671875
30
0
0
VERTEX
8
0
10
3.41778125
20
50.946378125
30
0
0
VERTEX
8
0
10
3.3555312500000003
20
50.90478125
30
0
0
VERTEX
8
0
10
3.29765625
20
50.857284375
30
0
0
VERTEX
8
0
10
3.244715625
20
50.80434375
30
0
0
VERTEX
8
0
10
3.19721875
20
50.746468750000005
30
0
0
VERTEX
8
0
10
3.155621875
20
50.68421875
30
0
0
VERTEX
8
0
10
3.1203281250000003
20
50.618190625000004
30
0
0
VERTEX
8
0
10
3.091678125
20
50.54901875
30
0
0
VERTEX
8
0
10
3.06994375
20
50.477375
30
0
0
VERTEX
8
0
10
3.0553375000000003
20
50.40394375
30
0
0
VERTEX
8
0
10
3.048
20
50.329434375000005
30
0
0
VERTEX
8
0
10
3.048
20
48.730565625000004
30
0
0
VERTEX
8
0
10
3.0553375000000003
20
48.65605625
30
0
0
VERTEX
8
0
10
3.06994375
20
48.582625
30
0
0
VERTEX
8
0
10
3.091678125
20
48.51098125
30
0
0
VERTEX
8
0
10
3.1203281250000003
20
48.441809375000005
30
0
0
VERTEX
8
0
10
3.155621875
20
48.37578125
30
0
0
VERTEX
8
0
10
3.19721875
20
48.313531250000004
30
0
0
VERTEX
8
0
10
3.244715625
20
48.25565625
30
0
0
VERTEX
8
0
10
3.29765625
20
48.202715625
30
0
0
VERTEX
8
0
10
3.3555312500000003
20
48.15521875
30
0
0
VERTEX
8
0
10
3.41778125
20
48.113621875
30
0
0
VERTEX
8
0
10
3.4838093750000003
20
48.078328125000006
30
0
0
VERTEX
8
0
10
3.55298125
20
48.049678125
30
0
0
VERTEX
8
0
10
3.624625
20
48.027943750000006
30
0
0
VERTEX
8
0
10
3.69805625
20
48.013337500000006
30
0
0
VERTEX
8
0
10
3.7725656250000004
20
48.006
30
0
0
VERTEX
8
0
10
3.847434375
20
48.006
30
0
0
SEQEND
0
POLYLINE
66
1
8
16_copper
10
0.0
20
0.0
30
0.0
70
1
0
VERTEX
8
0
10
7.3660000000000005
20
1.7599500000000001
30
0
0
VERTEX
8
0
10
7.3660000000000005
20
2.81205
30
0
0
VERTEX
8
0
10
6.622050000000001
20
3.556
30
0
0
VERTEX
8
0
10
5.56995
20
3.556
30
0
0
VERTEX
8
0
10
4.8260000000000005
20
2.81205
30
0
0
VERTEX
8
0
10
4.8260000000000005
20
1.7599500000000001
30
0
0
VERTEX
8
0
10
5.56995
20
1.016
30
0
0
VERTEX
8
0
10
6.622050000000001
20
1.016
30
0
0
SEQEND
0
CIRCLE
8
drills_NPTH
10
24.5
20
62
30
0
40
1.5
0
CIRCLE
8
drills_NPTH
10
3
20
62
30
0
40
1.5
0
CIRCLE
8
drills_NPTH
10
13.75
20
30
30
0
40
1.5
0
CIRCLE
8
drills_PTH
10
24.130000000000003
20
49.53
30
0
40
0.508
0
CIRCLE
8
drills_PTH
10
23.944000000000003
20
55.88
30
0
40
0.508
0
CIRCLE
8
drills_PTH
10
10.16
20
60.96
30
0
40
0.508
0
CIRCLE
8
drills_PTH
10
12.700000000000001
20
60.96
30
0
40
0.508
0
CIRCLE
8
drills_PTH
10
15.24
20
60.96
30
0
40
0.508
0
CIRCLE
8
drills_PTH
10
17.78
20
60.96
30
0
40
0.508
0
CIRCLE
8
drills_PTH
10
21.4376
20
2.286
30
0
40
0.508
0
CIRCLE
8
drills_PTH
10
2.286
20
2.286
30
0
40
0.508
0
CIRCLE
8
drills_PTH
10
10.16
20
2.286
30
0
40
0.508
0
CIRCLE
8
drills_PTH
10
6.096
20
2.286
30
0
40
0.508
0
CIRCLE
8
drills_PTH
10
10.16
20
40.64
30
0
40
0.508
0
CIRCLE
8
drills_PTH
10
12.700000000000001
20
40.64
30
0
40
0.508
0
CIRCLE
8
drills_PTH
10
15.24
20
40.64
30
0
40
0.508
0
CIRCLE
8
drills_PTH
10
17.78
20
40.64
30
0
40
0.508
0
CIRCLE
8
drills_PTH
10
20.32
20
40.64
30
0
40
0.508
0
CIRCLE
8
drills_PTH
10
22.86
20
40.64
30
0
40
0.508
0
CIRCLE
8
drills_PTH
10
25.400000000000002
20
40.64
30
0
40
0.508
0
CIRCLE
8
drills_PTH
10
7.62
20
20.32
30
0
40
0.508
0
CIRCLE
8
drills_PTH
10
10.16
20
20.32
30
0
40
0.508
0
CIRCLE
8
drills_PTH
10
12.700000000000001
20
20.32
30
0
40
0.508
0
CIRCLE
8
drills_PTH
10
15.24
20
20.32
30
0
40
0.508
0
CIRCLE
8
drills_PTH
10
17.78
20
20.32
30
0
40
0.508
0
CIRCLE
8
drills_PTH
10
20.32
20
20.32
30
0
40
0.508
0
CIRCLE
8
drills_PTH
10
22.86
20
20.32
30
0
40
0.508
0
CIRCLE
8
drills_PTH
10
25.400000000000002
20
20.32
30
0
40
0.508
0
CIRCLE
8
drills_PTH
10
6.3500000000000005
20
49.53
30
0
40
0.508
0
CIRCLE
8
drills_PTH
10
3.81
20
49.53
30
0
40
0.508
0
CIRCLE
8
drills_PTH
10
17.78
20
2.286
30
0
40
0.508
0
CIRCLE
8
drills_PTH
10
13.97
20
2.286
30
0
40
0.508
0
CIRCLE
8
drills_PTH
10
25.400000000000002
20
2.286
30
0
40
0.508
0
CIRCLE
8
drills_PTH
10
15.24
20
49.53
30
0
40
0.508
0
CIRCLE
8
drills_PTH
10
12.700000000000001
20
49.53
30
0
40
0.508
0
ENDSEC
0
EOF